G04 MADE WITH FRITZING*
G04 WWW.FRITZING.ORG*
G04 DOUBLE SIDED*
G04 HOLES PLATED*
G04 CONTOUR ON CENTER OF CONTOUR VECTOR*
%ASAXBY*%
%FSLAX23Y23*%
%MOIN*%
%OFA0B0*%
%SFA1.0B1.0*%
%ADD10C,0.039370*%
%ADD11C,0.070000*%
%ADD12C,0.078000*%
%ADD13C,0.068000*%
%ADD14R,0.031496X0.035433*%
%ADD15R,0.055118X0.059055*%
%ADD16R,0.048000X0.088000*%
%ADD17R,0.141732X0.086614*%
%ADD18R,0.068000X0.068000*%
%ADD19C,0.024000*%
%LNCOPPER1*%
G90*
G70*
G54D10*
X1023Y1024D03*
X1973Y1273D03*
X2472Y1074D03*
X2222Y73D03*
G54D11*
X1622Y1173D03*
X1522Y1173D03*
X1372Y523D03*
X1272Y523D03*
G54D12*
X72Y1173D03*
X72Y1273D03*
X272Y1173D03*
X272Y1273D03*
X72Y1073D03*
X72Y973D03*
G54D10*
X522Y1073D03*
G54D12*
X272Y973D03*
X72Y873D03*
X72Y673D03*
X72Y773D03*
X272Y673D03*
X272Y773D03*
X272Y873D03*
G54D10*
X1481Y429D03*
G54D12*
X222Y523D03*
X222Y423D03*
X1059Y398D03*
X959Y398D03*
X1059Y121D03*
X959Y121D03*
G54D13*
X1602Y934D03*
X1602Y855D03*
X1602Y776D03*
X1602Y697D03*
X1602Y618D03*
X1602Y539D03*
X1602Y460D03*
X1602Y381D03*
X1602Y302D03*
X1602Y223D03*
X2472Y223D03*
X2472Y302D03*
X2472Y381D03*
X2472Y460D03*
X2472Y539D03*
X2472Y618D03*
X2472Y697D03*
X2472Y776D03*
X2472Y855D03*
X2472Y934D03*
G54D11*
X822Y1261D03*
X822Y1161D03*
X822Y1061D03*
X822Y961D03*
X822Y861D03*
X822Y761D03*
X822Y661D03*
G54D14*
X2385Y1191D03*
X2459Y1191D03*
X2422Y1273D03*
G54D15*
X2272Y73D03*
X2353Y73D03*
G54D16*
X1463Y367D03*
X1372Y367D03*
X1281Y367D03*
G54D17*
X1372Y123D03*
G54D18*
X1602Y934D03*
G54D19*
X1023Y1005D02*
X1023Y574D01*
D02*
X1023Y574D02*
X572Y574D01*
D02*
X572Y574D02*
X572Y974D01*
D02*
X572Y974D02*
X302Y973D01*
D02*
X2412Y1273D02*
X1992Y1273D01*
D02*
X1171Y173D02*
X1171Y324D01*
D02*
X1171Y324D02*
X422Y324D01*
D02*
X422Y324D02*
X422Y873D01*
D02*
X422Y873D02*
X302Y873D01*
D02*
X1307Y140D02*
X1171Y173D01*
D02*
X2371Y923D02*
X2447Y932D01*
D02*
X2371Y923D02*
X2353Y97D01*
D02*
X2384Y1179D02*
X2371Y923D01*
D02*
X2241Y73D02*
X2250Y73D01*
D02*
X2461Y1179D02*
X2470Y1093D01*
D02*
X1273Y474D02*
X1273Y497D01*
D02*
X272Y743D02*
X272Y704D01*
D02*
X102Y1173D02*
X242Y1173D01*
D02*
X102Y1273D02*
X242Y1273D01*
D02*
X1372Y161D02*
X1372Y329D01*
D02*
X1472Y1173D02*
X1496Y1173D01*
D02*
X721Y1273D02*
X302Y1273D01*
D02*
X1472Y1173D02*
X853Y1162D01*
D02*
X1472Y924D02*
X1472Y1173D01*
D02*
X1472Y573D02*
X1391Y405D01*
D02*
X1472Y924D02*
X1472Y573D01*
D02*
X1577Y932D02*
X1472Y924D01*
D02*
X173Y1074D02*
X173Y974D01*
D02*
X173Y974D02*
X102Y974D01*
D02*
X503Y1073D02*
X173Y1074D01*
D02*
X972Y473D02*
X964Y427D01*
D02*
X1273Y474D02*
X972Y473D01*
D02*
X1278Y406D02*
X1273Y474D01*
D02*
X623Y1173D02*
X302Y1173D01*
D02*
X673Y772D02*
X623Y1173D01*
D02*
X791Y763D02*
X673Y772D01*
D02*
X723Y974D02*
X721Y1273D01*
D02*
X792Y965D02*
X723Y974D01*
D02*
X1476Y411D02*
X1474Y406D01*
D02*
X1071Y223D02*
X73Y223D01*
D02*
X73Y223D02*
X72Y574D01*
D02*
X72Y574D02*
X173Y623D01*
D02*
X173Y623D02*
X173Y874D01*
D02*
X173Y874D02*
X102Y874D01*
D02*
X1062Y151D02*
X1071Y223D01*
G04 End of Copper1*
M02*