; NON-PLATED HOLES START AT T1
; THROUGH (PLATED) HOLES START AT T100
M48
INCH
T100C0.028000
T101C0.038000
T102C0.039370
T103C0.030000
T104C0.015748
%
T100
X016021Y005393
X024721Y005393
X024721Y007763
X024721Y003023
X016021Y007763
X024721Y002233
X024721Y006973
X016021Y009343
X016021Y006973
X024721Y008553
X016021Y003813
X016021Y003023
X024721Y009343
X024721Y006183
X016021Y006183
X016021Y004603
X024721Y003813
X024721Y004603
X016021Y002233
X016021Y008553
T101
X000721Y008733
X002721Y009733
X000721Y006733
X010586Y003977
X002721Y007733
X000721Y010733
X009586Y003977
X002721Y011733
X010588Y001209
X002721Y008733
X009588Y001209
X000721Y009733
X000721Y012733
X000721Y007733
X002721Y006733
X002221Y005233
X002721Y012733
X002221Y004233
X000721Y011733
T102
X008221Y010610
X008221Y011610
X008221Y008610
X008221Y007610
X008221Y009610
X008221Y006610
X008221Y012610
T103
X012721Y005233
X013722Y005233
X015221Y011733
X016222Y011733
T104
X024720Y010741
X022221Y000733
X019725Y012730
X010227Y010238
X014811Y004293
X005220Y010733
T00
M30
