G04 MADE WITH FRITZING*
G04 WWW.FRITZING.ORG*
G04 DOUBLE SIDED*
G04 HOLES PLATED*
G04 CONTOUR ON CENTER OF CONTOUR VECTOR*
%ASAXBY*%
%FSLAX23Y23*%
%MOIN*%
%OFA0B0*%
%SFA1.0B1.0*%
%ADD10C,0.075000*%
%ADD11C,0.039370*%
%ADD12C,0.070000*%
%ADD13C,0.078000*%
%ADD14C,0.068000*%
%ADD15R,0.068000X0.068000*%
%ADD16C,0.024000*%
%LNCOPPER0*%
G90*
G70*
G54D10*
X164Y1235D03*
G54D11*
X1023Y1024D03*
X1973Y1273D03*
X2472Y1074D03*
X2222Y73D03*
G54D12*
X1622Y1173D03*
X1522Y1173D03*
X1372Y523D03*
X1272Y523D03*
G54D13*
X72Y1173D03*
X72Y1273D03*
X272Y1173D03*
X272Y1273D03*
X72Y1073D03*
X72Y973D03*
G54D11*
X522Y1073D03*
G54D13*
X272Y973D03*
X72Y873D03*
X72Y673D03*
X72Y773D03*
X272Y673D03*
X272Y773D03*
X272Y873D03*
G54D11*
X1481Y429D03*
G54D13*
X222Y523D03*
X222Y423D03*
X1059Y398D03*
X959Y398D03*
X1059Y121D03*
X959Y121D03*
G54D14*
X1602Y934D03*
X1602Y855D03*
X1602Y776D03*
X1602Y697D03*
X1602Y618D03*
X1602Y539D03*
X1602Y460D03*
X1602Y381D03*
X1602Y302D03*
X1602Y223D03*
X2472Y223D03*
X2472Y302D03*
X2472Y381D03*
X2472Y460D03*
X2472Y539D03*
X2472Y618D03*
X2472Y697D03*
X2472Y776D03*
X2472Y855D03*
X2472Y934D03*
G54D12*
X822Y1261D03*
X822Y1161D03*
X822Y1061D03*
X822Y961D03*
X822Y861D03*
X822Y761D03*
X822Y661D03*
G54D15*
X1602Y934D03*
G54D16*
X1971Y1024D02*
X1042Y1024D01*
D02*
X1972Y1254D02*
X1971Y1024D01*
D02*
X2223Y1074D02*
X2222Y92D01*
D02*
X2453Y1074D02*
X2223Y1074D01*
D02*
X1072Y773D02*
X1071Y523D01*
D02*
X473Y523D02*
X473Y623D01*
D02*
X473Y623D02*
X473Y623D01*
D02*
X1071Y523D02*
X473Y523D01*
D02*
X473Y623D02*
X472Y1074D01*
D02*
X472Y1074D02*
X102Y1073D01*
D02*
X1577Y776D02*
X1072Y773D01*
D02*
X1023Y823D02*
X1022Y574D01*
D02*
X1022Y574D02*
X522Y574D01*
D02*
X522Y574D02*
X522Y723D01*
D02*
X522Y723D02*
X522Y1054D01*
D02*
X1577Y854D02*
X1023Y823D01*
D02*
X722Y423D02*
X929Y401D01*
D02*
X373Y423D02*
X722Y423D01*
D02*
X373Y774D02*
X373Y423D01*
D02*
X302Y774D02*
X373Y774D01*
G36*
X120Y1299D02*
X120Y1275D01*
X122Y1275D01*
X122Y1273D01*
X120Y1273D01*
X120Y1261D01*
X118Y1261D01*
X118Y1255D01*
X116Y1255D01*
X116Y1251D01*
X114Y1251D01*
X114Y1247D01*
X112Y1247D01*
X112Y1245D01*
X110Y1245D01*
X110Y1241D01*
X108Y1241D01*
X108Y1239D01*
X106Y1239D01*
X106Y1237D01*
X102Y1237D01*
X102Y1235D01*
X100Y1235D01*
X100Y1213D01*
X102Y1213D01*
X102Y1211D01*
X104Y1211D01*
X104Y1209D01*
X108Y1209D01*
X108Y1205D01*
X110Y1205D01*
X110Y1203D01*
X112Y1203D01*
X112Y1201D01*
X114Y1201D01*
X114Y1197D01*
X116Y1197D01*
X116Y1193D01*
X118Y1193D01*
X118Y1187D01*
X120Y1187D01*
X120Y1175D01*
X122Y1175D01*
X122Y1173D01*
X120Y1173D01*
X120Y1161D01*
X118Y1161D01*
X118Y1155D01*
X116Y1155D01*
X116Y1151D01*
X114Y1151D01*
X114Y1147D01*
X112Y1147D01*
X112Y1145D01*
X110Y1145D01*
X110Y1141D01*
X108Y1141D01*
X108Y1139D01*
X106Y1139D01*
X106Y1137D01*
X102Y1137D01*
X102Y1135D01*
X100Y1135D01*
X100Y1125D01*
X262Y1125D01*
X262Y1127D01*
X256Y1127D01*
X256Y1129D01*
X250Y1129D01*
X250Y1131D01*
X248Y1131D01*
X248Y1133D01*
X244Y1133D01*
X244Y1135D01*
X242Y1135D01*
X242Y1137D01*
X238Y1137D01*
X238Y1139D01*
X236Y1139D01*
X236Y1143D01*
X234Y1143D01*
X234Y1145D01*
X232Y1145D01*
X232Y1147D01*
X230Y1147D01*
X230Y1151D01*
X228Y1151D01*
X228Y1155D01*
X226Y1155D01*
X226Y1161D01*
X224Y1161D01*
X224Y1187D01*
X226Y1187D01*
X226Y1193D01*
X228Y1193D01*
X228Y1197D01*
X230Y1197D01*
X230Y1201D01*
X232Y1201D01*
X232Y1203D01*
X234Y1203D01*
X234Y1205D01*
X236Y1205D01*
X236Y1207D01*
X238Y1207D01*
X238Y1209D01*
X240Y1209D01*
X240Y1211D01*
X242Y1211D01*
X242Y1213D01*
X244Y1213D01*
X244Y1235D01*
X242Y1235D01*
X242Y1237D01*
X238Y1237D01*
X238Y1239D01*
X236Y1239D01*
X236Y1243D01*
X234Y1243D01*
X234Y1245D01*
X232Y1245D01*
X232Y1247D01*
X230Y1247D01*
X230Y1251D01*
X228Y1251D01*
X228Y1255D01*
X226Y1255D01*
X226Y1261D01*
X224Y1261D01*
X224Y1299D01*
X120Y1299D01*
G37*
D02*
G36*
X320Y1299D02*
X320Y1275D01*
X322Y1275D01*
X322Y1273D01*
X320Y1273D01*
X320Y1261D01*
X318Y1261D01*
X318Y1255D01*
X316Y1255D01*
X316Y1251D01*
X314Y1251D01*
X314Y1247D01*
X312Y1247D01*
X312Y1245D01*
X310Y1245D01*
X310Y1241D01*
X308Y1241D01*
X308Y1239D01*
X306Y1239D01*
X306Y1237D01*
X302Y1237D01*
X302Y1235D01*
X300Y1235D01*
X300Y1213D01*
X302Y1213D01*
X302Y1211D01*
X304Y1211D01*
X304Y1209D01*
X308Y1209D01*
X308Y1205D01*
X310Y1205D01*
X310Y1203D01*
X312Y1203D01*
X312Y1201D01*
X314Y1201D01*
X314Y1197D01*
X316Y1197D01*
X316Y1193D01*
X318Y1193D01*
X318Y1187D01*
X320Y1187D01*
X320Y1175D01*
X322Y1175D01*
X322Y1173D01*
X320Y1173D01*
X320Y1161D01*
X318Y1161D01*
X318Y1155D01*
X316Y1155D01*
X316Y1151D01*
X314Y1151D01*
X314Y1147D01*
X312Y1147D01*
X312Y1145D01*
X310Y1145D01*
X310Y1141D01*
X308Y1141D01*
X308Y1139D01*
X306Y1139D01*
X306Y1137D01*
X302Y1137D01*
X302Y1135D01*
X300Y1135D01*
X300Y1133D01*
X298Y1133D01*
X298Y1131D01*
X294Y1131D01*
X294Y1129D01*
X288Y1129D01*
X288Y1127D01*
X282Y1127D01*
X282Y1125D01*
X794Y1125D01*
X794Y1127D01*
X792Y1127D01*
X792Y1129D01*
X790Y1129D01*
X790Y1131D01*
X788Y1131D01*
X788Y1133D01*
X786Y1133D01*
X786Y1137D01*
X784Y1137D01*
X784Y1139D01*
X782Y1139D01*
X782Y1143D01*
X780Y1143D01*
X780Y1149D01*
X778Y1149D01*
X778Y1173D01*
X780Y1173D01*
X780Y1179D01*
X782Y1179D01*
X782Y1183D01*
X784Y1183D01*
X784Y1187D01*
X786Y1187D01*
X786Y1189D01*
X788Y1189D01*
X788Y1191D01*
X790Y1191D01*
X790Y1193D01*
X792Y1193D01*
X792Y1195D01*
X794Y1195D01*
X794Y1197D01*
X796Y1197D01*
X796Y1199D01*
X800Y1199D01*
X800Y1201D01*
X802Y1201D01*
X802Y1223D01*
X798Y1223D01*
X798Y1225D01*
X794Y1225D01*
X794Y1227D01*
X792Y1227D01*
X792Y1229D01*
X790Y1229D01*
X790Y1231D01*
X788Y1231D01*
X788Y1233D01*
X786Y1233D01*
X786Y1237D01*
X784Y1237D01*
X784Y1239D01*
X782Y1239D01*
X782Y1243D01*
X780Y1243D01*
X780Y1249D01*
X778Y1249D01*
X778Y1273D01*
X780Y1273D01*
X780Y1279D01*
X782Y1279D01*
X782Y1299D01*
X320Y1299D01*
G37*
D02*
G36*
X864Y1299D02*
X864Y1275D01*
X866Y1275D01*
X866Y1263D01*
X868Y1263D01*
X868Y1259D01*
X866Y1259D01*
X866Y1249D01*
X864Y1249D01*
X864Y1243D01*
X862Y1243D01*
X862Y1239D01*
X860Y1239D01*
X860Y1235D01*
X858Y1235D01*
X858Y1233D01*
X856Y1233D01*
X856Y1231D01*
X854Y1231D01*
X854Y1229D01*
X852Y1229D01*
X852Y1227D01*
X850Y1227D01*
X850Y1225D01*
X846Y1225D01*
X846Y1223D01*
X844Y1223D01*
X844Y1221D01*
X842Y1221D01*
X842Y1219D01*
X1630Y1219D01*
X1630Y1217D01*
X1638Y1217D01*
X1638Y1215D01*
X1642Y1215D01*
X1642Y1213D01*
X1646Y1213D01*
X1646Y1211D01*
X1648Y1211D01*
X1648Y1209D01*
X1652Y1209D01*
X1652Y1207D01*
X1654Y1207D01*
X1654Y1205D01*
X1656Y1205D01*
X1656Y1203D01*
X1658Y1203D01*
X1658Y1199D01*
X1660Y1199D01*
X1660Y1197D01*
X1662Y1197D01*
X1662Y1193D01*
X1664Y1193D01*
X1664Y1187D01*
X1666Y1187D01*
X1666Y1179D01*
X1668Y1179D01*
X1668Y1169D01*
X1666Y1169D01*
X1666Y1161D01*
X1664Y1161D01*
X1664Y1155D01*
X1662Y1155D01*
X1662Y1151D01*
X1660Y1151D01*
X1660Y1149D01*
X1658Y1149D01*
X1658Y1145D01*
X1656Y1145D01*
X1656Y1143D01*
X1654Y1143D01*
X1654Y1141D01*
X1652Y1141D01*
X1652Y1139D01*
X1650Y1139D01*
X1650Y1137D01*
X1646Y1137D01*
X1646Y1135D01*
X1642Y1135D01*
X1642Y1133D01*
X1638Y1133D01*
X1638Y1131D01*
X1632Y1131D01*
X1632Y1129D01*
X1950Y1129D01*
X1950Y1255D01*
X1948Y1255D01*
X1948Y1259D01*
X1946Y1259D01*
X1946Y1263D01*
X1944Y1263D01*
X1944Y1273D01*
X1942Y1273D01*
X1942Y1275D01*
X1944Y1275D01*
X1944Y1299D01*
X864Y1299D01*
G37*
D02*
G36*
X2002Y1299D02*
X2002Y1265D01*
X2000Y1265D01*
X2000Y1261D01*
X1998Y1261D01*
X1998Y1257D01*
X1996Y1257D01*
X1996Y1255D01*
X1994Y1255D01*
X1994Y1105D01*
X2474Y1105D01*
X2474Y1103D01*
X2484Y1103D01*
X2484Y1101D01*
X2488Y1101D01*
X2488Y1099D01*
X2490Y1099D01*
X2490Y1097D01*
X2492Y1097D01*
X2492Y1095D01*
X2494Y1095D01*
X2494Y1093D01*
X2496Y1093D01*
X2496Y1091D01*
X2498Y1091D01*
X2498Y1087D01*
X2518Y1087D01*
X2518Y1299D01*
X2002Y1299D01*
G37*
D02*
G36*
X842Y1219D02*
X842Y1201D01*
X844Y1201D01*
X844Y1199D01*
X848Y1199D01*
X848Y1197D01*
X850Y1197D01*
X850Y1195D01*
X854Y1195D01*
X854Y1191D01*
X856Y1191D01*
X856Y1189D01*
X858Y1189D01*
X858Y1187D01*
X860Y1187D01*
X860Y1183D01*
X862Y1183D01*
X862Y1181D01*
X864Y1181D01*
X864Y1175D01*
X866Y1175D01*
X866Y1163D01*
X868Y1163D01*
X868Y1159D01*
X866Y1159D01*
X866Y1149D01*
X864Y1149D01*
X864Y1143D01*
X862Y1143D01*
X862Y1139D01*
X860Y1139D01*
X860Y1135D01*
X858Y1135D01*
X858Y1133D01*
X856Y1133D01*
X856Y1131D01*
X854Y1131D01*
X854Y1129D01*
X1512Y1129D01*
X1512Y1131D01*
X1506Y1131D01*
X1506Y1133D01*
X1502Y1133D01*
X1502Y1135D01*
X1498Y1135D01*
X1498Y1137D01*
X1496Y1137D01*
X1496Y1139D01*
X1492Y1139D01*
X1492Y1141D01*
X1490Y1141D01*
X1490Y1143D01*
X1488Y1143D01*
X1488Y1147D01*
X1486Y1147D01*
X1486Y1149D01*
X1484Y1149D01*
X1484Y1153D01*
X1482Y1153D01*
X1482Y1155D01*
X1480Y1155D01*
X1480Y1161D01*
X1478Y1161D01*
X1478Y1185D01*
X1480Y1185D01*
X1480Y1191D01*
X1482Y1191D01*
X1482Y1195D01*
X1484Y1195D01*
X1484Y1199D01*
X1486Y1199D01*
X1486Y1201D01*
X1488Y1201D01*
X1488Y1205D01*
X1490Y1205D01*
X1490Y1207D01*
X1494Y1207D01*
X1494Y1209D01*
X1496Y1209D01*
X1496Y1211D01*
X1498Y1211D01*
X1498Y1213D01*
X1502Y1213D01*
X1502Y1215D01*
X1506Y1215D01*
X1506Y1217D01*
X1514Y1217D01*
X1514Y1219D01*
X842Y1219D01*
G37*
D02*
G36*
X1530Y1219D02*
X1530Y1217D01*
X1538Y1217D01*
X1538Y1215D01*
X1542Y1215D01*
X1542Y1213D01*
X1546Y1213D01*
X1546Y1211D01*
X1548Y1211D01*
X1548Y1209D01*
X1550Y1209D01*
X1550Y1207D01*
X1554Y1207D01*
X1554Y1205D01*
X1556Y1205D01*
X1556Y1201D01*
X1558Y1201D01*
X1558Y1199D01*
X1560Y1199D01*
X1560Y1195D01*
X1562Y1195D01*
X1562Y1193D01*
X1582Y1193D01*
X1582Y1195D01*
X1584Y1195D01*
X1584Y1199D01*
X1586Y1199D01*
X1586Y1201D01*
X1588Y1201D01*
X1588Y1203D01*
X1590Y1203D01*
X1590Y1207D01*
X1594Y1207D01*
X1594Y1209D01*
X1596Y1209D01*
X1596Y1211D01*
X1598Y1211D01*
X1598Y1213D01*
X1602Y1213D01*
X1602Y1215D01*
X1608Y1215D01*
X1608Y1217D01*
X1614Y1217D01*
X1614Y1219D01*
X1530Y1219D01*
G37*
D02*
G36*
X1562Y1155D02*
X1562Y1151D01*
X1560Y1151D01*
X1560Y1149D01*
X1558Y1149D01*
X1558Y1145D01*
X1556Y1145D01*
X1556Y1143D01*
X1554Y1143D01*
X1554Y1141D01*
X1552Y1141D01*
X1552Y1139D01*
X1548Y1139D01*
X1548Y1137D01*
X1546Y1137D01*
X1546Y1135D01*
X1542Y1135D01*
X1542Y1133D01*
X1538Y1133D01*
X1538Y1131D01*
X1532Y1131D01*
X1532Y1129D01*
X1612Y1129D01*
X1612Y1131D01*
X1606Y1131D01*
X1606Y1133D01*
X1602Y1133D01*
X1602Y1135D01*
X1598Y1135D01*
X1598Y1137D01*
X1596Y1137D01*
X1596Y1139D01*
X1592Y1139D01*
X1592Y1141D01*
X1590Y1141D01*
X1590Y1143D01*
X1588Y1143D01*
X1588Y1147D01*
X1586Y1147D01*
X1586Y1149D01*
X1584Y1149D01*
X1584Y1153D01*
X1582Y1153D01*
X1582Y1155D01*
X1562Y1155D01*
G37*
D02*
G36*
X852Y1129D02*
X852Y1127D01*
X1950Y1127D01*
X1950Y1129D01*
X852Y1129D01*
G37*
D02*
G36*
X852Y1129D02*
X852Y1127D01*
X1950Y1127D01*
X1950Y1129D01*
X852Y1129D01*
G37*
D02*
G36*
X852Y1129D02*
X852Y1127D01*
X1950Y1127D01*
X1950Y1129D01*
X852Y1129D01*
G37*
D02*
G36*
X850Y1127D02*
X850Y1125D01*
X846Y1125D01*
X846Y1123D01*
X844Y1123D01*
X844Y1121D01*
X842Y1121D01*
X842Y1101D01*
X844Y1101D01*
X844Y1099D01*
X848Y1099D01*
X848Y1097D01*
X850Y1097D01*
X850Y1095D01*
X854Y1095D01*
X854Y1091D01*
X856Y1091D01*
X856Y1089D01*
X858Y1089D01*
X858Y1087D01*
X860Y1087D01*
X860Y1083D01*
X862Y1083D01*
X862Y1081D01*
X864Y1081D01*
X864Y1075D01*
X866Y1075D01*
X866Y1063D01*
X868Y1063D01*
X868Y1059D01*
X866Y1059D01*
X866Y1053D01*
X1034Y1053D01*
X1034Y1051D01*
X1038Y1051D01*
X1038Y1049D01*
X1040Y1049D01*
X1040Y1047D01*
X1950Y1047D01*
X1950Y1127D01*
X850Y1127D01*
G37*
D02*
G36*
X100Y1125D02*
X100Y1123D01*
X798Y1123D01*
X798Y1125D01*
X100Y1125D01*
G37*
D02*
G36*
X100Y1125D02*
X100Y1123D01*
X798Y1123D01*
X798Y1125D01*
X100Y1125D01*
G37*
D02*
G36*
X100Y1123D02*
X100Y1113D01*
X102Y1113D01*
X102Y1111D01*
X104Y1111D01*
X104Y1109D01*
X108Y1109D01*
X108Y1105D01*
X110Y1105D01*
X110Y1103D01*
X530Y1103D01*
X530Y1101D01*
X536Y1101D01*
X536Y1099D01*
X540Y1099D01*
X540Y1097D01*
X542Y1097D01*
X542Y1095D01*
X544Y1095D01*
X544Y1093D01*
X546Y1093D01*
X546Y1089D01*
X548Y1089D01*
X548Y1087D01*
X550Y1087D01*
X550Y1081D01*
X552Y1081D01*
X552Y1067D01*
X550Y1067D01*
X550Y1061D01*
X548Y1061D01*
X548Y1057D01*
X546Y1057D01*
X546Y1055D01*
X544Y1055D01*
X544Y617D01*
X812Y617D01*
X812Y619D01*
X804Y619D01*
X804Y621D01*
X802Y621D01*
X802Y623D01*
X798Y623D01*
X798Y625D01*
X794Y625D01*
X794Y627D01*
X792Y627D01*
X792Y629D01*
X790Y629D01*
X790Y631D01*
X788Y631D01*
X788Y633D01*
X786Y633D01*
X786Y637D01*
X784Y637D01*
X784Y639D01*
X782Y639D01*
X782Y643D01*
X780Y643D01*
X780Y649D01*
X778Y649D01*
X778Y673D01*
X780Y673D01*
X780Y679D01*
X782Y679D01*
X782Y683D01*
X784Y683D01*
X784Y687D01*
X786Y687D01*
X786Y689D01*
X788Y689D01*
X788Y691D01*
X790Y691D01*
X790Y693D01*
X792Y693D01*
X792Y695D01*
X794Y695D01*
X794Y697D01*
X796Y697D01*
X796Y699D01*
X800Y699D01*
X800Y701D01*
X802Y701D01*
X802Y723D01*
X798Y723D01*
X798Y725D01*
X794Y725D01*
X794Y727D01*
X792Y727D01*
X792Y729D01*
X790Y729D01*
X790Y731D01*
X788Y731D01*
X788Y733D01*
X786Y733D01*
X786Y737D01*
X784Y737D01*
X784Y739D01*
X782Y739D01*
X782Y743D01*
X780Y743D01*
X780Y749D01*
X778Y749D01*
X778Y773D01*
X780Y773D01*
X780Y779D01*
X782Y779D01*
X782Y783D01*
X784Y783D01*
X784Y787D01*
X786Y787D01*
X786Y789D01*
X788Y789D01*
X788Y791D01*
X790Y791D01*
X790Y793D01*
X792Y793D01*
X792Y795D01*
X794Y795D01*
X794Y797D01*
X796Y797D01*
X796Y799D01*
X800Y799D01*
X800Y801D01*
X802Y801D01*
X802Y823D01*
X798Y823D01*
X798Y825D01*
X794Y825D01*
X794Y827D01*
X792Y827D01*
X792Y829D01*
X790Y829D01*
X790Y831D01*
X788Y831D01*
X788Y833D01*
X786Y833D01*
X786Y837D01*
X784Y837D01*
X784Y839D01*
X782Y839D01*
X782Y843D01*
X780Y843D01*
X780Y849D01*
X778Y849D01*
X778Y873D01*
X780Y873D01*
X780Y879D01*
X782Y879D01*
X782Y883D01*
X784Y883D01*
X784Y887D01*
X786Y887D01*
X786Y889D01*
X788Y889D01*
X788Y891D01*
X790Y891D01*
X790Y893D01*
X792Y893D01*
X792Y895D01*
X794Y895D01*
X794Y897D01*
X796Y897D01*
X796Y899D01*
X800Y899D01*
X800Y901D01*
X802Y901D01*
X802Y923D01*
X798Y923D01*
X798Y925D01*
X794Y925D01*
X794Y927D01*
X792Y927D01*
X792Y929D01*
X790Y929D01*
X790Y931D01*
X788Y931D01*
X788Y933D01*
X786Y933D01*
X786Y937D01*
X784Y937D01*
X784Y939D01*
X782Y939D01*
X782Y943D01*
X780Y943D01*
X780Y949D01*
X778Y949D01*
X778Y973D01*
X780Y973D01*
X780Y979D01*
X782Y979D01*
X782Y983D01*
X784Y983D01*
X784Y987D01*
X786Y987D01*
X786Y989D01*
X788Y989D01*
X788Y991D01*
X790Y991D01*
X790Y993D01*
X792Y993D01*
X792Y995D01*
X794Y995D01*
X794Y997D01*
X796Y997D01*
X796Y999D01*
X800Y999D01*
X800Y1001D01*
X802Y1001D01*
X802Y1023D01*
X798Y1023D01*
X798Y1025D01*
X794Y1025D01*
X794Y1027D01*
X792Y1027D01*
X792Y1029D01*
X790Y1029D01*
X790Y1031D01*
X788Y1031D01*
X788Y1033D01*
X786Y1033D01*
X786Y1037D01*
X784Y1037D01*
X784Y1039D01*
X782Y1039D01*
X782Y1043D01*
X780Y1043D01*
X780Y1049D01*
X778Y1049D01*
X778Y1073D01*
X780Y1073D01*
X780Y1079D01*
X782Y1079D01*
X782Y1083D01*
X784Y1083D01*
X784Y1087D01*
X786Y1087D01*
X786Y1089D01*
X788Y1089D01*
X788Y1091D01*
X790Y1091D01*
X790Y1093D01*
X792Y1093D01*
X792Y1095D01*
X794Y1095D01*
X794Y1097D01*
X796Y1097D01*
X796Y1099D01*
X800Y1099D01*
X800Y1101D01*
X802Y1101D01*
X802Y1123D01*
X100Y1123D01*
G37*
D02*
G36*
X1994Y1105D02*
X1994Y1045D01*
X2464Y1045D01*
X2464Y1047D01*
X2460Y1047D01*
X2460Y1049D01*
X2456Y1049D01*
X2456Y1051D01*
X2452Y1051D01*
X2452Y1053D01*
X2450Y1053D01*
X2450Y1057D01*
X2448Y1057D01*
X2448Y1059D01*
X2446Y1059D01*
X2446Y1063D01*
X2444Y1063D01*
X2444Y1069D01*
X2442Y1069D01*
X2442Y1081D01*
X2444Y1081D01*
X2444Y1087D01*
X2446Y1087D01*
X2446Y1091D01*
X2448Y1091D01*
X2448Y1093D01*
X2450Y1093D01*
X2450Y1095D01*
X2452Y1095D01*
X2452Y1097D01*
X2454Y1097D01*
X2454Y1099D01*
X2458Y1099D01*
X2458Y1101D01*
X2460Y1101D01*
X2460Y1103D01*
X2470Y1103D01*
X2470Y1105D01*
X1994Y1105D01*
G37*
D02*
G36*
X112Y1103D02*
X112Y1101D01*
X114Y1101D01*
X114Y1097D01*
X474Y1097D01*
X474Y1095D01*
X502Y1095D01*
X502Y1097D01*
X506Y1097D01*
X506Y1099D01*
X508Y1099D01*
X508Y1101D01*
X514Y1101D01*
X514Y1103D01*
X112Y1103D01*
G37*
D02*
G36*
X116Y1097D02*
X116Y1095D01*
X276Y1095D01*
X276Y1097D01*
X116Y1097D01*
G37*
D02*
G36*
X2498Y1063D02*
X2498Y1059D01*
X2496Y1059D01*
X2496Y1057D01*
X2494Y1057D01*
X2494Y1053D01*
X2492Y1053D01*
X2492Y1051D01*
X2488Y1051D01*
X2488Y1049D01*
X2486Y1049D01*
X2486Y1047D01*
X2480Y1047D01*
X2480Y1045D01*
X2518Y1045D01*
X2518Y1063D01*
X2498Y1063D01*
G37*
D02*
G36*
X288Y1053D02*
X288Y1051D01*
X114Y1051D01*
X114Y1047D01*
X112Y1047D01*
X112Y1045D01*
X110Y1045D01*
X110Y1041D01*
X108Y1041D01*
X108Y1039D01*
X106Y1039D01*
X106Y1037D01*
X102Y1037D01*
X102Y1035D01*
X100Y1035D01*
X100Y1023D01*
X280Y1023D01*
X280Y1021D01*
X288Y1021D01*
X288Y1019D01*
X292Y1019D01*
X292Y1017D01*
X296Y1017D01*
X296Y1015D01*
X300Y1015D01*
X300Y1013D01*
X302Y1013D01*
X302Y1011D01*
X304Y1011D01*
X304Y1009D01*
X308Y1009D01*
X308Y1005D01*
X310Y1005D01*
X310Y1003D01*
X312Y1003D01*
X312Y1001D01*
X314Y1001D01*
X314Y997D01*
X316Y997D01*
X316Y993D01*
X318Y993D01*
X318Y987D01*
X320Y987D01*
X320Y975D01*
X322Y975D01*
X322Y973D01*
X320Y973D01*
X320Y961D01*
X318Y961D01*
X318Y955D01*
X316Y955D01*
X316Y951D01*
X314Y951D01*
X314Y947D01*
X312Y947D01*
X312Y945D01*
X310Y945D01*
X310Y941D01*
X308Y941D01*
X308Y939D01*
X306Y939D01*
X306Y937D01*
X302Y937D01*
X302Y935D01*
X300Y935D01*
X300Y913D01*
X302Y913D01*
X302Y911D01*
X304Y911D01*
X304Y909D01*
X308Y909D01*
X308Y905D01*
X310Y905D01*
X310Y903D01*
X312Y903D01*
X312Y901D01*
X314Y901D01*
X314Y897D01*
X316Y897D01*
X316Y893D01*
X318Y893D01*
X318Y887D01*
X320Y887D01*
X320Y875D01*
X322Y875D01*
X322Y873D01*
X320Y873D01*
X320Y861D01*
X318Y861D01*
X318Y855D01*
X316Y855D01*
X316Y851D01*
X314Y851D01*
X314Y847D01*
X312Y847D01*
X312Y845D01*
X310Y845D01*
X310Y841D01*
X308Y841D01*
X308Y839D01*
X306Y839D01*
X306Y837D01*
X302Y837D01*
X302Y835D01*
X300Y835D01*
X300Y813D01*
X302Y813D01*
X302Y811D01*
X304Y811D01*
X304Y809D01*
X308Y809D01*
X308Y805D01*
X310Y805D01*
X310Y803D01*
X312Y803D01*
X312Y801D01*
X314Y801D01*
X314Y797D01*
X378Y797D01*
X378Y795D01*
X384Y795D01*
X384Y793D01*
X386Y793D01*
X386Y791D01*
X388Y791D01*
X388Y789D01*
X390Y789D01*
X390Y787D01*
X392Y787D01*
X392Y785D01*
X394Y785D01*
X394Y777D01*
X396Y777D01*
X396Y501D01*
X468Y501D01*
X468Y503D01*
X462Y503D01*
X462Y505D01*
X460Y505D01*
X460Y507D01*
X458Y507D01*
X458Y509D01*
X456Y509D01*
X456Y511D01*
X454Y511D01*
X454Y515D01*
X452Y515D01*
X452Y715D01*
X450Y715D01*
X450Y1053D01*
X288Y1053D01*
G37*
D02*
G36*
X866Y1053D02*
X866Y1049D01*
X864Y1049D01*
X864Y1043D01*
X862Y1043D01*
X862Y1039D01*
X860Y1039D01*
X860Y1035D01*
X858Y1035D01*
X858Y1033D01*
X856Y1033D01*
X856Y1031D01*
X854Y1031D01*
X854Y1029D01*
X852Y1029D01*
X852Y1027D01*
X850Y1027D01*
X850Y1025D01*
X846Y1025D01*
X846Y1023D01*
X844Y1023D01*
X844Y1021D01*
X842Y1021D01*
X842Y1001D01*
X844Y1001D01*
X844Y999D01*
X848Y999D01*
X848Y997D01*
X850Y997D01*
X850Y995D01*
X1014Y995D01*
X1014Y997D01*
X1010Y997D01*
X1010Y999D01*
X1006Y999D01*
X1006Y1001D01*
X1004Y1001D01*
X1004Y1003D01*
X1002Y1003D01*
X1002Y1005D01*
X1000Y1005D01*
X1000Y1007D01*
X998Y1007D01*
X998Y1009D01*
X996Y1009D01*
X996Y1013D01*
X994Y1013D01*
X994Y1035D01*
X996Y1035D01*
X996Y1039D01*
X998Y1039D01*
X998Y1041D01*
X1000Y1041D01*
X1000Y1045D01*
X1002Y1045D01*
X1002Y1047D01*
X1006Y1047D01*
X1006Y1049D01*
X1008Y1049D01*
X1008Y1051D01*
X1012Y1051D01*
X1012Y1053D01*
X866Y1053D01*
G37*
D02*
G36*
X1994Y1045D02*
X1994Y1043D01*
X2518Y1043D01*
X2518Y1045D01*
X1994Y1045D01*
G37*
D02*
G36*
X1994Y1045D02*
X1994Y1043D01*
X2518Y1043D01*
X2518Y1045D01*
X1994Y1045D01*
G37*
D02*
G36*
X1994Y1043D02*
X1994Y1021D01*
X1992Y1021D01*
X1992Y1015D01*
X1990Y1015D01*
X1990Y1011D01*
X1988Y1011D01*
X1988Y1009D01*
X1986Y1009D01*
X1986Y1007D01*
X1984Y1007D01*
X1984Y1005D01*
X1980Y1005D01*
X1980Y1003D01*
X1042Y1003D01*
X1042Y1001D01*
X1040Y1001D01*
X1040Y999D01*
X1036Y999D01*
X1036Y997D01*
X1032Y997D01*
X1032Y995D01*
X2518Y995D01*
X2518Y1043D01*
X1994Y1043D01*
G37*
D02*
G36*
X100Y1023D02*
X100Y1013D01*
X102Y1013D01*
X102Y1011D01*
X104Y1011D01*
X104Y1009D01*
X108Y1009D01*
X108Y1005D01*
X110Y1005D01*
X110Y1003D01*
X112Y1003D01*
X112Y1001D01*
X114Y1001D01*
X114Y997D01*
X116Y997D01*
X116Y993D01*
X118Y993D01*
X118Y987D01*
X120Y987D01*
X120Y975D01*
X122Y975D01*
X122Y973D01*
X120Y973D01*
X120Y961D01*
X118Y961D01*
X118Y955D01*
X116Y955D01*
X116Y951D01*
X114Y951D01*
X114Y947D01*
X112Y947D01*
X112Y945D01*
X110Y945D01*
X110Y941D01*
X108Y941D01*
X108Y939D01*
X106Y939D01*
X106Y937D01*
X102Y937D01*
X102Y935D01*
X100Y935D01*
X100Y913D01*
X102Y913D01*
X102Y911D01*
X104Y911D01*
X104Y909D01*
X108Y909D01*
X108Y905D01*
X110Y905D01*
X110Y903D01*
X112Y903D01*
X112Y901D01*
X114Y901D01*
X114Y897D01*
X116Y897D01*
X116Y893D01*
X118Y893D01*
X118Y887D01*
X120Y887D01*
X120Y875D01*
X122Y875D01*
X122Y873D01*
X120Y873D01*
X120Y861D01*
X118Y861D01*
X118Y855D01*
X116Y855D01*
X116Y851D01*
X114Y851D01*
X114Y847D01*
X112Y847D01*
X112Y845D01*
X110Y845D01*
X110Y841D01*
X108Y841D01*
X108Y839D01*
X106Y839D01*
X106Y837D01*
X102Y837D01*
X102Y835D01*
X100Y835D01*
X100Y813D01*
X102Y813D01*
X102Y811D01*
X104Y811D01*
X104Y809D01*
X108Y809D01*
X108Y805D01*
X110Y805D01*
X110Y803D01*
X112Y803D01*
X112Y801D01*
X114Y801D01*
X114Y797D01*
X116Y797D01*
X116Y793D01*
X118Y793D01*
X118Y787D01*
X120Y787D01*
X120Y775D01*
X122Y775D01*
X122Y773D01*
X120Y773D01*
X120Y761D01*
X118Y761D01*
X118Y755D01*
X116Y755D01*
X116Y751D01*
X114Y751D01*
X114Y747D01*
X112Y747D01*
X112Y745D01*
X110Y745D01*
X110Y741D01*
X108Y741D01*
X108Y739D01*
X106Y739D01*
X106Y737D01*
X102Y737D01*
X102Y735D01*
X100Y735D01*
X100Y713D01*
X102Y713D01*
X102Y711D01*
X104Y711D01*
X104Y709D01*
X108Y709D01*
X108Y705D01*
X110Y705D01*
X110Y703D01*
X112Y703D01*
X112Y701D01*
X114Y701D01*
X114Y697D01*
X116Y697D01*
X116Y693D01*
X118Y693D01*
X118Y687D01*
X120Y687D01*
X120Y675D01*
X122Y675D01*
X122Y673D01*
X120Y673D01*
X120Y661D01*
X118Y661D01*
X118Y655D01*
X116Y655D01*
X116Y651D01*
X114Y651D01*
X114Y647D01*
X112Y647D01*
X112Y645D01*
X110Y645D01*
X110Y641D01*
X108Y641D01*
X108Y639D01*
X106Y639D01*
X106Y637D01*
X102Y637D01*
X102Y635D01*
X100Y635D01*
X100Y633D01*
X98Y633D01*
X98Y631D01*
X94Y631D01*
X94Y629D01*
X88Y629D01*
X88Y627D01*
X82Y627D01*
X82Y625D01*
X262Y625D01*
X262Y627D01*
X256Y627D01*
X256Y629D01*
X250Y629D01*
X250Y631D01*
X248Y631D01*
X248Y633D01*
X244Y633D01*
X244Y635D01*
X242Y635D01*
X242Y637D01*
X238Y637D01*
X238Y639D01*
X236Y639D01*
X236Y643D01*
X234Y643D01*
X234Y645D01*
X232Y645D01*
X232Y647D01*
X230Y647D01*
X230Y651D01*
X228Y651D01*
X228Y655D01*
X226Y655D01*
X226Y661D01*
X224Y661D01*
X224Y687D01*
X226Y687D01*
X226Y693D01*
X228Y693D01*
X228Y697D01*
X230Y697D01*
X230Y701D01*
X232Y701D01*
X232Y703D01*
X234Y703D01*
X234Y705D01*
X236Y705D01*
X236Y707D01*
X238Y707D01*
X238Y709D01*
X240Y709D01*
X240Y711D01*
X242Y711D01*
X242Y713D01*
X244Y713D01*
X244Y735D01*
X242Y735D01*
X242Y737D01*
X238Y737D01*
X238Y739D01*
X236Y739D01*
X236Y743D01*
X234Y743D01*
X234Y745D01*
X232Y745D01*
X232Y747D01*
X230Y747D01*
X230Y751D01*
X228Y751D01*
X228Y755D01*
X226Y755D01*
X226Y761D01*
X224Y761D01*
X224Y787D01*
X226Y787D01*
X226Y793D01*
X228Y793D01*
X228Y797D01*
X230Y797D01*
X230Y801D01*
X232Y801D01*
X232Y803D01*
X234Y803D01*
X234Y805D01*
X236Y805D01*
X236Y807D01*
X238Y807D01*
X238Y809D01*
X240Y809D01*
X240Y811D01*
X242Y811D01*
X242Y813D01*
X244Y813D01*
X244Y835D01*
X242Y835D01*
X242Y837D01*
X238Y837D01*
X238Y839D01*
X236Y839D01*
X236Y843D01*
X234Y843D01*
X234Y845D01*
X232Y845D01*
X232Y847D01*
X230Y847D01*
X230Y851D01*
X228Y851D01*
X228Y855D01*
X226Y855D01*
X226Y861D01*
X224Y861D01*
X224Y887D01*
X226Y887D01*
X226Y893D01*
X228Y893D01*
X228Y897D01*
X230Y897D01*
X230Y901D01*
X232Y901D01*
X232Y903D01*
X234Y903D01*
X234Y905D01*
X236Y905D01*
X236Y907D01*
X238Y907D01*
X238Y909D01*
X240Y909D01*
X240Y911D01*
X242Y911D01*
X242Y913D01*
X244Y913D01*
X244Y935D01*
X242Y935D01*
X242Y937D01*
X238Y937D01*
X238Y939D01*
X236Y939D01*
X236Y943D01*
X234Y943D01*
X234Y945D01*
X232Y945D01*
X232Y947D01*
X230Y947D01*
X230Y951D01*
X228Y951D01*
X228Y955D01*
X226Y955D01*
X226Y961D01*
X224Y961D01*
X224Y987D01*
X226Y987D01*
X226Y993D01*
X228Y993D01*
X228Y997D01*
X230Y997D01*
X230Y1001D01*
X232Y1001D01*
X232Y1003D01*
X234Y1003D01*
X234Y1005D01*
X236Y1005D01*
X236Y1007D01*
X238Y1007D01*
X238Y1009D01*
X240Y1009D01*
X240Y1011D01*
X242Y1011D01*
X242Y1013D01*
X244Y1013D01*
X244Y1015D01*
X248Y1015D01*
X248Y1017D01*
X252Y1017D01*
X252Y1019D01*
X256Y1019D01*
X256Y1021D01*
X264Y1021D01*
X264Y1023D01*
X100Y1023D01*
G37*
D02*
G36*
X854Y995D02*
X854Y993D01*
X2518Y993D01*
X2518Y995D01*
X854Y995D01*
G37*
D02*
G36*
X854Y995D02*
X854Y993D01*
X2518Y993D01*
X2518Y995D01*
X854Y995D01*
G37*
D02*
G36*
X854Y993D02*
X854Y991D01*
X856Y991D01*
X856Y989D01*
X858Y989D01*
X858Y987D01*
X860Y987D01*
X860Y983D01*
X862Y983D01*
X862Y981D01*
X864Y981D01*
X864Y979D01*
X2480Y979D01*
X2480Y977D01*
X2488Y977D01*
X2488Y975D01*
X2492Y975D01*
X2492Y973D01*
X2496Y973D01*
X2496Y971D01*
X2498Y971D01*
X2498Y969D01*
X2518Y969D01*
X2518Y993D01*
X854Y993D01*
G37*
D02*
G36*
X864Y979D02*
X864Y975D01*
X866Y975D01*
X866Y963D01*
X868Y963D01*
X868Y959D01*
X866Y959D01*
X866Y949D01*
X864Y949D01*
X864Y943D01*
X862Y943D01*
X862Y939D01*
X860Y939D01*
X860Y935D01*
X858Y935D01*
X858Y933D01*
X856Y933D01*
X856Y931D01*
X854Y931D01*
X854Y929D01*
X852Y929D01*
X852Y927D01*
X850Y927D01*
X850Y925D01*
X846Y925D01*
X846Y923D01*
X844Y923D01*
X844Y921D01*
X842Y921D01*
X842Y901D01*
X844Y901D01*
X844Y899D01*
X848Y899D01*
X848Y897D01*
X850Y897D01*
X850Y895D01*
X854Y895D01*
X854Y891D01*
X856Y891D01*
X856Y889D01*
X858Y889D01*
X858Y887D01*
X860Y887D01*
X860Y883D01*
X862Y883D01*
X862Y881D01*
X864Y881D01*
X864Y875D01*
X866Y875D01*
X866Y863D01*
X868Y863D01*
X868Y859D01*
X866Y859D01*
X866Y849D01*
X864Y849D01*
X864Y843D01*
X862Y843D01*
X862Y839D01*
X860Y839D01*
X860Y835D01*
X858Y835D01*
X858Y833D01*
X856Y833D01*
X856Y831D01*
X854Y831D01*
X854Y829D01*
X852Y829D01*
X852Y827D01*
X850Y827D01*
X850Y825D01*
X846Y825D01*
X846Y823D01*
X844Y823D01*
X844Y821D01*
X842Y821D01*
X842Y801D01*
X844Y801D01*
X844Y799D01*
X848Y799D01*
X848Y797D01*
X850Y797D01*
X850Y795D01*
X854Y795D01*
X854Y791D01*
X856Y791D01*
X856Y789D01*
X858Y789D01*
X858Y787D01*
X860Y787D01*
X860Y783D01*
X862Y783D01*
X862Y781D01*
X864Y781D01*
X864Y775D01*
X866Y775D01*
X866Y763D01*
X868Y763D01*
X868Y759D01*
X866Y759D01*
X866Y749D01*
X864Y749D01*
X864Y743D01*
X862Y743D01*
X862Y739D01*
X860Y739D01*
X860Y735D01*
X858Y735D01*
X858Y733D01*
X856Y733D01*
X856Y731D01*
X854Y731D01*
X854Y729D01*
X852Y729D01*
X852Y727D01*
X850Y727D01*
X850Y725D01*
X846Y725D01*
X846Y723D01*
X844Y723D01*
X844Y721D01*
X842Y721D01*
X842Y701D01*
X844Y701D01*
X844Y699D01*
X848Y699D01*
X848Y697D01*
X850Y697D01*
X850Y695D01*
X854Y695D01*
X854Y691D01*
X856Y691D01*
X856Y689D01*
X858Y689D01*
X858Y687D01*
X860Y687D01*
X860Y683D01*
X862Y683D01*
X862Y681D01*
X864Y681D01*
X864Y675D01*
X866Y675D01*
X866Y663D01*
X868Y663D01*
X868Y659D01*
X866Y659D01*
X866Y649D01*
X864Y649D01*
X864Y643D01*
X862Y643D01*
X862Y639D01*
X860Y639D01*
X860Y635D01*
X858Y635D01*
X858Y633D01*
X856Y633D01*
X856Y631D01*
X854Y631D01*
X854Y629D01*
X852Y629D01*
X852Y627D01*
X850Y627D01*
X850Y625D01*
X846Y625D01*
X846Y623D01*
X844Y623D01*
X844Y621D01*
X840Y621D01*
X840Y619D01*
X832Y619D01*
X832Y617D01*
X1000Y617D01*
X1000Y827D01*
X1002Y827D01*
X1002Y833D01*
X1004Y833D01*
X1004Y837D01*
X1006Y837D01*
X1006Y839D01*
X1008Y839D01*
X1008Y841D01*
X1012Y841D01*
X1012Y843D01*
X1016Y843D01*
X1016Y845D01*
X1036Y845D01*
X1036Y847D01*
X1072Y847D01*
X1072Y849D01*
X1108Y849D01*
X1108Y851D01*
X1144Y851D01*
X1144Y853D01*
X1178Y853D01*
X1178Y855D01*
X1214Y855D01*
X1214Y857D01*
X1250Y857D01*
X1250Y859D01*
X1286Y859D01*
X1286Y861D01*
X1320Y861D01*
X1320Y863D01*
X1356Y863D01*
X1356Y865D01*
X1392Y865D01*
X1392Y867D01*
X1428Y867D01*
X1428Y869D01*
X1462Y869D01*
X1462Y871D01*
X1498Y871D01*
X1498Y873D01*
X1534Y873D01*
X1534Y875D01*
X1558Y875D01*
X1558Y979D01*
X864Y979D01*
G37*
D02*
G36*
X1646Y979D02*
X1646Y891D01*
X1642Y891D01*
X1642Y871D01*
X1644Y871D01*
X1644Y865D01*
X1646Y865D01*
X1646Y847D01*
X1644Y847D01*
X1644Y839D01*
X1642Y839D01*
X1642Y835D01*
X1640Y835D01*
X1640Y833D01*
X1638Y833D01*
X1638Y829D01*
X1636Y829D01*
X1636Y827D01*
X1634Y827D01*
X1634Y805D01*
X1636Y805D01*
X1636Y803D01*
X1638Y803D01*
X1638Y801D01*
X1640Y801D01*
X1640Y797D01*
X1642Y797D01*
X1642Y793D01*
X1644Y793D01*
X1644Y785D01*
X1646Y785D01*
X1646Y767D01*
X1644Y767D01*
X1644Y761D01*
X1642Y761D01*
X1642Y757D01*
X1640Y757D01*
X1640Y753D01*
X1638Y753D01*
X1638Y751D01*
X1636Y751D01*
X1636Y747D01*
X1634Y747D01*
X1634Y727D01*
X1636Y727D01*
X1636Y725D01*
X1638Y725D01*
X1638Y721D01*
X1640Y721D01*
X1640Y717D01*
X1642Y717D01*
X1642Y713D01*
X1644Y713D01*
X1644Y707D01*
X1646Y707D01*
X1646Y689D01*
X1644Y689D01*
X1644Y681D01*
X1642Y681D01*
X1642Y677D01*
X1640Y677D01*
X1640Y675D01*
X1638Y675D01*
X1638Y671D01*
X1636Y671D01*
X1636Y669D01*
X1634Y669D01*
X1634Y647D01*
X1636Y647D01*
X1636Y645D01*
X1638Y645D01*
X1638Y643D01*
X1640Y643D01*
X1640Y639D01*
X1642Y639D01*
X1642Y635D01*
X1644Y635D01*
X1644Y627D01*
X1646Y627D01*
X1646Y609D01*
X1644Y609D01*
X1644Y603D01*
X1642Y603D01*
X1642Y599D01*
X1640Y599D01*
X1640Y595D01*
X1638Y595D01*
X1638Y593D01*
X1636Y593D01*
X1636Y589D01*
X1634Y589D01*
X1634Y569D01*
X1636Y569D01*
X1636Y567D01*
X1638Y567D01*
X1638Y563D01*
X1640Y563D01*
X1640Y559D01*
X1642Y559D01*
X1642Y555D01*
X1644Y555D01*
X1644Y549D01*
X1646Y549D01*
X1646Y531D01*
X1644Y531D01*
X1644Y523D01*
X1642Y523D01*
X1642Y519D01*
X1640Y519D01*
X1640Y517D01*
X1638Y517D01*
X1638Y513D01*
X1636Y513D01*
X1636Y511D01*
X1634Y511D01*
X1634Y489D01*
X1636Y489D01*
X1636Y487D01*
X1638Y487D01*
X1638Y485D01*
X1640Y485D01*
X1640Y481D01*
X1642Y481D01*
X1642Y477D01*
X1644Y477D01*
X1644Y469D01*
X1646Y469D01*
X1646Y451D01*
X1644Y451D01*
X1644Y445D01*
X1642Y445D01*
X1642Y441D01*
X1640Y441D01*
X1640Y437D01*
X1638Y437D01*
X1638Y435D01*
X1636Y435D01*
X1636Y431D01*
X1634Y431D01*
X1634Y411D01*
X1636Y411D01*
X1636Y409D01*
X1638Y409D01*
X1638Y405D01*
X1640Y405D01*
X1640Y401D01*
X1642Y401D01*
X1642Y397D01*
X1644Y397D01*
X1644Y391D01*
X1646Y391D01*
X1646Y373D01*
X1644Y373D01*
X1644Y365D01*
X1642Y365D01*
X1642Y361D01*
X1640Y361D01*
X1640Y359D01*
X1638Y359D01*
X1638Y355D01*
X1636Y355D01*
X1636Y353D01*
X1634Y353D01*
X1634Y331D01*
X1636Y331D01*
X1636Y329D01*
X1638Y329D01*
X1638Y327D01*
X1640Y327D01*
X1640Y323D01*
X1642Y323D01*
X1642Y319D01*
X1644Y319D01*
X1644Y311D01*
X1646Y311D01*
X1646Y293D01*
X1644Y293D01*
X1644Y287D01*
X1642Y287D01*
X1642Y283D01*
X1640Y283D01*
X1640Y279D01*
X1638Y279D01*
X1638Y277D01*
X1636Y277D01*
X1636Y273D01*
X1634Y273D01*
X1634Y253D01*
X1636Y253D01*
X1636Y251D01*
X1638Y251D01*
X1638Y247D01*
X1640Y247D01*
X1640Y243D01*
X1642Y243D01*
X1642Y239D01*
X1644Y239D01*
X1644Y233D01*
X1646Y233D01*
X1646Y215D01*
X1644Y215D01*
X1644Y207D01*
X1642Y207D01*
X1642Y203D01*
X1640Y203D01*
X1640Y201D01*
X1638Y201D01*
X1638Y197D01*
X1636Y197D01*
X1636Y195D01*
X1634Y195D01*
X1634Y193D01*
X1632Y193D01*
X1632Y191D01*
X1630Y191D01*
X1630Y189D01*
X1628Y189D01*
X1628Y187D01*
X1624Y187D01*
X1624Y185D01*
X1620Y185D01*
X1620Y183D01*
X1614Y183D01*
X1614Y181D01*
X1606Y181D01*
X1606Y179D01*
X2468Y179D01*
X2468Y181D01*
X2460Y181D01*
X2460Y183D01*
X2454Y183D01*
X2454Y185D01*
X2450Y185D01*
X2450Y187D01*
X2446Y187D01*
X2446Y189D01*
X2444Y189D01*
X2444Y191D01*
X2442Y191D01*
X2442Y193D01*
X2440Y193D01*
X2440Y195D01*
X2438Y195D01*
X2438Y197D01*
X2436Y197D01*
X2436Y201D01*
X2434Y201D01*
X2434Y205D01*
X2432Y205D01*
X2432Y209D01*
X2430Y209D01*
X2430Y215D01*
X2428Y215D01*
X2428Y233D01*
X2430Y233D01*
X2430Y239D01*
X2432Y239D01*
X2432Y243D01*
X2434Y243D01*
X2434Y247D01*
X2436Y247D01*
X2436Y251D01*
X2438Y251D01*
X2438Y253D01*
X2440Y253D01*
X2440Y275D01*
X2438Y275D01*
X2438Y277D01*
X2436Y277D01*
X2436Y279D01*
X2434Y279D01*
X2434Y283D01*
X2432Y283D01*
X2432Y287D01*
X2430Y287D01*
X2430Y295D01*
X2428Y295D01*
X2428Y311D01*
X2430Y311D01*
X2430Y319D01*
X2432Y319D01*
X2432Y323D01*
X2434Y323D01*
X2434Y327D01*
X2436Y327D01*
X2436Y329D01*
X2438Y329D01*
X2438Y331D01*
X2440Y331D01*
X2440Y353D01*
X2438Y353D01*
X2438Y355D01*
X2436Y355D01*
X2436Y359D01*
X2434Y359D01*
X2434Y363D01*
X2432Y363D01*
X2432Y367D01*
X2430Y367D01*
X2430Y373D01*
X2428Y373D01*
X2428Y391D01*
X2430Y391D01*
X2430Y397D01*
X2432Y397D01*
X2432Y401D01*
X2434Y401D01*
X2434Y405D01*
X2436Y405D01*
X2436Y409D01*
X2438Y409D01*
X2438Y411D01*
X2440Y411D01*
X2440Y433D01*
X2438Y433D01*
X2438Y435D01*
X2436Y435D01*
X2436Y437D01*
X2434Y437D01*
X2434Y441D01*
X2432Y441D01*
X2432Y445D01*
X2430Y445D01*
X2430Y453D01*
X2428Y453D01*
X2428Y469D01*
X2430Y469D01*
X2430Y477D01*
X2432Y477D01*
X2432Y481D01*
X2434Y481D01*
X2434Y485D01*
X2436Y485D01*
X2436Y487D01*
X2438Y487D01*
X2438Y489D01*
X2440Y489D01*
X2440Y511D01*
X2438Y511D01*
X2438Y513D01*
X2436Y513D01*
X2436Y517D01*
X2434Y517D01*
X2434Y521D01*
X2432Y521D01*
X2432Y525D01*
X2430Y525D01*
X2430Y531D01*
X2428Y531D01*
X2428Y549D01*
X2430Y549D01*
X2430Y555D01*
X2432Y555D01*
X2432Y559D01*
X2434Y559D01*
X2434Y563D01*
X2436Y563D01*
X2436Y567D01*
X2438Y567D01*
X2438Y569D01*
X2440Y569D01*
X2440Y591D01*
X2438Y591D01*
X2438Y593D01*
X2436Y593D01*
X2436Y595D01*
X2434Y595D01*
X2434Y599D01*
X2432Y599D01*
X2432Y603D01*
X2430Y603D01*
X2430Y611D01*
X2428Y611D01*
X2428Y627D01*
X2430Y627D01*
X2430Y635D01*
X2432Y635D01*
X2432Y639D01*
X2434Y639D01*
X2434Y643D01*
X2436Y643D01*
X2436Y645D01*
X2438Y645D01*
X2438Y647D01*
X2440Y647D01*
X2440Y669D01*
X2438Y669D01*
X2438Y671D01*
X2436Y671D01*
X2436Y675D01*
X2434Y675D01*
X2434Y679D01*
X2432Y679D01*
X2432Y683D01*
X2430Y683D01*
X2430Y689D01*
X2428Y689D01*
X2428Y707D01*
X2430Y707D01*
X2430Y713D01*
X2432Y713D01*
X2432Y717D01*
X2434Y717D01*
X2434Y721D01*
X2436Y721D01*
X2436Y725D01*
X2438Y725D01*
X2438Y727D01*
X2440Y727D01*
X2440Y749D01*
X2438Y749D01*
X2438Y751D01*
X2436Y751D01*
X2436Y753D01*
X2434Y753D01*
X2434Y757D01*
X2432Y757D01*
X2432Y761D01*
X2430Y761D01*
X2430Y769D01*
X2428Y769D01*
X2428Y785D01*
X2430Y785D01*
X2430Y793D01*
X2432Y793D01*
X2432Y797D01*
X2434Y797D01*
X2434Y801D01*
X2436Y801D01*
X2436Y803D01*
X2438Y803D01*
X2438Y805D01*
X2440Y805D01*
X2440Y827D01*
X2438Y827D01*
X2438Y829D01*
X2436Y829D01*
X2436Y833D01*
X2434Y833D01*
X2434Y837D01*
X2432Y837D01*
X2432Y841D01*
X2430Y841D01*
X2430Y847D01*
X2428Y847D01*
X2428Y865D01*
X2430Y865D01*
X2430Y871D01*
X2432Y871D01*
X2432Y875D01*
X2434Y875D01*
X2434Y879D01*
X2436Y879D01*
X2436Y883D01*
X2438Y883D01*
X2438Y885D01*
X2440Y885D01*
X2440Y907D01*
X2438Y907D01*
X2438Y909D01*
X2436Y909D01*
X2436Y911D01*
X2434Y911D01*
X2434Y915D01*
X2432Y915D01*
X2432Y919D01*
X2430Y919D01*
X2430Y927D01*
X2428Y927D01*
X2428Y943D01*
X2430Y943D01*
X2430Y951D01*
X2432Y951D01*
X2432Y955D01*
X2434Y955D01*
X2434Y959D01*
X2436Y959D01*
X2436Y961D01*
X2438Y961D01*
X2438Y963D01*
X2440Y963D01*
X2440Y965D01*
X2442Y965D01*
X2442Y967D01*
X2444Y967D01*
X2444Y969D01*
X2446Y969D01*
X2446Y971D01*
X2448Y971D01*
X2448Y973D01*
X2452Y973D01*
X2452Y975D01*
X2458Y975D01*
X2458Y977D01*
X2464Y977D01*
X2464Y979D01*
X1646Y979D01*
G37*
D02*
G36*
X1486Y755D02*
X1486Y753D01*
X1192Y753D01*
X1192Y751D01*
X1094Y751D01*
X1094Y569D01*
X1380Y569D01*
X1380Y567D01*
X1388Y567D01*
X1388Y565D01*
X1392Y565D01*
X1392Y563D01*
X1396Y563D01*
X1396Y561D01*
X1398Y561D01*
X1398Y559D01*
X1402Y559D01*
X1402Y557D01*
X1404Y557D01*
X1404Y555D01*
X1406Y555D01*
X1406Y553D01*
X1408Y553D01*
X1408Y549D01*
X1410Y549D01*
X1410Y547D01*
X1412Y547D01*
X1412Y543D01*
X1414Y543D01*
X1414Y537D01*
X1416Y537D01*
X1416Y529D01*
X1418Y529D01*
X1418Y519D01*
X1416Y519D01*
X1416Y511D01*
X1414Y511D01*
X1414Y505D01*
X1412Y505D01*
X1412Y501D01*
X1410Y501D01*
X1410Y499D01*
X1408Y499D01*
X1408Y495D01*
X1406Y495D01*
X1406Y493D01*
X1404Y493D01*
X1404Y491D01*
X1402Y491D01*
X1402Y489D01*
X1400Y489D01*
X1400Y487D01*
X1396Y487D01*
X1396Y485D01*
X1392Y485D01*
X1392Y483D01*
X1388Y483D01*
X1388Y481D01*
X1382Y481D01*
X1382Y479D01*
X1562Y479D01*
X1562Y481D01*
X1564Y481D01*
X1564Y485D01*
X1566Y485D01*
X1566Y487D01*
X1568Y487D01*
X1568Y489D01*
X1570Y489D01*
X1570Y511D01*
X1568Y511D01*
X1568Y513D01*
X1566Y513D01*
X1566Y517D01*
X1564Y517D01*
X1564Y521D01*
X1562Y521D01*
X1562Y525D01*
X1560Y525D01*
X1560Y531D01*
X1558Y531D01*
X1558Y549D01*
X1560Y549D01*
X1560Y555D01*
X1562Y555D01*
X1562Y559D01*
X1564Y559D01*
X1564Y563D01*
X1566Y563D01*
X1566Y567D01*
X1568Y567D01*
X1568Y569D01*
X1570Y569D01*
X1570Y591D01*
X1568Y591D01*
X1568Y593D01*
X1566Y593D01*
X1566Y595D01*
X1564Y595D01*
X1564Y599D01*
X1562Y599D01*
X1562Y603D01*
X1560Y603D01*
X1560Y611D01*
X1558Y611D01*
X1558Y627D01*
X1560Y627D01*
X1560Y635D01*
X1562Y635D01*
X1562Y639D01*
X1564Y639D01*
X1564Y643D01*
X1566Y643D01*
X1566Y645D01*
X1568Y645D01*
X1568Y647D01*
X1570Y647D01*
X1570Y669D01*
X1568Y669D01*
X1568Y671D01*
X1566Y671D01*
X1566Y675D01*
X1564Y675D01*
X1564Y679D01*
X1562Y679D01*
X1562Y683D01*
X1560Y683D01*
X1560Y689D01*
X1558Y689D01*
X1558Y707D01*
X1560Y707D01*
X1560Y713D01*
X1562Y713D01*
X1562Y717D01*
X1564Y717D01*
X1564Y721D01*
X1566Y721D01*
X1566Y725D01*
X1568Y725D01*
X1568Y727D01*
X1570Y727D01*
X1570Y749D01*
X1568Y749D01*
X1568Y751D01*
X1566Y751D01*
X1566Y753D01*
X1564Y753D01*
X1564Y755D01*
X1486Y755D01*
G37*
D02*
G36*
X316Y753D02*
X316Y751D01*
X314Y751D01*
X314Y747D01*
X312Y747D01*
X312Y745D01*
X310Y745D01*
X310Y741D01*
X308Y741D01*
X308Y739D01*
X306Y739D01*
X306Y737D01*
X302Y737D01*
X302Y735D01*
X300Y735D01*
X300Y713D01*
X302Y713D01*
X302Y711D01*
X304Y711D01*
X304Y709D01*
X308Y709D01*
X308Y705D01*
X310Y705D01*
X310Y703D01*
X312Y703D01*
X312Y701D01*
X314Y701D01*
X314Y697D01*
X316Y697D01*
X316Y693D01*
X318Y693D01*
X318Y687D01*
X320Y687D01*
X320Y675D01*
X322Y675D01*
X322Y673D01*
X320Y673D01*
X320Y661D01*
X318Y661D01*
X318Y655D01*
X316Y655D01*
X316Y651D01*
X314Y651D01*
X314Y647D01*
X312Y647D01*
X312Y645D01*
X310Y645D01*
X310Y641D01*
X308Y641D01*
X308Y639D01*
X306Y639D01*
X306Y637D01*
X302Y637D01*
X302Y635D01*
X300Y635D01*
X300Y633D01*
X298Y633D01*
X298Y631D01*
X294Y631D01*
X294Y629D01*
X288Y629D01*
X288Y627D01*
X282Y627D01*
X282Y625D01*
X352Y625D01*
X352Y753D01*
X316Y753D01*
G37*
D02*
G36*
X40Y627D02*
X40Y625D01*
X62Y625D01*
X62Y627D01*
X40Y627D01*
G37*
D02*
G36*
X40Y625D02*
X40Y623D01*
X352Y623D01*
X352Y625D01*
X40Y625D01*
G37*
D02*
G36*
X40Y625D02*
X40Y623D01*
X352Y623D01*
X352Y625D01*
X40Y625D01*
G37*
D02*
G36*
X40Y625D02*
X40Y623D01*
X352Y623D01*
X352Y625D01*
X40Y625D01*
G37*
D02*
G36*
X40Y623D02*
X40Y573D01*
X230Y573D01*
X230Y571D01*
X238Y571D01*
X238Y569D01*
X242Y569D01*
X242Y567D01*
X246Y567D01*
X246Y565D01*
X250Y565D01*
X250Y563D01*
X252Y563D01*
X252Y561D01*
X254Y561D01*
X254Y559D01*
X258Y559D01*
X258Y555D01*
X260Y555D01*
X260Y553D01*
X262Y553D01*
X262Y551D01*
X264Y551D01*
X264Y547D01*
X266Y547D01*
X266Y543D01*
X268Y543D01*
X268Y537D01*
X270Y537D01*
X270Y525D01*
X272Y525D01*
X272Y523D01*
X270Y523D01*
X270Y511D01*
X268Y511D01*
X268Y505D01*
X266Y505D01*
X266Y501D01*
X264Y501D01*
X264Y497D01*
X262Y497D01*
X262Y495D01*
X260Y495D01*
X260Y491D01*
X258Y491D01*
X258Y489D01*
X256Y489D01*
X256Y487D01*
X252Y487D01*
X252Y485D01*
X250Y485D01*
X250Y463D01*
X252Y463D01*
X252Y461D01*
X254Y461D01*
X254Y459D01*
X258Y459D01*
X258Y455D01*
X260Y455D01*
X260Y453D01*
X262Y453D01*
X262Y451D01*
X264Y451D01*
X264Y447D01*
X266Y447D01*
X266Y443D01*
X268Y443D01*
X268Y437D01*
X270Y437D01*
X270Y425D01*
X272Y425D01*
X272Y423D01*
X270Y423D01*
X270Y411D01*
X268Y411D01*
X268Y405D01*
X266Y405D01*
X266Y401D01*
X264Y401D01*
X264Y397D01*
X262Y397D01*
X262Y395D01*
X260Y395D01*
X260Y391D01*
X258Y391D01*
X258Y389D01*
X256Y389D01*
X256Y387D01*
X252Y387D01*
X252Y385D01*
X250Y385D01*
X250Y383D01*
X248Y383D01*
X248Y381D01*
X244Y381D01*
X244Y379D01*
X238Y379D01*
X238Y377D01*
X232Y377D01*
X232Y375D01*
X916Y375D01*
X916Y377D01*
X914Y377D01*
X914Y381D01*
X902Y381D01*
X902Y383D01*
X884Y383D01*
X884Y385D01*
X864Y385D01*
X864Y387D01*
X846Y387D01*
X846Y389D01*
X826Y389D01*
X826Y391D01*
X808Y391D01*
X808Y393D01*
X788Y393D01*
X788Y395D01*
X770Y395D01*
X770Y397D01*
X750Y397D01*
X750Y399D01*
X732Y399D01*
X732Y401D01*
X368Y401D01*
X368Y403D01*
X362Y403D01*
X362Y405D01*
X360Y405D01*
X360Y407D01*
X358Y407D01*
X358Y409D01*
X356Y409D01*
X356Y411D01*
X354Y411D01*
X354Y415D01*
X352Y415D01*
X352Y623D01*
X40Y623D01*
G37*
D02*
G36*
X544Y617D02*
X544Y615D01*
X1000Y615D01*
X1000Y617D01*
X544Y617D01*
G37*
D02*
G36*
X544Y617D02*
X544Y615D01*
X1000Y615D01*
X1000Y617D01*
X544Y617D01*
G37*
D02*
G36*
X544Y615D02*
X544Y597D01*
X1000Y597D01*
X1000Y615D01*
X544Y615D01*
G37*
D02*
G36*
X40Y573D02*
X40Y375D01*
X212Y375D01*
X212Y377D01*
X206Y377D01*
X206Y379D01*
X200Y379D01*
X200Y381D01*
X198Y381D01*
X198Y383D01*
X194Y383D01*
X194Y385D01*
X192Y385D01*
X192Y387D01*
X188Y387D01*
X188Y389D01*
X186Y389D01*
X186Y393D01*
X184Y393D01*
X184Y395D01*
X182Y395D01*
X182Y397D01*
X180Y397D01*
X180Y401D01*
X178Y401D01*
X178Y405D01*
X176Y405D01*
X176Y411D01*
X174Y411D01*
X174Y437D01*
X176Y437D01*
X176Y443D01*
X178Y443D01*
X178Y447D01*
X180Y447D01*
X180Y451D01*
X182Y451D01*
X182Y453D01*
X184Y453D01*
X184Y455D01*
X186Y455D01*
X186Y457D01*
X188Y457D01*
X188Y459D01*
X190Y459D01*
X190Y461D01*
X192Y461D01*
X192Y463D01*
X194Y463D01*
X194Y485D01*
X192Y485D01*
X192Y487D01*
X188Y487D01*
X188Y489D01*
X186Y489D01*
X186Y493D01*
X184Y493D01*
X184Y495D01*
X182Y495D01*
X182Y497D01*
X180Y497D01*
X180Y501D01*
X178Y501D01*
X178Y505D01*
X176Y505D01*
X176Y511D01*
X174Y511D01*
X174Y537D01*
X176Y537D01*
X176Y543D01*
X178Y543D01*
X178Y547D01*
X180Y547D01*
X180Y551D01*
X182Y551D01*
X182Y553D01*
X184Y553D01*
X184Y555D01*
X186Y555D01*
X186Y557D01*
X188Y557D01*
X188Y559D01*
X190Y559D01*
X190Y561D01*
X192Y561D01*
X192Y563D01*
X194Y563D01*
X194Y565D01*
X198Y565D01*
X198Y567D01*
X202Y567D01*
X202Y569D01*
X206Y569D01*
X206Y571D01*
X214Y571D01*
X214Y573D01*
X40Y573D01*
G37*
D02*
G36*
X1094Y569D02*
X1094Y543D01*
X1092Y543D01*
X1092Y515D01*
X1090Y515D01*
X1090Y511D01*
X1088Y511D01*
X1088Y509D01*
X1086Y509D01*
X1086Y507D01*
X1084Y507D01*
X1084Y505D01*
X1082Y505D01*
X1082Y503D01*
X1076Y503D01*
X1076Y501D01*
X1234Y501D01*
X1234Y503D01*
X1232Y503D01*
X1232Y505D01*
X1230Y505D01*
X1230Y511D01*
X1228Y511D01*
X1228Y535D01*
X1230Y535D01*
X1230Y541D01*
X1232Y541D01*
X1232Y545D01*
X1234Y545D01*
X1234Y549D01*
X1236Y549D01*
X1236Y551D01*
X1238Y551D01*
X1238Y555D01*
X1240Y555D01*
X1240Y557D01*
X1244Y557D01*
X1244Y559D01*
X1246Y559D01*
X1246Y561D01*
X1248Y561D01*
X1248Y563D01*
X1252Y563D01*
X1252Y565D01*
X1258Y565D01*
X1258Y567D01*
X1264Y567D01*
X1264Y569D01*
X1094Y569D01*
G37*
D02*
G36*
X1280Y569D02*
X1280Y567D01*
X1288Y567D01*
X1288Y565D01*
X1292Y565D01*
X1292Y563D01*
X1296Y563D01*
X1296Y561D01*
X1298Y561D01*
X1298Y559D01*
X1300Y559D01*
X1300Y557D01*
X1304Y557D01*
X1304Y555D01*
X1306Y555D01*
X1306Y551D01*
X1308Y551D01*
X1308Y549D01*
X1310Y549D01*
X1310Y545D01*
X1312Y545D01*
X1312Y543D01*
X1332Y543D01*
X1332Y545D01*
X1334Y545D01*
X1334Y549D01*
X1336Y549D01*
X1336Y551D01*
X1338Y551D01*
X1338Y553D01*
X1340Y553D01*
X1340Y557D01*
X1344Y557D01*
X1344Y559D01*
X1346Y559D01*
X1346Y561D01*
X1348Y561D01*
X1348Y563D01*
X1352Y563D01*
X1352Y565D01*
X1358Y565D01*
X1358Y567D01*
X1364Y567D01*
X1364Y569D01*
X1280Y569D01*
G37*
D02*
G36*
X1312Y505D02*
X1312Y501D01*
X1310Y501D01*
X1310Y499D01*
X1308Y499D01*
X1308Y495D01*
X1306Y495D01*
X1306Y493D01*
X1304Y493D01*
X1304Y491D01*
X1302Y491D01*
X1302Y489D01*
X1298Y489D01*
X1298Y487D01*
X1296Y487D01*
X1296Y485D01*
X1292Y485D01*
X1292Y483D01*
X1288Y483D01*
X1288Y481D01*
X1282Y481D01*
X1282Y479D01*
X1362Y479D01*
X1362Y481D01*
X1356Y481D01*
X1356Y483D01*
X1352Y483D01*
X1352Y485D01*
X1348Y485D01*
X1348Y487D01*
X1346Y487D01*
X1346Y489D01*
X1342Y489D01*
X1342Y491D01*
X1340Y491D01*
X1340Y493D01*
X1338Y493D01*
X1338Y497D01*
X1336Y497D01*
X1336Y499D01*
X1334Y499D01*
X1334Y503D01*
X1332Y503D01*
X1332Y505D01*
X1312Y505D01*
G37*
D02*
G36*
X396Y501D02*
X396Y499D01*
X1234Y499D01*
X1234Y501D01*
X396Y501D01*
G37*
D02*
G36*
X396Y501D02*
X396Y499D01*
X1234Y499D01*
X1234Y501D01*
X396Y501D01*
G37*
D02*
G36*
X396Y499D02*
X396Y479D01*
X1262Y479D01*
X1262Y481D01*
X1256Y481D01*
X1256Y483D01*
X1252Y483D01*
X1252Y485D01*
X1248Y485D01*
X1248Y487D01*
X1246Y487D01*
X1246Y489D01*
X1242Y489D01*
X1242Y491D01*
X1240Y491D01*
X1240Y493D01*
X1238Y493D01*
X1238Y497D01*
X1236Y497D01*
X1236Y499D01*
X396Y499D01*
G37*
D02*
G36*
X396Y479D02*
X396Y477D01*
X1562Y477D01*
X1562Y479D01*
X396Y479D01*
G37*
D02*
G36*
X396Y479D02*
X396Y477D01*
X1562Y477D01*
X1562Y479D01*
X396Y479D01*
G37*
D02*
G36*
X396Y479D02*
X396Y477D01*
X1562Y477D01*
X1562Y479D01*
X396Y479D01*
G37*
D02*
G36*
X396Y477D02*
X396Y459D01*
X1490Y459D01*
X1490Y457D01*
X1494Y457D01*
X1494Y455D01*
X1498Y455D01*
X1498Y453D01*
X1500Y453D01*
X1500Y451D01*
X1502Y451D01*
X1502Y449D01*
X1504Y449D01*
X1504Y447D01*
X1506Y447D01*
X1506Y443D01*
X1508Y443D01*
X1508Y439D01*
X1510Y439D01*
X1510Y421D01*
X1508Y421D01*
X1508Y415D01*
X1506Y415D01*
X1506Y413D01*
X1504Y413D01*
X1504Y409D01*
X1502Y409D01*
X1502Y407D01*
X1498Y407D01*
X1498Y405D01*
X1496Y405D01*
X1496Y403D01*
X1492Y403D01*
X1492Y401D01*
X1564Y401D01*
X1564Y405D01*
X1566Y405D01*
X1566Y409D01*
X1568Y409D01*
X1568Y411D01*
X1570Y411D01*
X1570Y433D01*
X1568Y433D01*
X1568Y435D01*
X1566Y435D01*
X1566Y437D01*
X1564Y437D01*
X1564Y441D01*
X1562Y441D01*
X1562Y445D01*
X1560Y445D01*
X1560Y453D01*
X1558Y453D01*
X1558Y469D01*
X1560Y469D01*
X1560Y477D01*
X396Y477D01*
G37*
D02*
G36*
X396Y459D02*
X396Y447D01*
X1068Y447D01*
X1068Y445D01*
X1076Y445D01*
X1076Y443D01*
X1080Y443D01*
X1080Y441D01*
X1084Y441D01*
X1084Y439D01*
X1086Y439D01*
X1086Y437D01*
X1090Y437D01*
X1090Y435D01*
X1092Y435D01*
X1092Y433D01*
X1094Y433D01*
X1094Y431D01*
X1096Y431D01*
X1096Y429D01*
X1098Y429D01*
X1098Y425D01*
X1100Y425D01*
X1100Y423D01*
X1102Y423D01*
X1102Y419D01*
X1104Y419D01*
X1104Y413D01*
X1106Y413D01*
X1106Y405D01*
X1108Y405D01*
X1108Y401D01*
X1472Y401D01*
X1472Y403D01*
X1466Y403D01*
X1466Y405D01*
X1464Y405D01*
X1464Y407D01*
X1462Y407D01*
X1462Y409D01*
X1460Y409D01*
X1460Y411D01*
X1458Y411D01*
X1458Y413D01*
X1456Y413D01*
X1456Y415D01*
X1454Y415D01*
X1454Y421D01*
X1452Y421D01*
X1452Y439D01*
X1454Y439D01*
X1454Y443D01*
X1456Y443D01*
X1456Y447D01*
X1458Y447D01*
X1458Y449D01*
X1460Y449D01*
X1460Y451D01*
X1462Y451D01*
X1462Y453D01*
X1464Y453D01*
X1464Y455D01*
X1468Y455D01*
X1468Y457D01*
X1472Y457D01*
X1472Y459D01*
X396Y459D01*
G37*
D02*
G36*
X396Y447D02*
X396Y445D01*
X734Y445D01*
X734Y443D01*
X752Y443D01*
X752Y441D01*
X772Y441D01*
X772Y439D01*
X790Y439D01*
X790Y437D01*
X810Y437D01*
X810Y435D01*
X828Y435D01*
X828Y433D01*
X848Y433D01*
X848Y431D01*
X866Y431D01*
X866Y429D01*
X886Y429D01*
X886Y427D01*
X920Y427D01*
X920Y429D01*
X922Y429D01*
X922Y431D01*
X924Y431D01*
X924Y433D01*
X926Y433D01*
X926Y435D01*
X928Y435D01*
X928Y437D01*
X930Y437D01*
X930Y439D01*
X934Y439D01*
X934Y441D01*
X938Y441D01*
X938Y443D01*
X942Y443D01*
X942Y445D01*
X948Y445D01*
X948Y447D01*
X396Y447D01*
G37*
D02*
G36*
X968Y447D02*
X968Y445D01*
X976Y445D01*
X976Y443D01*
X980Y443D01*
X980Y441D01*
X984Y441D01*
X984Y439D01*
X986Y439D01*
X986Y437D01*
X990Y437D01*
X990Y435D01*
X992Y435D01*
X992Y433D01*
X994Y433D01*
X994Y431D01*
X996Y431D01*
X996Y429D01*
X998Y429D01*
X998Y425D01*
X1018Y425D01*
X1018Y427D01*
X1020Y427D01*
X1020Y429D01*
X1022Y429D01*
X1022Y431D01*
X1024Y431D01*
X1024Y433D01*
X1026Y433D01*
X1026Y435D01*
X1028Y435D01*
X1028Y437D01*
X1030Y437D01*
X1030Y439D01*
X1034Y439D01*
X1034Y441D01*
X1038Y441D01*
X1038Y443D01*
X1042Y443D01*
X1042Y445D01*
X1048Y445D01*
X1048Y447D01*
X968Y447D01*
G37*
D02*
G36*
X1108Y401D02*
X1108Y399D01*
X1562Y399D01*
X1562Y401D01*
X1108Y401D01*
G37*
D02*
G36*
X1108Y401D02*
X1108Y399D01*
X1562Y399D01*
X1562Y401D01*
X1108Y401D01*
G37*
D02*
G36*
X1108Y399D02*
X1108Y391D01*
X1106Y391D01*
X1106Y383D01*
X1104Y383D01*
X1104Y377D01*
X1102Y377D01*
X1102Y375D01*
X1100Y375D01*
X1100Y371D01*
X1098Y371D01*
X1098Y369D01*
X1096Y369D01*
X1096Y365D01*
X1094Y365D01*
X1094Y363D01*
X1092Y363D01*
X1092Y361D01*
X1088Y361D01*
X1088Y359D01*
X1086Y359D01*
X1086Y357D01*
X1084Y357D01*
X1084Y355D01*
X1080Y355D01*
X1080Y353D01*
X1074Y353D01*
X1074Y351D01*
X1066Y351D01*
X1066Y349D01*
X1570Y349D01*
X1570Y353D01*
X1568Y353D01*
X1568Y355D01*
X1566Y355D01*
X1566Y359D01*
X1564Y359D01*
X1564Y363D01*
X1562Y363D01*
X1562Y367D01*
X1560Y367D01*
X1560Y373D01*
X1558Y373D01*
X1558Y391D01*
X1560Y391D01*
X1560Y397D01*
X1562Y397D01*
X1562Y399D01*
X1108Y399D01*
G37*
D02*
G36*
X40Y375D02*
X40Y373D01*
X916Y373D01*
X916Y375D01*
X40Y375D01*
G37*
D02*
G36*
X40Y375D02*
X40Y373D01*
X916Y373D01*
X916Y375D01*
X40Y375D01*
G37*
D02*
G36*
X40Y373D02*
X40Y349D01*
X950Y349D01*
X950Y351D01*
X944Y351D01*
X944Y353D01*
X938Y353D01*
X938Y355D01*
X934Y355D01*
X934Y357D01*
X930Y357D01*
X930Y359D01*
X928Y359D01*
X928Y361D01*
X926Y361D01*
X926Y363D01*
X924Y363D01*
X924Y365D01*
X922Y365D01*
X922Y367D01*
X920Y367D01*
X920Y369D01*
X918Y369D01*
X918Y373D01*
X40Y373D01*
G37*
D02*
G36*
X998Y371D02*
X998Y369D01*
X996Y369D01*
X996Y365D01*
X994Y365D01*
X994Y363D01*
X992Y363D01*
X992Y361D01*
X988Y361D01*
X988Y359D01*
X986Y359D01*
X986Y357D01*
X984Y357D01*
X984Y355D01*
X980Y355D01*
X980Y353D01*
X974Y353D01*
X974Y351D01*
X966Y351D01*
X966Y349D01*
X1050Y349D01*
X1050Y351D01*
X1044Y351D01*
X1044Y353D01*
X1038Y353D01*
X1038Y355D01*
X1034Y355D01*
X1034Y357D01*
X1030Y357D01*
X1030Y359D01*
X1028Y359D01*
X1028Y361D01*
X1026Y361D01*
X1026Y363D01*
X1024Y363D01*
X1024Y365D01*
X1022Y365D01*
X1022Y367D01*
X1020Y367D01*
X1020Y369D01*
X1018Y369D01*
X1018Y371D01*
X998Y371D01*
G37*
D02*
G36*
X40Y349D02*
X40Y347D01*
X1570Y347D01*
X1570Y349D01*
X40Y349D01*
G37*
D02*
G36*
X40Y349D02*
X40Y347D01*
X1570Y347D01*
X1570Y349D01*
X40Y349D01*
G37*
D02*
G36*
X40Y349D02*
X40Y347D01*
X1570Y347D01*
X1570Y349D01*
X40Y349D01*
G37*
D02*
G36*
X40Y347D02*
X40Y179D01*
X1598Y179D01*
X1598Y181D01*
X1590Y181D01*
X1590Y183D01*
X1584Y183D01*
X1584Y185D01*
X1580Y185D01*
X1580Y187D01*
X1576Y187D01*
X1576Y189D01*
X1574Y189D01*
X1574Y191D01*
X1572Y191D01*
X1572Y193D01*
X1570Y193D01*
X1570Y195D01*
X1568Y195D01*
X1568Y197D01*
X1566Y197D01*
X1566Y201D01*
X1564Y201D01*
X1564Y205D01*
X1562Y205D01*
X1562Y209D01*
X1560Y209D01*
X1560Y215D01*
X1558Y215D01*
X1558Y233D01*
X1560Y233D01*
X1560Y239D01*
X1562Y239D01*
X1562Y243D01*
X1564Y243D01*
X1564Y247D01*
X1566Y247D01*
X1566Y251D01*
X1568Y251D01*
X1568Y253D01*
X1570Y253D01*
X1570Y275D01*
X1568Y275D01*
X1568Y277D01*
X1566Y277D01*
X1566Y279D01*
X1564Y279D01*
X1564Y283D01*
X1562Y283D01*
X1562Y287D01*
X1560Y287D01*
X1560Y295D01*
X1558Y295D01*
X1558Y311D01*
X1560Y311D01*
X1560Y319D01*
X1562Y319D01*
X1562Y323D01*
X1564Y323D01*
X1564Y327D01*
X1566Y327D01*
X1566Y329D01*
X1568Y329D01*
X1568Y331D01*
X1570Y331D01*
X1570Y347D01*
X40Y347D01*
G37*
D02*
G36*
X2498Y189D02*
X2498Y187D01*
X2494Y187D01*
X2494Y185D01*
X2490Y185D01*
X2490Y183D01*
X2484Y183D01*
X2484Y181D01*
X2476Y181D01*
X2476Y179D01*
X2518Y179D01*
X2518Y189D01*
X2498Y189D01*
G37*
D02*
G36*
X40Y179D02*
X40Y177D01*
X2518Y177D01*
X2518Y179D01*
X40Y179D01*
G37*
D02*
G36*
X40Y179D02*
X40Y177D01*
X2518Y177D01*
X2518Y179D01*
X40Y179D01*
G37*
D02*
G36*
X40Y179D02*
X40Y177D01*
X2518Y177D01*
X2518Y179D01*
X40Y179D01*
G37*
D02*
G36*
X40Y177D02*
X40Y171D01*
X1064Y171D01*
X1064Y169D01*
X1072Y169D01*
X1072Y167D01*
X1078Y167D01*
X1078Y165D01*
X1082Y165D01*
X1082Y163D01*
X1086Y163D01*
X1086Y161D01*
X1088Y161D01*
X1088Y159D01*
X1092Y159D01*
X1092Y157D01*
X1094Y157D01*
X1094Y155D01*
X1096Y155D01*
X1096Y151D01*
X1098Y151D01*
X1098Y149D01*
X1100Y149D01*
X1100Y145D01*
X1102Y145D01*
X1102Y143D01*
X1104Y143D01*
X1104Y137D01*
X1106Y137D01*
X1106Y129D01*
X1108Y129D01*
X1108Y113D01*
X1106Y113D01*
X1106Y105D01*
X1104Y105D01*
X1104Y103D01*
X2230Y103D01*
X2230Y101D01*
X2236Y101D01*
X2236Y99D01*
X2240Y99D01*
X2240Y97D01*
X2242Y97D01*
X2242Y95D01*
X2244Y95D01*
X2244Y93D01*
X2246Y93D01*
X2246Y89D01*
X2248Y89D01*
X2248Y87D01*
X2250Y87D01*
X2250Y81D01*
X2252Y81D01*
X2252Y67D01*
X2250Y67D01*
X2250Y61D01*
X2248Y61D01*
X2248Y41D01*
X2518Y41D01*
X2518Y177D01*
X40Y177D01*
G37*
D02*
G36*
X40Y171D02*
X40Y73D01*
X948Y73D01*
X948Y75D01*
X940Y75D01*
X940Y77D01*
X936Y77D01*
X936Y79D01*
X932Y79D01*
X932Y81D01*
X930Y81D01*
X930Y83D01*
X928Y83D01*
X928Y85D01*
X926Y85D01*
X926Y87D01*
X924Y87D01*
X924Y89D01*
X922Y89D01*
X922Y91D01*
X920Y91D01*
X920Y93D01*
X918Y93D01*
X918Y97D01*
X916Y97D01*
X916Y99D01*
X914Y99D01*
X914Y105D01*
X912Y105D01*
X912Y111D01*
X910Y111D01*
X910Y131D01*
X912Y131D01*
X912Y137D01*
X914Y137D01*
X914Y143D01*
X916Y143D01*
X916Y147D01*
X918Y147D01*
X918Y149D01*
X920Y149D01*
X920Y151D01*
X922Y151D01*
X922Y155D01*
X924Y155D01*
X924Y157D01*
X926Y157D01*
X926Y159D01*
X930Y159D01*
X930Y161D01*
X932Y161D01*
X932Y163D01*
X936Y163D01*
X936Y165D01*
X938Y165D01*
X938Y167D01*
X944Y167D01*
X944Y169D01*
X954Y169D01*
X954Y171D01*
X40Y171D01*
G37*
D02*
G36*
X964Y171D02*
X964Y169D01*
X972Y169D01*
X972Y167D01*
X978Y167D01*
X978Y165D01*
X982Y165D01*
X982Y163D01*
X986Y163D01*
X986Y161D01*
X988Y161D01*
X988Y159D01*
X992Y159D01*
X992Y157D01*
X994Y157D01*
X994Y155D01*
X996Y155D01*
X996Y151D01*
X998Y151D01*
X998Y149D01*
X1020Y149D01*
X1020Y151D01*
X1022Y151D01*
X1022Y155D01*
X1024Y155D01*
X1024Y157D01*
X1026Y157D01*
X1026Y159D01*
X1030Y159D01*
X1030Y161D01*
X1032Y161D01*
X1032Y163D01*
X1036Y163D01*
X1036Y165D01*
X1038Y165D01*
X1038Y167D01*
X1044Y167D01*
X1044Y169D01*
X1054Y169D01*
X1054Y171D01*
X964Y171D01*
G37*
D02*
G36*
X1104Y103D02*
X1104Y101D01*
X1102Y101D01*
X1102Y97D01*
X1100Y97D01*
X1100Y93D01*
X1098Y93D01*
X1098Y91D01*
X1096Y91D01*
X1096Y89D01*
X1094Y89D01*
X1094Y87D01*
X1092Y87D01*
X1092Y85D01*
X1090Y85D01*
X1090Y83D01*
X1088Y83D01*
X1088Y81D01*
X1084Y81D01*
X1084Y79D01*
X1082Y79D01*
X1082Y77D01*
X1078Y77D01*
X1078Y75D01*
X1070Y75D01*
X1070Y73D01*
X2192Y73D01*
X2192Y79D01*
X2194Y79D01*
X2194Y85D01*
X2196Y85D01*
X2196Y89D01*
X2198Y89D01*
X2198Y93D01*
X2200Y93D01*
X2200Y95D01*
X2202Y95D01*
X2202Y97D01*
X2206Y97D01*
X2206Y99D01*
X2208Y99D01*
X2208Y101D01*
X2214Y101D01*
X2214Y103D01*
X1104Y103D01*
G37*
D02*
G36*
X998Y93D02*
X998Y91D01*
X996Y91D01*
X996Y89D01*
X994Y89D01*
X994Y87D01*
X992Y87D01*
X992Y85D01*
X990Y85D01*
X990Y83D01*
X988Y83D01*
X988Y81D01*
X984Y81D01*
X984Y79D01*
X982Y79D01*
X982Y77D01*
X978Y77D01*
X978Y75D01*
X970Y75D01*
X970Y73D01*
X1048Y73D01*
X1048Y75D01*
X1040Y75D01*
X1040Y77D01*
X1036Y77D01*
X1036Y79D01*
X1032Y79D01*
X1032Y81D01*
X1030Y81D01*
X1030Y83D01*
X1028Y83D01*
X1028Y85D01*
X1026Y85D01*
X1026Y87D01*
X1024Y87D01*
X1024Y89D01*
X1022Y89D01*
X1022Y91D01*
X1020Y91D01*
X1020Y93D01*
X998Y93D01*
G37*
D02*
G36*
X40Y73D02*
X40Y71D01*
X2192Y71D01*
X2192Y73D01*
X40Y73D01*
G37*
D02*
G36*
X40Y73D02*
X40Y71D01*
X2192Y71D01*
X2192Y73D01*
X40Y73D01*
G37*
D02*
G36*
X40Y73D02*
X40Y71D01*
X2192Y71D01*
X2192Y73D01*
X40Y73D01*
G37*
D02*
G36*
X40Y71D02*
X40Y41D01*
X2196Y41D01*
X2196Y61D01*
X2194Y61D01*
X2194Y69D01*
X2192Y69D01*
X2192Y71D01*
X40Y71D01*
G37*
D02*
G36*
X2457Y1109D02*
X2482Y1109D01*
X2482Y1083D01*
X2457Y1083D01*
X2457Y1109D01*
G37*
D02*
G36*
X2457Y1069D02*
X2482Y1069D01*
X2482Y1045D01*
X2457Y1045D01*
X2457Y1069D01*
G37*
D02*
G36*
X2476Y1088D02*
X2502Y1088D01*
X2502Y1063D01*
X2476Y1063D01*
X2476Y1088D01*
G37*
D02*
G36*
X774Y1084D02*
X800Y1084D01*
X800Y1043D01*
X774Y1043D01*
X774Y1084D01*
G37*
D02*
G36*
X838Y1084D02*
X868Y1084D01*
X868Y1043D01*
X838Y1043D01*
X838Y1084D01*
G37*
D02*
G36*
X1580Y213D02*
X1619Y213D01*
X1619Y179D01*
X1580Y179D01*
X1580Y213D01*
G37*
D02*
G36*
X1554Y245D02*
X1586Y245D01*
X1586Y206D01*
X1554Y206D01*
X1554Y245D01*
G37*
D02*
G36*
X1612Y245D02*
X1646Y245D01*
X1646Y206D01*
X1612Y206D01*
X1612Y245D01*
G37*
D02*
G36*
X935Y175D02*
X980Y175D01*
X980Y143D01*
X935Y143D01*
X935Y175D01*
G37*
D02*
G36*
X935Y105D02*
X980Y105D01*
X980Y73D01*
X935Y73D01*
X935Y105D01*
G37*
D02*
G36*
X906Y146D02*
X938Y146D01*
X938Y101D01*
X906Y101D01*
X906Y146D01*
G37*
D02*
G36*
X1035Y381D02*
X1080Y381D01*
X1080Y349D01*
X1035Y349D01*
X1035Y381D01*
G37*
D02*
G36*
X1076Y422D02*
X1108Y422D01*
X1108Y377D01*
X1076Y377D01*
X1076Y422D01*
G37*
D02*
G36*
X170Y548D02*
X202Y548D01*
X202Y503D01*
X170Y503D01*
X170Y548D01*
G37*
D02*
G36*
X240Y548D02*
X272Y548D01*
X272Y503D01*
X240Y503D01*
X240Y548D01*
G37*
D02*
G36*
X24Y798D02*
X52Y798D01*
X52Y753D01*
X24Y753D01*
X24Y798D01*
G37*
D02*
G36*
X90Y798D02*
X122Y798D01*
X122Y753D01*
X90Y753D01*
X90Y798D01*
G37*
D02*
G36*
X49Y657D02*
X94Y657D01*
X94Y625D01*
X49Y625D01*
X49Y657D01*
G37*
D02*
G36*
X24Y698D02*
X52Y698D01*
X52Y653D01*
X24Y653D01*
X24Y698D01*
G37*
D02*
G36*
X90Y698D02*
X122Y698D01*
X122Y653D01*
X90Y653D01*
X90Y698D01*
G37*
D02*
G36*
X1349Y573D02*
X1390Y573D01*
X1390Y541D01*
X1349Y541D01*
X1349Y573D01*
G37*
D02*
G36*
X1349Y511D02*
X1390Y511D01*
X1390Y479D01*
X1349Y479D01*
X1349Y511D01*
G37*
D02*
G36*
X1384Y546D02*
X1418Y546D01*
X1418Y505D01*
X1384Y505D01*
X1384Y546D01*
G37*
D02*
G36*
X1599Y1223D02*
X1640Y1223D01*
X1640Y1191D01*
X1599Y1191D01*
X1599Y1223D01*
G37*
D02*
G36*
X1599Y1161D02*
X1640Y1161D01*
X1640Y1129D01*
X1599Y1129D01*
X1599Y1161D01*
G37*
D02*
G36*
X1634Y1196D02*
X1668Y1196D01*
X1668Y1155D01*
X1634Y1155D01*
X1634Y1196D01*
G37*
D02*
G36*
X1467Y463D02*
X1492Y463D01*
X1492Y439D01*
X1467Y439D01*
X1467Y463D01*
G37*
D02*
G36*
X1467Y425D02*
X1492Y425D01*
X1492Y401D01*
X1467Y401D01*
X1467Y425D01*
G37*
D02*
G36*
X1448Y444D02*
X1472Y444D01*
X1472Y419D01*
X1448Y419D01*
X1448Y444D01*
G37*
D02*
G36*
X1486Y444D02*
X1510Y444D01*
X1510Y419D01*
X1486Y419D01*
X1486Y444D01*
G37*
D02*
G36*
X2207Y69D02*
X2232Y69D01*
X2232Y45D01*
X2207Y45D01*
X2207Y69D01*
G37*
D02*
G36*
X2188Y88D02*
X2212Y88D01*
X2212Y63D01*
X2188Y63D01*
X2188Y88D01*
G37*
D02*
G36*
X2226Y88D02*
X2252Y88D01*
X2252Y63D01*
X2226Y63D01*
X2226Y88D01*
G37*
D02*
G04 End of Copper0*
M02*