G04 MADE WITH FRITZING*
G04 WWW.FRITZING.ORG*
G04 DOUBLE SIDED*
G04 HOLES PLATED*
G04 CONTOUR ON CENTER OF CONTOUR VECTOR*
%ASAXBY*%
%FSLAX23Y23*%
%MOIN*%
%OFA0B0*%
%SFA1.0B1.0*%
%ADD10C,0.049370*%
%ADD11C,0.080000*%
%ADD12C,0.088000*%
%ADD13C,0.078000*%
%ADD14R,0.041496X0.045433*%
%ADD15R,0.065118X0.069055*%
%ADD16R,0.058000X0.098000*%
%ADD17R,0.151732X0.096614*%
%ADD18R,0.078000X0.078000*%
%LNMASK1*%
G90*
G70*
G54D10*
X1023Y1024D03*
X1973Y1273D03*
X2472Y1074D03*
X2222Y73D03*
G54D11*
X1622Y1173D03*
X1522Y1173D03*
X1372Y523D03*
X1272Y523D03*
G54D12*
X72Y1173D03*
X72Y1273D03*
X272Y1173D03*
X272Y1273D03*
X72Y1073D03*
X72Y973D03*
G54D10*
X522Y1073D03*
G54D12*
X272Y973D03*
X72Y873D03*
X72Y673D03*
X72Y773D03*
X272Y673D03*
X272Y773D03*
X272Y873D03*
G54D10*
X1481Y429D03*
G54D12*
X222Y523D03*
X222Y423D03*
X1059Y398D03*
X959Y398D03*
X1059Y121D03*
X959Y121D03*
G54D13*
X1602Y934D03*
X1602Y855D03*
X1602Y776D03*
X1602Y697D03*
X1602Y618D03*
X1602Y539D03*
X1602Y460D03*
X1602Y381D03*
X1602Y302D03*
X1602Y223D03*
X2472Y223D03*
X2472Y302D03*
X2472Y381D03*
X2472Y460D03*
X2472Y539D03*
X2472Y618D03*
X2472Y697D03*
X2472Y776D03*
X2472Y855D03*
X2472Y934D03*
G54D11*
X822Y1261D03*
X822Y1161D03*
X822Y1061D03*
X822Y961D03*
X822Y861D03*
X822Y761D03*
X822Y661D03*
G54D14*
X2385Y1191D03*
X2459Y1191D03*
X2422Y1273D03*
G54D15*
X2272Y73D03*
X2353Y73D03*
G54D16*
X1463Y367D03*
X1372Y367D03*
X1281Y367D03*
G54D17*
X1372Y123D03*
G54D18*
X1602Y934D03*
G04 End of Mask1*
M02*