; NON-PLATED HOLES START AT T1
; THROUGH (PLATED) HOLES START AT T100
M48
INCH
T100C0.015748
T101C0.038000
T102C0.035000
T103C0.040000
%
T100
X018099Y009596
X013105Y003602
X020094Y011098
X009599Y012096
X014599Y009596
X017018Y003161
X015099Y011096
X002599Y001596
X007099Y008096
X017099Y002096
X012099Y012096
X007599Y010096
X021099Y004596
X014094Y011165
X007099Y012096
X014095Y003100
X007099Y004596
X002599Y000596
X017749Y003602
T101
X005599Y004596
X002599Y006596
X005599Y001596
X000599Y006596
X005599Y002596
X000599Y010596
X000599Y012596
X000599Y009596
X000599Y007596
X002599Y007596
X005599Y003596
X000599Y011596
X002599Y008596
X002599Y012596
X000599Y008596
X002599Y011596
X002599Y009596
T102
X013599Y002096
X009599Y002096
T103
X014099Y012596
X025099Y007096
X020099Y012596
X016099Y006596
X013099Y006596
X025099Y012096
X024099Y006596
X019099Y006596
X021099Y006596
X023099Y006596
X020649Y007746
X019099Y012596
X021099Y012596
X014099Y006596
X022099Y006596
X017099Y006596
X020099Y006596
X019649Y007746
X024099Y012596
X025099Y010096
X022099Y012596
X013099Y012596
X025099Y009096
X018099Y006596
X025099Y011096
X017099Y012596
X025099Y008096
X023099Y012596
X015099Y006596
X016099Y012596
X018099Y012596
X015099Y012596
T00
M30
