G04 MADE WITH FRITZING*
G04 WWW.FRITZING.ORG*
G04 DOUBLE SIDED*
G04 HOLES PLATED*
G04 CONTOUR ON CENTER OF CONTOUR VECTOR*
%ASAXBY*%
%FSLAX23Y23*%
%MOIN*%
%OFA0B0*%
%SFA1.0B1.0*%
%ADD10C,0.049370*%
%ADD11C,0.085000*%
%ADD12C,0.088000*%
%ADD13C,0.084000*%
%ADD14R,0.045433X0.041496*%
%ADD15R,0.065118X0.069055*%
%ADD16R,0.063150X0.069055*%
%ADD17R,0.061181X0.049370*%
%ADD18R,0.069055X0.039528*%
%ADD19R,0.001000X0.001000*%
%LNMASK1*%
G90*
G70*
G54D10*
X960Y1210D03*
X2009Y1110D03*
X1210Y1210D03*
X710Y810D03*
X760Y1010D03*
X710Y1210D03*
X1409Y1117D03*
X1510Y1110D03*
X1810Y960D03*
X2110Y460D03*
X710Y460D03*
X1775Y360D03*
X1311Y360D03*
X1702Y316D03*
X1410Y310D03*
X1710Y210D03*
G54D11*
X1360Y210D03*
X960Y210D03*
G54D12*
X260Y1260D03*
X260Y1160D03*
X60Y1160D03*
X60Y1060D03*
X260Y960D03*
X60Y960D03*
X260Y860D03*
X60Y860D03*
X260Y760D03*
X60Y760D03*
X60Y660D03*
X60Y1260D03*
X260Y660D03*
G54D10*
X260Y60D03*
X260Y160D03*
G54D12*
X560Y260D03*
X560Y160D03*
X560Y460D03*
X560Y360D03*
G54D13*
X2510Y710D03*
X2510Y810D03*
X2510Y910D03*
X2510Y1010D03*
X2510Y1110D03*
X2510Y1210D03*
X2410Y660D03*
X2310Y660D03*
X2210Y660D03*
X2110Y660D03*
X2010Y660D03*
X2065Y775D03*
X1965Y775D03*
X1910Y660D03*
X1810Y660D03*
X1710Y660D03*
X1610Y660D03*
X1510Y660D03*
X1410Y660D03*
X1310Y660D03*
X1310Y1260D03*
X1410Y1260D03*
X1510Y1260D03*
X1610Y1260D03*
X1710Y1260D03*
X1810Y1260D03*
X1910Y1260D03*
X2010Y1260D03*
X2110Y1260D03*
X2210Y1260D03*
X2310Y1260D03*
X2410Y1260D03*
G54D10*
X1460Y960D03*
G54D14*
X710Y935D03*
X710Y1010D03*
X627Y972D03*
X543Y1122D03*
X543Y1197D03*
X460Y1160D03*
X660Y735D03*
X660Y810D03*
X577Y772D03*
G54D15*
X829Y810D03*
X910Y810D03*
X879Y1010D03*
X960Y1010D03*
X1060Y1210D03*
X1141Y1210D03*
X760Y1210D03*
X841Y1210D03*
G54D16*
X2503Y567D03*
G54D17*
X1862Y47D03*
G54D18*
X1860Y100D03*
X1860Y143D03*
X1860Y186D03*
X1860Y230D03*
X1860Y273D03*
X1860Y316D03*
X1860Y360D03*
X1860Y403D03*
G54D19*
X2432Y65D02*
X2494Y65D01*
X2432Y64D02*
X2494Y64D01*
X2432Y63D02*
X2494Y63D01*
X2432Y62D02*
X2494Y62D01*
X2432Y61D02*
X2494Y61D01*
X2432Y60D02*
X2494Y60D01*
X2432Y59D02*
X2494Y59D01*
X2320Y58D02*
X2367Y58D01*
X2432Y58D02*
X2494Y58D01*
X2319Y57D02*
X2368Y57D01*
X2432Y57D02*
X2494Y57D01*
X2319Y56D02*
X2368Y56D01*
X2432Y56D02*
X2494Y56D01*
X2319Y55D02*
X2368Y55D01*
X2432Y55D02*
X2494Y55D01*
X2319Y54D02*
X2368Y54D01*
X2432Y54D02*
X2494Y54D01*
X2319Y53D02*
X2368Y53D01*
X2432Y53D02*
X2494Y53D01*
X2319Y52D02*
X2368Y52D01*
X2432Y52D02*
X2494Y52D01*
X2319Y51D02*
X2368Y51D01*
X2432Y51D02*
X2494Y51D01*
X2319Y50D02*
X2368Y50D01*
X2432Y50D02*
X2494Y50D01*
X2319Y49D02*
X2368Y49D01*
X2432Y49D02*
X2494Y49D01*
X2319Y48D02*
X2368Y48D01*
X2432Y48D02*
X2494Y48D01*
X2319Y47D02*
X2368Y47D01*
X2432Y47D02*
X2494Y47D01*
X2319Y46D02*
X2368Y46D01*
X2432Y46D02*
X2494Y46D01*
X2319Y45D02*
X2368Y45D01*
X2432Y45D02*
X2494Y45D01*
X2319Y44D02*
X2368Y44D01*
X2432Y44D02*
X2494Y44D01*
X2319Y43D02*
X2368Y43D01*
X2432Y43D02*
X2494Y43D01*
X2319Y42D02*
X2368Y42D01*
X2432Y42D02*
X2494Y42D01*
X2319Y41D02*
X2368Y41D01*
X2432Y41D02*
X2494Y41D01*
X2319Y40D02*
X2368Y40D01*
X2432Y40D02*
X2494Y40D01*
X2319Y39D02*
X2368Y39D01*
X2432Y39D02*
X2494Y39D01*
X2319Y38D02*
X2368Y38D01*
X2432Y38D02*
X2494Y38D01*
X2319Y37D02*
X2368Y37D01*
X2432Y37D02*
X2494Y37D01*
X2319Y36D02*
X2368Y36D01*
X2432Y36D02*
X2494Y36D01*
X2319Y35D02*
X2368Y35D01*
X2432Y35D02*
X2494Y35D01*
X2319Y34D02*
X2368Y34D01*
X2432Y34D02*
X2494Y34D01*
X2319Y33D02*
X2368Y33D01*
X2432Y33D02*
X2494Y33D01*
X2319Y32D02*
X2368Y32D01*
X2432Y32D02*
X2494Y32D01*
X2319Y31D02*
X2368Y31D01*
X2432Y31D02*
X2494Y31D01*
X2319Y30D02*
X2368Y30D01*
X2432Y30D02*
X2494Y30D01*
X2319Y29D02*
X2368Y29D01*
X2432Y29D02*
X2494Y29D01*
X2319Y28D02*
X2368Y28D01*
X2432Y28D02*
X2494Y28D01*
X2319Y27D02*
X2368Y27D01*
X2432Y27D02*
X2494Y27D01*
X2319Y26D02*
X2368Y26D01*
X2432Y26D02*
X2494Y26D01*
X2319Y25D02*
X2368Y25D01*
X2432Y25D02*
X2494Y25D01*
X2319Y24D02*
X2368Y24D01*
X2432Y24D02*
X2494Y24D01*
X2319Y23D02*
X2368Y23D01*
X2432Y23D02*
X2494Y23D01*
X2319Y22D02*
X2368Y22D01*
X2432Y22D02*
X2494Y22D01*
X2319Y21D02*
X2368Y21D01*
X2432Y21D02*
X2494Y21D01*
X2319Y20D02*
X2368Y20D01*
X2432Y20D02*
X2494Y20D01*
X2319Y19D02*
X2368Y19D01*
X2432Y19D02*
X2494Y19D01*
X2319Y18D02*
X2368Y18D01*
X2432Y18D02*
X2494Y18D01*
X2319Y17D02*
X2368Y17D01*
X2432Y17D02*
X2494Y17D01*
X2319Y16D02*
X2368Y16D01*
X2432Y16D02*
X2494Y16D01*
X2319Y15D02*
X2368Y15D01*
X2432Y15D02*
X2494Y15D01*
X2319Y14D02*
X2368Y14D01*
X2432Y14D02*
X2494Y14D01*
X2319Y13D02*
X2368Y13D01*
X2432Y13D02*
X2494Y13D01*
X2319Y12D02*
X2368Y12D01*
X2432Y12D02*
X2494Y12D01*
X2319Y11D02*
X2368Y11D01*
X2432Y11D02*
X2494Y11D01*
X2319Y10D02*
X2368Y10D01*
X2432Y10D02*
X2494Y10D01*
X2319Y9D02*
X2368Y9D01*
X2432Y9D02*
X2494Y9D01*
X2319Y8D02*
X2368Y8D01*
X2432Y8D02*
X2494Y8D01*
X2319Y7D02*
X2368Y7D01*
X2432Y7D02*
X2494Y7D01*
X2319Y6D02*
X2368Y6D01*
X2432Y6D02*
X2494Y6D01*
X2319Y5D02*
X2368Y5D01*
X2432Y5D02*
X2494Y5D01*
X2319Y4D02*
X2368Y4D01*
X2432Y4D02*
X2494Y4D01*
X2319Y3D02*
X2368Y3D01*
X2432Y3D02*
X2494Y3D01*
X2319Y2D02*
X2368Y2D01*
X2432Y2D02*
X2494Y2D01*
X2319Y1D02*
X2368Y1D01*
X2432Y1D02*
X2494Y1D01*
X2319Y0D02*
X2368Y0D01*
X2432Y0D02*
X2494Y0D01*
D02*
G04 End of Mask1*
M02*