G04 MADE WITH FRITZING*
G04 WWW.FRITZING.ORG*
G04 DOUBLE SIDED*
G04 HOLES PLATED*
G04 CONTOUR ON CENTER OF CONTOUR VECTOR*
%ASAXBY*%
%FSLAX23Y23*%
%MOIN*%
%OFA0B0*%
%SFA1.0B1.0*%
%ADD10C,0.074000*%
%ADD11R,0.035433X0.031496*%
%ADD12R,0.055118X0.059055*%
%ADD13R,0.053150X0.059055*%
%ADD14R,0.051181X0.039370*%
%ADD15R,0.059055X0.029528*%
%ADD16R,0.001000X0.001000*%
%LNPASTEMASK1*%
G90*
G70*
G54D10*
X2210Y660D03*
X2210Y1260D03*
G54D11*
X710Y935D03*
X710Y1010D03*
X627Y972D03*
X543Y1122D03*
X543Y1197D03*
X460Y1160D03*
X660Y735D03*
X660Y810D03*
X577Y772D03*
G54D12*
X829Y810D03*
X910Y810D03*
X879Y1010D03*
X960Y1010D03*
X1060Y1210D03*
X1141Y1210D03*
X760Y1210D03*
X841Y1210D03*
G54D13*
X2463Y30D03*
X2503Y567D03*
G54D14*
X1862Y47D03*
G54D15*
X1860Y100D03*
X1860Y143D03*
X1860Y186D03*
X1860Y230D03*
X1860Y273D03*
X1860Y316D03*
X1860Y360D03*
X1860Y403D03*
G54D16*
X2325Y53D02*
X2362Y53D01*
X2324Y52D02*
X2363Y52D01*
X2324Y51D02*
X2363Y51D01*
X2324Y50D02*
X2363Y50D01*
X2324Y49D02*
X2363Y49D01*
X2324Y48D02*
X2363Y48D01*
X2324Y47D02*
X2363Y47D01*
X2324Y46D02*
X2363Y46D01*
X2324Y45D02*
X2363Y45D01*
X2324Y44D02*
X2363Y44D01*
X2324Y43D02*
X2363Y43D01*
X2324Y42D02*
X2363Y42D01*
X2324Y41D02*
X2363Y41D01*
X2324Y40D02*
X2363Y40D01*
X2324Y39D02*
X2363Y39D01*
X2324Y38D02*
X2363Y38D01*
X2324Y37D02*
X2363Y37D01*
X2324Y36D02*
X2363Y36D01*
X2324Y35D02*
X2363Y35D01*
X2324Y34D02*
X2363Y34D01*
X2324Y33D02*
X2363Y33D01*
X2324Y32D02*
X2363Y32D01*
X2324Y31D02*
X2363Y31D01*
X2324Y30D02*
X2363Y30D01*
X2324Y29D02*
X2363Y29D01*
X2324Y28D02*
X2363Y28D01*
X2324Y27D02*
X2363Y27D01*
X2324Y26D02*
X2363Y26D01*
X2324Y25D02*
X2363Y25D01*
X2324Y24D02*
X2363Y24D01*
X2324Y23D02*
X2363Y23D01*
X2324Y22D02*
X2363Y22D01*
X2324Y21D02*
X2363Y21D01*
X2324Y20D02*
X2363Y20D01*
X2324Y19D02*
X2363Y19D01*
X2324Y18D02*
X2363Y18D01*
X2324Y17D02*
X2363Y17D01*
X2324Y16D02*
X2363Y16D01*
X2324Y15D02*
X2363Y15D01*
X2324Y14D02*
X2363Y14D01*
X2324Y13D02*
X2363Y13D01*
X2324Y12D02*
X2363Y12D01*
X2324Y11D02*
X2363Y11D01*
X2324Y10D02*
X2363Y10D01*
X2324Y9D02*
X2363Y9D01*
X2324Y8D02*
X2363Y8D01*
X2324Y7D02*
X2363Y7D01*
X2324Y6D02*
X2363Y6D01*
X2324Y5D02*
X2363Y5D01*
X2324Y4D02*
X2363Y4D01*
X2324Y3D02*
X2363Y3D01*
X2324Y2D02*
X2363Y2D01*
X2324Y1D02*
X2363Y1D01*
X2324Y0D02*
X2363Y0D01*
D02*
G04 End of PasteMask1*
M02*