G04 MADE WITH FRITZING*
G04 WWW.FRITZING.ORG*
G04 DOUBLE SIDED*
G04 HOLES PLATED*
G04 CONTOUR ON CENTER OF CONTOUR VECTOR*
%ASAXBY*%
%FSLAX23Y23*%
%MOIN*%
%OFA0B0*%
%SFA1.0B1.0*%
%ADD10C,0.049370*%
%ADD11C,0.085000*%
%ADD12C,0.088000*%
%ADD13C,0.084000*%
%LNMASK0*%
G90*
G70*
G54D10*
X960Y1210D03*
X2009Y1110D03*
X1210Y1210D03*
X710Y810D03*
X760Y1010D03*
X710Y1210D03*
X1409Y1117D03*
X1510Y1110D03*
X1810Y960D03*
X2110Y460D03*
X710Y460D03*
X1775Y360D03*
X1311Y360D03*
X1702Y316D03*
X1410Y310D03*
X1710Y210D03*
G54D11*
X1360Y210D03*
X960Y210D03*
G54D12*
X260Y1260D03*
X260Y1160D03*
X60Y1160D03*
X60Y1060D03*
X260Y960D03*
X60Y960D03*
X260Y860D03*
X60Y860D03*
X260Y760D03*
X60Y760D03*
X60Y660D03*
X60Y1260D03*
X260Y660D03*
G54D10*
X260Y60D03*
X260Y160D03*
G54D12*
X560Y260D03*
X560Y160D03*
X560Y460D03*
X560Y360D03*
G54D13*
X2510Y710D03*
X2510Y810D03*
X2510Y910D03*
X2510Y1010D03*
X2510Y1110D03*
X2510Y1210D03*
X2410Y660D03*
X2310Y660D03*
X2210Y660D03*
X2110Y660D03*
X2010Y660D03*
X2065Y775D03*
X1965Y775D03*
X1910Y660D03*
X1810Y660D03*
X1710Y660D03*
X1610Y660D03*
X1510Y660D03*
X1410Y660D03*
X1310Y660D03*
X1310Y1260D03*
X1410Y1260D03*
X1510Y1260D03*
X1610Y1260D03*
X1710Y1260D03*
X1810Y1260D03*
X1910Y1260D03*
X2010Y1260D03*
X2110Y1260D03*
X2210Y1260D03*
X2310Y1260D03*
X2410Y1260D03*
G54D10*
X1460Y960D03*
G04 End of Mask0*
M02*