G04 MADE WITH FRITZING*
G04 WWW.FRITZING.ORG*
G04 DOUBLE SIDED*
G04 HOLES PLATED*
G04 CONTOUR ON CENTER OF CONTOUR VECTOR*
%ASAXBY*%
%FSLAX23Y23*%
%MOIN*%
%OFA0B0*%
%SFA1.0B1.0*%
%ADD10C,0.075000*%
%ADD11C,0.039370*%
%ADD12C,0.078000*%
%ADD13C,0.074000*%
%ADD14C,0.024000*%
%ADD15C,0.016000*%
%LNCOPPER0*%
G90*
G70*
G54D10*
X153Y1214D03*
G54D11*
X960Y1210D03*
X2009Y1110D03*
X1210Y1210D03*
X710Y810D03*
X760Y1010D03*
X710Y1210D03*
X1409Y1117D03*
X1510Y1110D03*
X1810Y960D03*
X2110Y460D03*
X710Y460D03*
X1775Y360D03*
X1311Y360D03*
X1702Y316D03*
X1410Y310D03*
X1710Y210D03*
G54D10*
X1360Y210D03*
X960Y210D03*
G54D12*
X260Y1260D03*
X260Y1160D03*
X60Y1160D03*
X60Y1060D03*
X260Y960D03*
X60Y960D03*
X260Y860D03*
X60Y860D03*
X260Y760D03*
X60Y760D03*
X60Y660D03*
X60Y1260D03*
X260Y660D03*
G54D11*
X260Y60D03*
X260Y160D03*
G54D12*
X560Y260D03*
X560Y160D03*
X560Y460D03*
X560Y360D03*
G54D13*
X2510Y710D03*
X2510Y810D03*
X2510Y910D03*
X2510Y1010D03*
X2510Y1110D03*
X2510Y1210D03*
X2410Y660D03*
X2310Y660D03*
X2210Y660D03*
X2110Y660D03*
X2010Y660D03*
X2065Y775D03*
X1965Y775D03*
X1910Y660D03*
X1810Y660D03*
X1710Y660D03*
X1610Y660D03*
X1510Y660D03*
X1410Y660D03*
X1310Y660D03*
X1310Y1260D03*
X1410Y1260D03*
X1510Y1260D03*
X1610Y1260D03*
X1710Y1260D03*
X1810Y1260D03*
X1910Y1260D03*
X2010Y1260D03*
X2110Y1260D03*
X2210Y1260D03*
X2310Y1260D03*
X2410Y1260D03*
G54D11*
X1460Y960D03*
G54D14*
X59Y359D02*
X60Y630D01*
D02*
X360Y359D02*
X59Y359D01*
D02*
X409Y559D02*
X360Y359D01*
D02*
X1060Y559D02*
X409Y559D01*
D02*
X1309Y810D02*
X1060Y559D01*
D02*
X1859Y810D02*
X1309Y810D01*
D02*
X1960Y860D02*
X1859Y810D01*
D02*
X2059Y860D02*
X1960Y860D01*
D02*
X2063Y806D02*
X2059Y860D01*
G54D15*
D02*
X1360Y1110D02*
X1360Y1160D01*
D02*
X1561Y1110D02*
X1996Y1110D01*
D02*
X1561Y1160D02*
X1561Y1110D01*
D02*
X1360Y1160D02*
X1459Y1160D01*
D02*
X1459Y1160D02*
X1561Y1160D01*
D02*
X1210Y1109D02*
X1360Y1110D01*
D02*
X1210Y1196D02*
X1210Y1109D01*
G54D14*
D02*
X660Y260D02*
X590Y260D01*
D02*
X660Y510D02*
X660Y261D01*
D02*
X1060Y510D02*
X660Y510D01*
D02*
X1310Y760D02*
X1060Y510D01*
D02*
X1810Y760D02*
X1310Y760D01*
D02*
X1810Y691D02*
X1810Y760D01*
D02*
X1109Y461D02*
X2091Y460D01*
D02*
X729Y460D02*
X1109Y461D01*
D02*
X1756Y360D02*
X1330Y360D01*
D02*
X1683Y316D02*
X1428Y310D01*
D02*
X160Y859D02*
X90Y860D01*
D02*
X160Y960D02*
X90Y960D01*
D02*
X260Y79D02*
X260Y141D01*
D02*
X1709Y860D02*
X1310Y860D01*
D02*
X1310Y860D02*
X1060Y609D01*
D02*
X310Y410D02*
X161Y410D01*
D02*
X359Y609D02*
X310Y410D01*
D02*
X161Y410D02*
X160Y659D01*
D02*
X160Y659D02*
X160Y859D01*
D02*
X1060Y609D02*
X359Y609D01*
D02*
X1810Y860D02*
X1709Y860D01*
D02*
X1810Y941D02*
X1810Y860D01*
D02*
X1401Y1099D02*
X1310Y910D01*
D02*
X1310Y910D02*
X1310Y909D01*
D02*
X1310Y909D02*
X1060Y660D01*
D02*
X1060Y660D02*
X360Y660D01*
D02*
X210Y1059D02*
X160Y960D01*
D02*
X310Y1059D02*
X210Y1059D01*
D02*
X360Y660D02*
X310Y1059D01*
D02*
X1504Y1092D02*
X1466Y978D01*
G36*
X104Y1299D02*
X104Y1279D01*
X106Y1279D01*
X106Y1273D01*
X108Y1273D01*
X108Y1247D01*
X106Y1247D01*
X106Y1241D01*
X104Y1241D01*
X104Y1237D01*
X102Y1237D01*
X102Y1233D01*
X100Y1233D01*
X100Y1231D01*
X98Y1231D01*
X98Y1229D01*
X96Y1229D01*
X96Y1225D01*
X92Y1225D01*
X92Y1223D01*
X90Y1223D01*
X90Y1221D01*
X88Y1221D01*
X88Y1199D01*
X90Y1199D01*
X90Y1197D01*
X92Y1197D01*
X92Y1195D01*
X96Y1195D01*
X96Y1191D01*
X98Y1191D01*
X98Y1189D01*
X100Y1189D01*
X100Y1187D01*
X102Y1187D01*
X102Y1183D01*
X104Y1183D01*
X104Y1179D01*
X106Y1179D01*
X106Y1173D01*
X108Y1173D01*
X108Y1147D01*
X106Y1147D01*
X106Y1141D01*
X104Y1141D01*
X104Y1137D01*
X102Y1137D01*
X102Y1133D01*
X100Y1133D01*
X100Y1131D01*
X98Y1131D01*
X98Y1129D01*
X96Y1129D01*
X96Y1125D01*
X92Y1125D01*
X92Y1123D01*
X90Y1123D01*
X90Y1121D01*
X88Y1121D01*
X88Y1111D01*
X252Y1111D01*
X252Y1113D01*
X244Y1113D01*
X244Y1115D01*
X238Y1115D01*
X238Y1117D01*
X236Y1117D01*
X236Y1119D01*
X232Y1119D01*
X232Y1121D01*
X230Y1121D01*
X230Y1123D01*
X228Y1123D01*
X228Y1125D01*
X224Y1125D01*
X224Y1129D01*
X222Y1129D01*
X222Y1131D01*
X220Y1131D01*
X220Y1133D01*
X218Y1133D01*
X218Y1137D01*
X216Y1137D01*
X216Y1141D01*
X214Y1141D01*
X214Y1147D01*
X212Y1147D01*
X212Y1159D01*
X210Y1159D01*
X210Y1161D01*
X212Y1161D01*
X212Y1173D01*
X214Y1173D01*
X214Y1179D01*
X216Y1179D01*
X216Y1183D01*
X218Y1183D01*
X218Y1187D01*
X220Y1187D01*
X220Y1189D01*
X222Y1189D01*
X222Y1191D01*
X224Y1191D01*
X224Y1195D01*
X226Y1195D01*
X226Y1197D01*
X230Y1197D01*
X230Y1199D01*
X232Y1199D01*
X232Y1221D01*
X230Y1221D01*
X230Y1223D01*
X228Y1223D01*
X228Y1225D01*
X224Y1225D01*
X224Y1229D01*
X222Y1229D01*
X222Y1231D01*
X220Y1231D01*
X220Y1233D01*
X218Y1233D01*
X218Y1237D01*
X216Y1237D01*
X216Y1241D01*
X214Y1241D01*
X214Y1247D01*
X212Y1247D01*
X212Y1259D01*
X210Y1259D01*
X210Y1261D01*
X212Y1261D01*
X212Y1273D01*
X214Y1273D01*
X214Y1279D01*
X216Y1279D01*
X216Y1299D01*
X104Y1299D01*
G37*
D02*
G36*
X304Y1299D02*
X304Y1279D01*
X306Y1279D01*
X306Y1273D01*
X308Y1273D01*
X308Y1247D01*
X306Y1247D01*
X306Y1241D01*
X304Y1241D01*
X304Y1239D01*
X1220Y1239D01*
X1220Y1237D01*
X1224Y1237D01*
X1224Y1235D01*
X1228Y1235D01*
X1228Y1233D01*
X1230Y1233D01*
X1230Y1231D01*
X1232Y1231D01*
X1232Y1229D01*
X1234Y1229D01*
X1234Y1225D01*
X1236Y1225D01*
X1236Y1223D01*
X1238Y1223D01*
X1238Y1215D01*
X1240Y1215D01*
X1240Y1213D01*
X1302Y1213D01*
X1302Y1215D01*
X1294Y1215D01*
X1294Y1217D01*
X1290Y1217D01*
X1290Y1219D01*
X1286Y1219D01*
X1286Y1221D01*
X1282Y1221D01*
X1282Y1223D01*
X1280Y1223D01*
X1280Y1225D01*
X1278Y1225D01*
X1278Y1227D01*
X1276Y1227D01*
X1276Y1229D01*
X1274Y1229D01*
X1274Y1231D01*
X1272Y1231D01*
X1272Y1233D01*
X1270Y1233D01*
X1270Y1237D01*
X1268Y1237D01*
X1268Y1241D01*
X1266Y1241D01*
X1266Y1247D01*
X1264Y1247D01*
X1264Y1259D01*
X1262Y1259D01*
X1262Y1261D01*
X1264Y1261D01*
X1264Y1273D01*
X1266Y1273D01*
X1266Y1279D01*
X1268Y1279D01*
X1268Y1299D01*
X304Y1299D01*
G37*
D02*
G36*
X2452Y1299D02*
X2452Y1279D01*
X2454Y1279D01*
X2454Y1273D01*
X2456Y1273D01*
X2456Y1247D01*
X2454Y1247D01*
X2454Y1241D01*
X2452Y1241D01*
X2452Y1237D01*
X2450Y1237D01*
X2450Y1235D01*
X2448Y1235D01*
X2448Y1231D01*
X2446Y1231D01*
X2446Y1229D01*
X2444Y1229D01*
X2444Y1227D01*
X2442Y1227D01*
X2442Y1225D01*
X2440Y1225D01*
X2440Y1223D01*
X2438Y1223D01*
X2438Y1221D01*
X2434Y1221D01*
X2434Y1219D01*
X2430Y1219D01*
X2430Y1217D01*
X2426Y1217D01*
X2426Y1215D01*
X2418Y1215D01*
X2418Y1213D01*
X2464Y1213D01*
X2464Y1223D01*
X2466Y1223D01*
X2466Y1229D01*
X2468Y1229D01*
X2468Y1233D01*
X2470Y1233D01*
X2470Y1237D01*
X2472Y1237D01*
X2472Y1239D01*
X2474Y1239D01*
X2474Y1241D01*
X2476Y1241D01*
X2476Y1243D01*
X2478Y1243D01*
X2478Y1245D01*
X2480Y1245D01*
X2480Y1247D01*
X2482Y1247D01*
X2482Y1249D01*
X2486Y1249D01*
X2486Y1251D01*
X2490Y1251D01*
X2490Y1253D01*
X2494Y1253D01*
X2494Y1255D01*
X2500Y1255D01*
X2500Y1257D01*
X2518Y1257D01*
X2518Y1299D01*
X2452Y1299D01*
G37*
D02*
G36*
X304Y1239D02*
X304Y1237D01*
X302Y1237D01*
X302Y1233D01*
X300Y1233D01*
X300Y1231D01*
X298Y1231D01*
X298Y1229D01*
X296Y1229D01*
X296Y1225D01*
X292Y1225D01*
X292Y1223D01*
X290Y1223D01*
X290Y1221D01*
X288Y1221D01*
X288Y1199D01*
X290Y1199D01*
X290Y1197D01*
X292Y1197D01*
X292Y1195D01*
X296Y1195D01*
X296Y1191D01*
X298Y1191D01*
X298Y1189D01*
X300Y1189D01*
X300Y1187D01*
X302Y1187D01*
X302Y1183D01*
X304Y1183D01*
X304Y1181D01*
X700Y1181D01*
X700Y1183D01*
X696Y1183D01*
X696Y1185D01*
X692Y1185D01*
X692Y1187D01*
X690Y1187D01*
X690Y1189D01*
X688Y1189D01*
X688Y1191D01*
X686Y1191D01*
X686Y1195D01*
X684Y1195D01*
X684Y1197D01*
X682Y1197D01*
X682Y1203D01*
X680Y1203D01*
X680Y1217D01*
X682Y1217D01*
X682Y1223D01*
X684Y1223D01*
X684Y1225D01*
X686Y1225D01*
X686Y1229D01*
X688Y1229D01*
X688Y1231D01*
X690Y1231D01*
X690Y1233D01*
X692Y1233D01*
X692Y1235D01*
X696Y1235D01*
X696Y1237D01*
X700Y1237D01*
X700Y1239D01*
X304Y1239D01*
G37*
D02*
G36*
X720Y1239D02*
X720Y1237D01*
X724Y1237D01*
X724Y1235D01*
X728Y1235D01*
X728Y1233D01*
X730Y1233D01*
X730Y1231D01*
X732Y1231D01*
X732Y1229D01*
X734Y1229D01*
X734Y1225D01*
X736Y1225D01*
X736Y1223D01*
X738Y1223D01*
X738Y1215D01*
X740Y1215D01*
X740Y1205D01*
X738Y1205D01*
X738Y1199D01*
X736Y1199D01*
X736Y1195D01*
X734Y1195D01*
X734Y1191D01*
X732Y1191D01*
X732Y1189D01*
X730Y1189D01*
X730Y1187D01*
X728Y1187D01*
X728Y1185D01*
X724Y1185D01*
X724Y1183D01*
X720Y1183D01*
X720Y1181D01*
X950Y1181D01*
X950Y1183D01*
X946Y1183D01*
X946Y1185D01*
X942Y1185D01*
X942Y1187D01*
X940Y1187D01*
X940Y1189D01*
X938Y1189D01*
X938Y1191D01*
X936Y1191D01*
X936Y1195D01*
X934Y1195D01*
X934Y1197D01*
X932Y1197D01*
X932Y1203D01*
X930Y1203D01*
X930Y1217D01*
X932Y1217D01*
X932Y1223D01*
X934Y1223D01*
X934Y1225D01*
X936Y1225D01*
X936Y1229D01*
X938Y1229D01*
X938Y1231D01*
X940Y1231D01*
X940Y1233D01*
X942Y1233D01*
X942Y1235D01*
X946Y1235D01*
X946Y1237D01*
X950Y1237D01*
X950Y1239D01*
X720Y1239D01*
G37*
D02*
G36*
X970Y1239D02*
X970Y1237D01*
X974Y1237D01*
X974Y1235D01*
X978Y1235D01*
X978Y1233D01*
X980Y1233D01*
X980Y1231D01*
X982Y1231D01*
X982Y1229D01*
X984Y1229D01*
X984Y1225D01*
X986Y1225D01*
X986Y1223D01*
X988Y1223D01*
X988Y1215D01*
X990Y1215D01*
X990Y1205D01*
X988Y1205D01*
X988Y1199D01*
X986Y1199D01*
X986Y1195D01*
X984Y1195D01*
X984Y1191D01*
X982Y1191D01*
X982Y1189D01*
X980Y1189D01*
X980Y1187D01*
X978Y1187D01*
X978Y1185D01*
X974Y1185D01*
X974Y1183D01*
X970Y1183D01*
X970Y1181D01*
X1192Y1181D01*
X1192Y1187D01*
X1190Y1187D01*
X1190Y1189D01*
X1188Y1189D01*
X1188Y1191D01*
X1186Y1191D01*
X1186Y1195D01*
X1184Y1195D01*
X1184Y1197D01*
X1182Y1197D01*
X1182Y1203D01*
X1180Y1203D01*
X1180Y1217D01*
X1182Y1217D01*
X1182Y1223D01*
X1184Y1223D01*
X1184Y1225D01*
X1186Y1225D01*
X1186Y1229D01*
X1188Y1229D01*
X1188Y1231D01*
X1190Y1231D01*
X1190Y1233D01*
X1192Y1233D01*
X1192Y1235D01*
X1196Y1235D01*
X1196Y1237D01*
X1200Y1237D01*
X1200Y1239D01*
X970Y1239D01*
G37*
D02*
G36*
X1350Y1237D02*
X1350Y1235D01*
X1348Y1235D01*
X1348Y1231D01*
X1346Y1231D01*
X1346Y1229D01*
X1344Y1229D01*
X1344Y1227D01*
X1342Y1227D01*
X1342Y1225D01*
X1340Y1225D01*
X1340Y1223D01*
X1338Y1223D01*
X1338Y1221D01*
X1334Y1221D01*
X1334Y1219D01*
X1330Y1219D01*
X1330Y1217D01*
X1326Y1217D01*
X1326Y1215D01*
X1318Y1215D01*
X1318Y1213D01*
X1402Y1213D01*
X1402Y1215D01*
X1394Y1215D01*
X1394Y1217D01*
X1390Y1217D01*
X1390Y1219D01*
X1386Y1219D01*
X1386Y1221D01*
X1382Y1221D01*
X1382Y1223D01*
X1380Y1223D01*
X1380Y1225D01*
X1378Y1225D01*
X1378Y1227D01*
X1376Y1227D01*
X1376Y1229D01*
X1374Y1229D01*
X1374Y1231D01*
X1372Y1231D01*
X1372Y1233D01*
X1370Y1233D01*
X1370Y1237D01*
X1350Y1237D01*
G37*
D02*
G36*
X1450Y1237D02*
X1450Y1235D01*
X1448Y1235D01*
X1448Y1231D01*
X1446Y1231D01*
X1446Y1229D01*
X1444Y1229D01*
X1444Y1227D01*
X1442Y1227D01*
X1442Y1225D01*
X1440Y1225D01*
X1440Y1223D01*
X1438Y1223D01*
X1438Y1221D01*
X1434Y1221D01*
X1434Y1219D01*
X1430Y1219D01*
X1430Y1217D01*
X1426Y1217D01*
X1426Y1215D01*
X1418Y1215D01*
X1418Y1213D01*
X1502Y1213D01*
X1502Y1215D01*
X1494Y1215D01*
X1494Y1217D01*
X1490Y1217D01*
X1490Y1219D01*
X1486Y1219D01*
X1486Y1221D01*
X1482Y1221D01*
X1482Y1223D01*
X1480Y1223D01*
X1480Y1225D01*
X1478Y1225D01*
X1478Y1227D01*
X1476Y1227D01*
X1476Y1229D01*
X1474Y1229D01*
X1474Y1231D01*
X1472Y1231D01*
X1472Y1233D01*
X1470Y1233D01*
X1470Y1237D01*
X1450Y1237D01*
G37*
D02*
G36*
X1550Y1237D02*
X1550Y1235D01*
X1548Y1235D01*
X1548Y1231D01*
X1546Y1231D01*
X1546Y1229D01*
X1544Y1229D01*
X1544Y1227D01*
X1542Y1227D01*
X1542Y1225D01*
X1540Y1225D01*
X1540Y1223D01*
X1538Y1223D01*
X1538Y1221D01*
X1534Y1221D01*
X1534Y1219D01*
X1530Y1219D01*
X1530Y1217D01*
X1526Y1217D01*
X1526Y1215D01*
X1518Y1215D01*
X1518Y1213D01*
X1602Y1213D01*
X1602Y1215D01*
X1594Y1215D01*
X1594Y1217D01*
X1590Y1217D01*
X1590Y1219D01*
X1586Y1219D01*
X1586Y1221D01*
X1582Y1221D01*
X1582Y1223D01*
X1580Y1223D01*
X1580Y1225D01*
X1578Y1225D01*
X1578Y1227D01*
X1576Y1227D01*
X1576Y1229D01*
X1574Y1229D01*
X1574Y1231D01*
X1572Y1231D01*
X1572Y1233D01*
X1570Y1233D01*
X1570Y1237D01*
X1550Y1237D01*
G37*
D02*
G36*
X1650Y1237D02*
X1650Y1235D01*
X1648Y1235D01*
X1648Y1231D01*
X1646Y1231D01*
X1646Y1229D01*
X1644Y1229D01*
X1644Y1227D01*
X1642Y1227D01*
X1642Y1225D01*
X1640Y1225D01*
X1640Y1223D01*
X1638Y1223D01*
X1638Y1221D01*
X1634Y1221D01*
X1634Y1219D01*
X1630Y1219D01*
X1630Y1217D01*
X1626Y1217D01*
X1626Y1215D01*
X1618Y1215D01*
X1618Y1213D01*
X1702Y1213D01*
X1702Y1215D01*
X1694Y1215D01*
X1694Y1217D01*
X1690Y1217D01*
X1690Y1219D01*
X1686Y1219D01*
X1686Y1221D01*
X1682Y1221D01*
X1682Y1223D01*
X1680Y1223D01*
X1680Y1225D01*
X1678Y1225D01*
X1678Y1227D01*
X1676Y1227D01*
X1676Y1229D01*
X1674Y1229D01*
X1674Y1231D01*
X1672Y1231D01*
X1672Y1233D01*
X1670Y1233D01*
X1670Y1237D01*
X1650Y1237D01*
G37*
D02*
G36*
X1750Y1237D02*
X1750Y1235D01*
X1748Y1235D01*
X1748Y1231D01*
X1746Y1231D01*
X1746Y1229D01*
X1744Y1229D01*
X1744Y1227D01*
X1742Y1227D01*
X1742Y1225D01*
X1740Y1225D01*
X1740Y1223D01*
X1738Y1223D01*
X1738Y1221D01*
X1734Y1221D01*
X1734Y1219D01*
X1730Y1219D01*
X1730Y1217D01*
X1726Y1217D01*
X1726Y1215D01*
X1718Y1215D01*
X1718Y1213D01*
X1802Y1213D01*
X1802Y1215D01*
X1794Y1215D01*
X1794Y1217D01*
X1790Y1217D01*
X1790Y1219D01*
X1786Y1219D01*
X1786Y1221D01*
X1782Y1221D01*
X1782Y1223D01*
X1780Y1223D01*
X1780Y1225D01*
X1778Y1225D01*
X1778Y1227D01*
X1776Y1227D01*
X1776Y1229D01*
X1774Y1229D01*
X1774Y1231D01*
X1772Y1231D01*
X1772Y1233D01*
X1770Y1233D01*
X1770Y1237D01*
X1750Y1237D01*
G37*
D02*
G36*
X1850Y1237D02*
X1850Y1235D01*
X1848Y1235D01*
X1848Y1231D01*
X1846Y1231D01*
X1846Y1229D01*
X1844Y1229D01*
X1844Y1227D01*
X1842Y1227D01*
X1842Y1225D01*
X1840Y1225D01*
X1840Y1223D01*
X1838Y1223D01*
X1838Y1221D01*
X1834Y1221D01*
X1834Y1219D01*
X1830Y1219D01*
X1830Y1217D01*
X1826Y1217D01*
X1826Y1215D01*
X1818Y1215D01*
X1818Y1213D01*
X1902Y1213D01*
X1902Y1215D01*
X1894Y1215D01*
X1894Y1217D01*
X1890Y1217D01*
X1890Y1219D01*
X1886Y1219D01*
X1886Y1221D01*
X1882Y1221D01*
X1882Y1223D01*
X1880Y1223D01*
X1880Y1225D01*
X1878Y1225D01*
X1878Y1227D01*
X1876Y1227D01*
X1876Y1229D01*
X1874Y1229D01*
X1874Y1231D01*
X1872Y1231D01*
X1872Y1233D01*
X1870Y1233D01*
X1870Y1237D01*
X1850Y1237D01*
G37*
D02*
G36*
X1950Y1237D02*
X1950Y1235D01*
X1948Y1235D01*
X1948Y1231D01*
X1946Y1231D01*
X1946Y1229D01*
X1944Y1229D01*
X1944Y1227D01*
X1942Y1227D01*
X1942Y1225D01*
X1940Y1225D01*
X1940Y1223D01*
X1938Y1223D01*
X1938Y1221D01*
X1934Y1221D01*
X1934Y1219D01*
X1930Y1219D01*
X1930Y1217D01*
X1926Y1217D01*
X1926Y1215D01*
X1918Y1215D01*
X1918Y1213D01*
X2002Y1213D01*
X2002Y1215D01*
X1994Y1215D01*
X1994Y1217D01*
X1990Y1217D01*
X1990Y1219D01*
X1986Y1219D01*
X1986Y1221D01*
X1982Y1221D01*
X1982Y1223D01*
X1980Y1223D01*
X1980Y1225D01*
X1978Y1225D01*
X1978Y1227D01*
X1976Y1227D01*
X1976Y1229D01*
X1974Y1229D01*
X1974Y1231D01*
X1972Y1231D01*
X1972Y1233D01*
X1970Y1233D01*
X1970Y1237D01*
X1950Y1237D01*
G37*
D02*
G36*
X2050Y1237D02*
X2050Y1235D01*
X2048Y1235D01*
X2048Y1231D01*
X2046Y1231D01*
X2046Y1229D01*
X2044Y1229D01*
X2044Y1227D01*
X2042Y1227D01*
X2042Y1225D01*
X2040Y1225D01*
X2040Y1223D01*
X2038Y1223D01*
X2038Y1221D01*
X2034Y1221D01*
X2034Y1219D01*
X2030Y1219D01*
X2030Y1217D01*
X2026Y1217D01*
X2026Y1215D01*
X2018Y1215D01*
X2018Y1213D01*
X2102Y1213D01*
X2102Y1215D01*
X2094Y1215D01*
X2094Y1217D01*
X2090Y1217D01*
X2090Y1219D01*
X2086Y1219D01*
X2086Y1221D01*
X2082Y1221D01*
X2082Y1223D01*
X2080Y1223D01*
X2080Y1225D01*
X2078Y1225D01*
X2078Y1227D01*
X2076Y1227D01*
X2076Y1229D01*
X2074Y1229D01*
X2074Y1231D01*
X2072Y1231D01*
X2072Y1233D01*
X2070Y1233D01*
X2070Y1237D01*
X2050Y1237D01*
G37*
D02*
G36*
X2150Y1237D02*
X2150Y1235D01*
X2148Y1235D01*
X2148Y1231D01*
X2146Y1231D01*
X2146Y1229D01*
X2144Y1229D01*
X2144Y1227D01*
X2142Y1227D01*
X2142Y1225D01*
X2140Y1225D01*
X2140Y1223D01*
X2138Y1223D01*
X2138Y1221D01*
X2134Y1221D01*
X2134Y1219D01*
X2130Y1219D01*
X2130Y1217D01*
X2126Y1217D01*
X2126Y1215D01*
X2118Y1215D01*
X2118Y1213D01*
X2202Y1213D01*
X2202Y1215D01*
X2194Y1215D01*
X2194Y1217D01*
X2190Y1217D01*
X2190Y1219D01*
X2186Y1219D01*
X2186Y1221D01*
X2182Y1221D01*
X2182Y1223D01*
X2180Y1223D01*
X2180Y1225D01*
X2178Y1225D01*
X2178Y1227D01*
X2176Y1227D01*
X2176Y1229D01*
X2174Y1229D01*
X2174Y1231D01*
X2172Y1231D01*
X2172Y1233D01*
X2170Y1233D01*
X2170Y1237D01*
X2150Y1237D01*
G37*
D02*
G36*
X2250Y1237D02*
X2250Y1235D01*
X2248Y1235D01*
X2248Y1231D01*
X2246Y1231D01*
X2246Y1229D01*
X2244Y1229D01*
X2244Y1227D01*
X2242Y1227D01*
X2242Y1225D01*
X2240Y1225D01*
X2240Y1223D01*
X2238Y1223D01*
X2238Y1221D01*
X2234Y1221D01*
X2234Y1219D01*
X2230Y1219D01*
X2230Y1217D01*
X2226Y1217D01*
X2226Y1215D01*
X2218Y1215D01*
X2218Y1213D01*
X2302Y1213D01*
X2302Y1215D01*
X2294Y1215D01*
X2294Y1217D01*
X2290Y1217D01*
X2290Y1219D01*
X2286Y1219D01*
X2286Y1221D01*
X2282Y1221D01*
X2282Y1223D01*
X2280Y1223D01*
X2280Y1225D01*
X2278Y1225D01*
X2278Y1227D01*
X2276Y1227D01*
X2276Y1229D01*
X2274Y1229D01*
X2274Y1231D01*
X2272Y1231D01*
X2272Y1233D01*
X2270Y1233D01*
X2270Y1237D01*
X2250Y1237D01*
G37*
D02*
G36*
X2350Y1237D02*
X2350Y1235D01*
X2348Y1235D01*
X2348Y1231D01*
X2346Y1231D01*
X2346Y1229D01*
X2344Y1229D01*
X2344Y1227D01*
X2342Y1227D01*
X2342Y1225D01*
X2340Y1225D01*
X2340Y1223D01*
X2338Y1223D01*
X2338Y1221D01*
X2334Y1221D01*
X2334Y1219D01*
X2330Y1219D01*
X2330Y1217D01*
X2326Y1217D01*
X2326Y1215D01*
X2318Y1215D01*
X2318Y1213D01*
X2402Y1213D01*
X2402Y1215D01*
X2394Y1215D01*
X2394Y1217D01*
X2390Y1217D01*
X2390Y1219D01*
X2386Y1219D01*
X2386Y1221D01*
X2382Y1221D01*
X2382Y1223D01*
X2380Y1223D01*
X2380Y1225D01*
X2378Y1225D01*
X2378Y1227D01*
X2376Y1227D01*
X2376Y1229D01*
X2374Y1229D01*
X2374Y1231D01*
X2372Y1231D01*
X2372Y1233D01*
X2370Y1233D01*
X2370Y1237D01*
X2350Y1237D01*
G37*
D02*
G36*
X1240Y1213D02*
X1240Y1211D01*
X2464Y1211D01*
X2464Y1213D01*
X1240Y1213D01*
G37*
D02*
G36*
X1240Y1213D02*
X1240Y1211D01*
X2464Y1211D01*
X2464Y1213D01*
X1240Y1213D01*
G37*
D02*
G36*
X1240Y1213D02*
X1240Y1211D01*
X2464Y1211D01*
X2464Y1213D01*
X1240Y1213D01*
G37*
D02*
G36*
X1240Y1213D02*
X1240Y1211D01*
X2464Y1211D01*
X2464Y1213D01*
X1240Y1213D01*
G37*
D02*
G36*
X1240Y1213D02*
X1240Y1211D01*
X2464Y1211D01*
X2464Y1213D01*
X1240Y1213D01*
G37*
D02*
G36*
X1240Y1213D02*
X1240Y1211D01*
X2464Y1211D01*
X2464Y1213D01*
X1240Y1213D01*
G37*
D02*
G36*
X1240Y1213D02*
X1240Y1211D01*
X2464Y1211D01*
X2464Y1213D01*
X1240Y1213D01*
G37*
D02*
G36*
X1240Y1213D02*
X1240Y1211D01*
X2464Y1211D01*
X2464Y1213D01*
X1240Y1213D01*
G37*
D02*
G36*
X1240Y1213D02*
X1240Y1211D01*
X2464Y1211D01*
X2464Y1213D01*
X1240Y1213D01*
G37*
D02*
G36*
X1240Y1213D02*
X1240Y1211D01*
X2464Y1211D01*
X2464Y1213D01*
X1240Y1213D01*
G37*
D02*
G36*
X1240Y1213D02*
X1240Y1211D01*
X2464Y1211D01*
X2464Y1213D01*
X1240Y1213D01*
G37*
D02*
G36*
X1240Y1213D02*
X1240Y1211D01*
X2464Y1211D01*
X2464Y1213D01*
X1240Y1213D01*
G37*
D02*
G36*
X1240Y1213D02*
X1240Y1211D01*
X2464Y1211D01*
X2464Y1213D01*
X1240Y1213D01*
G37*
D02*
G36*
X1240Y1211D02*
X1240Y1205D01*
X1238Y1205D01*
X1238Y1199D01*
X1236Y1199D01*
X1236Y1195D01*
X1234Y1195D01*
X1234Y1191D01*
X1232Y1191D01*
X1232Y1189D01*
X1230Y1189D01*
X1230Y1187D01*
X1228Y1187D01*
X1228Y1179D01*
X1562Y1179D01*
X1562Y1177D01*
X1568Y1177D01*
X1568Y1175D01*
X1572Y1175D01*
X1572Y1173D01*
X1574Y1173D01*
X1574Y1171D01*
X1576Y1171D01*
X1576Y1167D01*
X1578Y1167D01*
X1578Y1139D01*
X2020Y1139D01*
X2020Y1137D01*
X2024Y1137D01*
X2024Y1135D01*
X2028Y1135D01*
X2028Y1133D01*
X2030Y1133D01*
X2030Y1131D01*
X2032Y1131D01*
X2032Y1129D01*
X2034Y1129D01*
X2034Y1125D01*
X2036Y1125D01*
X2036Y1121D01*
X2038Y1121D01*
X2038Y1111D01*
X2040Y1111D01*
X2040Y1109D01*
X2038Y1109D01*
X2038Y1099D01*
X2036Y1099D01*
X2036Y1095D01*
X2034Y1095D01*
X2034Y1093D01*
X2032Y1093D01*
X2032Y1089D01*
X2028Y1089D01*
X2028Y1087D01*
X2026Y1087D01*
X2026Y1085D01*
X2022Y1085D01*
X2022Y1083D01*
X2018Y1083D01*
X2018Y1081D01*
X2472Y1081D01*
X2472Y1083D01*
X2470Y1083D01*
X2470Y1087D01*
X2468Y1087D01*
X2468Y1091D01*
X2466Y1091D01*
X2466Y1097D01*
X2464Y1097D01*
X2464Y1109D01*
X2462Y1109D01*
X2462Y1111D01*
X2464Y1111D01*
X2464Y1123D01*
X2466Y1123D01*
X2466Y1129D01*
X2468Y1129D01*
X2468Y1133D01*
X2470Y1133D01*
X2470Y1137D01*
X2472Y1137D01*
X2472Y1139D01*
X2474Y1139D01*
X2474Y1141D01*
X2476Y1141D01*
X2476Y1143D01*
X2478Y1143D01*
X2478Y1145D01*
X2480Y1145D01*
X2480Y1147D01*
X2482Y1147D01*
X2482Y1149D01*
X2486Y1149D01*
X2486Y1171D01*
X2482Y1171D01*
X2482Y1173D01*
X2480Y1173D01*
X2480Y1175D01*
X2478Y1175D01*
X2478Y1177D01*
X2476Y1177D01*
X2476Y1179D01*
X2474Y1179D01*
X2474Y1181D01*
X2472Y1181D01*
X2472Y1183D01*
X2470Y1183D01*
X2470Y1187D01*
X2468Y1187D01*
X2468Y1191D01*
X2466Y1191D01*
X2466Y1197D01*
X2464Y1197D01*
X2464Y1209D01*
X2462Y1209D01*
X2462Y1211D01*
X1240Y1211D01*
G37*
D02*
G36*
X304Y1181D02*
X304Y1179D01*
X1192Y1179D01*
X1192Y1181D01*
X304Y1181D01*
G37*
D02*
G36*
X304Y1181D02*
X304Y1179D01*
X1192Y1179D01*
X1192Y1181D01*
X304Y1181D01*
G37*
D02*
G36*
X304Y1181D02*
X304Y1179D01*
X1192Y1179D01*
X1192Y1181D01*
X304Y1181D01*
G37*
D02*
G36*
X306Y1179D02*
X306Y1173D01*
X308Y1173D01*
X308Y1147D01*
X306Y1147D01*
X306Y1141D01*
X304Y1141D01*
X304Y1137D01*
X302Y1137D01*
X302Y1133D01*
X300Y1133D01*
X300Y1131D01*
X298Y1131D01*
X298Y1129D01*
X296Y1129D01*
X296Y1125D01*
X292Y1125D01*
X292Y1123D01*
X290Y1123D01*
X290Y1121D01*
X288Y1121D01*
X288Y1119D01*
X284Y1119D01*
X284Y1117D01*
X280Y1117D01*
X280Y1115D01*
X276Y1115D01*
X276Y1113D01*
X268Y1113D01*
X268Y1111D01*
X1192Y1111D01*
X1192Y1179D01*
X306Y1179D01*
G37*
D02*
G36*
X1228Y1179D02*
X1228Y1127D01*
X1326Y1127D01*
X1326Y1129D01*
X1342Y1129D01*
X1342Y1167D01*
X1344Y1167D01*
X1344Y1171D01*
X1346Y1171D01*
X1346Y1173D01*
X1348Y1173D01*
X1348Y1175D01*
X1352Y1175D01*
X1352Y1177D01*
X1358Y1177D01*
X1358Y1179D01*
X1228Y1179D01*
G37*
D02*
G36*
X1438Y1143D02*
X1438Y1107D01*
X1436Y1107D01*
X1436Y1103D01*
X1434Y1103D01*
X1434Y1099D01*
X1432Y1099D01*
X1432Y1097D01*
X1430Y1097D01*
X1430Y1095D01*
X1428Y1095D01*
X1428Y1093D01*
X1426Y1093D01*
X1426Y1091D01*
X1422Y1091D01*
X1422Y1089D01*
X1420Y1089D01*
X1420Y1087D01*
X1418Y1087D01*
X1418Y1083D01*
X1416Y1083D01*
X1416Y1077D01*
X1414Y1077D01*
X1414Y1073D01*
X1412Y1073D01*
X1412Y1069D01*
X1410Y1069D01*
X1410Y1065D01*
X1408Y1065D01*
X1408Y1061D01*
X1406Y1061D01*
X1406Y1057D01*
X1404Y1057D01*
X1404Y1053D01*
X1402Y1053D01*
X1402Y1049D01*
X1400Y1049D01*
X1400Y1045D01*
X1398Y1045D01*
X1398Y1041D01*
X1396Y1041D01*
X1396Y1037D01*
X1394Y1037D01*
X1394Y1033D01*
X1392Y1033D01*
X1392Y1029D01*
X1390Y1029D01*
X1390Y1025D01*
X1388Y1025D01*
X1388Y1019D01*
X1386Y1019D01*
X1386Y1015D01*
X1384Y1015D01*
X1384Y1011D01*
X1382Y1011D01*
X1382Y1007D01*
X1380Y1007D01*
X1380Y1003D01*
X1378Y1003D01*
X1378Y999D01*
X1376Y999D01*
X1376Y995D01*
X1374Y995D01*
X1374Y991D01*
X1372Y991D01*
X1372Y987D01*
X1370Y987D01*
X1370Y983D01*
X1368Y983D01*
X1368Y979D01*
X1366Y979D01*
X1366Y975D01*
X1364Y975D01*
X1364Y971D01*
X1362Y971D01*
X1362Y967D01*
X1360Y967D01*
X1360Y963D01*
X1358Y963D01*
X1358Y957D01*
X1356Y957D01*
X1356Y953D01*
X1354Y953D01*
X1354Y949D01*
X1352Y949D01*
X1352Y945D01*
X1350Y945D01*
X1350Y941D01*
X1348Y941D01*
X1348Y937D01*
X1346Y937D01*
X1346Y933D01*
X1344Y933D01*
X1344Y931D01*
X1450Y931D01*
X1450Y933D01*
X1446Y933D01*
X1446Y935D01*
X1442Y935D01*
X1442Y937D01*
X1440Y937D01*
X1440Y939D01*
X1438Y939D01*
X1438Y941D01*
X1436Y941D01*
X1436Y945D01*
X1434Y945D01*
X1434Y947D01*
X1432Y947D01*
X1432Y953D01*
X1430Y953D01*
X1430Y967D01*
X1432Y967D01*
X1432Y973D01*
X1434Y973D01*
X1434Y975D01*
X1436Y975D01*
X1436Y979D01*
X1438Y979D01*
X1438Y981D01*
X1440Y981D01*
X1440Y983D01*
X1442Y983D01*
X1442Y985D01*
X1446Y985D01*
X1446Y991D01*
X1448Y991D01*
X1448Y997D01*
X1450Y997D01*
X1450Y1003D01*
X1452Y1003D01*
X1452Y1009D01*
X1454Y1009D01*
X1454Y1015D01*
X1456Y1015D01*
X1456Y1021D01*
X1458Y1021D01*
X1458Y1027D01*
X1460Y1027D01*
X1460Y1033D01*
X1462Y1033D01*
X1462Y1039D01*
X1464Y1039D01*
X1464Y1045D01*
X1466Y1045D01*
X1466Y1051D01*
X1468Y1051D01*
X1468Y1057D01*
X1470Y1057D01*
X1470Y1063D01*
X1472Y1063D01*
X1472Y1069D01*
X1474Y1069D01*
X1474Y1075D01*
X1476Y1075D01*
X1476Y1081D01*
X1478Y1081D01*
X1478Y1087D01*
X1480Y1087D01*
X1480Y1117D01*
X1482Y1117D01*
X1482Y1123D01*
X1484Y1123D01*
X1484Y1143D01*
X1438Y1143D01*
G37*
D02*
G36*
X1578Y1139D02*
X1578Y1129D01*
X1988Y1129D01*
X1988Y1131D01*
X1990Y1131D01*
X1990Y1133D01*
X1992Y1133D01*
X1992Y1135D01*
X1996Y1135D01*
X1996Y1137D01*
X2000Y1137D01*
X2000Y1139D01*
X1578Y1139D01*
G37*
D02*
G36*
X88Y1111D02*
X88Y1109D01*
X1192Y1109D01*
X1192Y1111D01*
X88Y1111D01*
G37*
D02*
G36*
X88Y1111D02*
X88Y1109D01*
X1192Y1109D01*
X1192Y1111D01*
X88Y1111D01*
G37*
D02*
G36*
X88Y1109D02*
X88Y1099D01*
X90Y1099D01*
X90Y1097D01*
X92Y1097D01*
X92Y1095D01*
X96Y1095D01*
X96Y1091D01*
X1204Y1091D01*
X1204Y1093D01*
X1200Y1093D01*
X1200Y1095D01*
X1198Y1095D01*
X1198Y1097D01*
X1196Y1097D01*
X1196Y1099D01*
X1194Y1099D01*
X1194Y1103D01*
X1192Y1103D01*
X1192Y1109D01*
X88Y1109D01*
G37*
D02*
G36*
X1326Y1093D02*
X1326Y1091D01*
X1364Y1091D01*
X1364Y1093D01*
X1326Y1093D01*
G37*
D02*
G36*
X1534Y1093D02*
X1534Y1091D01*
X1532Y1091D01*
X1532Y1089D01*
X1530Y1089D01*
X1530Y1087D01*
X1528Y1087D01*
X1528Y1085D01*
X1524Y1085D01*
X1524Y1081D01*
X2000Y1081D01*
X2000Y1083D01*
X1996Y1083D01*
X1996Y1085D01*
X1992Y1085D01*
X1992Y1087D01*
X1990Y1087D01*
X1990Y1089D01*
X1988Y1089D01*
X1988Y1091D01*
X1986Y1091D01*
X1986Y1093D01*
X1534Y1093D01*
G37*
D02*
G36*
X98Y1091D02*
X98Y1089D01*
X1364Y1089D01*
X1364Y1091D01*
X98Y1091D01*
G37*
D02*
G36*
X98Y1091D02*
X98Y1089D01*
X1364Y1089D01*
X1364Y1091D01*
X98Y1091D01*
G37*
D02*
G36*
X100Y1089D02*
X100Y1087D01*
X102Y1087D01*
X102Y1083D01*
X104Y1083D01*
X104Y1081D01*
X318Y1081D01*
X318Y1079D01*
X322Y1079D01*
X322Y1077D01*
X324Y1077D01*
X324Y1075D01*
X326Y1075D01*
X326Y1073D01*
X328Y1073D01*
X328Y1071D01*
X330Y1071D01*
X330Y1067D01*
X332Y1067D01*
X332Y1055D01*
X334Y1055D01*
X334Y1039D01*
X770Y1039D01*
X770Y1037D01*
X774Y1037D01*
X774Y1035D01*
X778Y1035D01*
X778Y1033D01*
X780Y1033D01*
X780Y1031D01*
X782Y1031D01*
X782Y1029D01*
X784Y1029D01*
X784Y1025D01*
X786Y1025D01*
X786Y1023D01*
X788Y1023D01*
X788Y1015D01*
X790Y1015D01*
X790Y1005D01*
X788Y1005D01*
X788Y999D01*
X786Y999D01*
X786Y995D01*
X784Y995D01*
X784Y991D01*
X782Y991D01*
X782Y989D01*
X780Y989D01*
X780Y987D01*
X778Y987D01*
X778Y985D01*
X774Y985D01*
X774Y983D01*
X770Y983D01*
X770Y981D01*
X1320Y981D01*
X1320Y985D01*
X1322Y985D01*
X1322Y989D01*
X1324Y989D01*
X1324Y993D01*
X1326Y993D01*
X1326Y997D01*
X1328Y997D01*
X1328Y1001D01*
X1330Y1001D01*
X1330Y1005D01*
X1332Y1005D01*
X1332Y1009D01*
X1334Y1009D01*
X1334Y1013D01*
X1336Y1013D01*
X1336Y1017D01*
X1338Y1017D01*
X1338Y1021D01*
X1340Y1021D01*
X1340Y1025D01*
X1342Y1025D01*
X1342Y1031D01*
X1344Y1031D01*
X1344Y1035D01*
X1346Y1035D01*
X1346Y1039D01*
X1348Y1039D01*
X1348Y1043D01*
X1350Y1043D01*
X1350Y1047D01*
X1352Y1047D01*
X1352Y1051D01*
X1354Y1051D01*
X1354Y1055D01*
X1356Y1055D01*
X1356Y1059D01*
X1358Y1059D01*
X1358Y1063D01*
X1360Y1063D01*
X1360Y1067D01*
X1362Y1067D01*
X1362Y1071D01*
X1364Y1071D01*
X1364Y1089D01*
X100Y1089D01*
G37*
D02*
G36*
X104Y1081D02*
X104Y1079D01*
X106Y1079D01*
X106Y1073D01*
X108Y1073D01*
X108Y1047D01*
X106Y1047D01*
X106Y1041D01*
X104Y1041D01*
X104Y1037D01*
X102Y1037D01*
X102Y1033D01*
X100Y1033D01*
X100Y1031D01*
X98Y1031D01*
X98Y1029D01*
X96Y1029D01*
X96Y1025D01*
X92Y1025D01*
X92Y1023D01*
X90Y1023D01*
X90Y1021D01*
X88Y1021D01*
X88Y999D01*
X90Y999D01*
X90Y997D01*
X92Y997D01*
X92Y995D01*
X96Y995D01*
X96Y991D01*
X98Y991D01*
X98Y989D01*
X100Y989D01*
X100Y987D01*
X102Y987D01*
X102Y983D01*
X148Y983D01*
X148Y987D01*
X150Y987D01*
X150Y991D01*
X152Y991D01*
X152Y995D01*
X154Y995D01*
X154Y999D01*
X156Y999D01*
X156Y1003D01*
X158Y1003D01*
X158Y1007D01*
X160Y1007D01*
X160Y1011D01*
X162Y1011D01*
X162Y1015D01*
X164Y1015D01*
X164Y1019D01*
X166Y1019D01*
X166Y1023D01*
X168Y1023D01*
X168Y1027D01*
X170Y1027D01*
X170Y1031D01*
X172Y1031D01*
X172Y1035D01*
X174Y1035D01*
X174Y1039D01*
X176Y1039D01*
X176Y1043D01*
X178Y1043D01*
X178Y1047D01*
X180Y1047D01*
X180Y1051D01*
X182Y1051D01*
X182Y1055D01*
X184Y1055D01*
X184Y1059D01*
X186Y1059D01*
X186Y1063D01*
X188Y1063D01*
X188Y1067D01*
X190Y1067D01*
X190Y1071D01*
X192Y1071D01*
X192Y1073D01*
X194Y1073D01*
X194Y1075D01*
X196Y1075D01*
X196Y1077D01*
X198Y1077D01*
X198Y1079D01*
X202Y1079D01*
X202Y1081D01*
X104Y1081D01*
G37*
D02*
G36*
X1524Y1081D02*
X1524Y1079D01*
X2474Y1079D01*
X2474Y1081D01*
X1524Y1081D01*
G37*
D02*
G36*
X1524Y1081D02*
X1524Y1079D01*
X2474Y1079D01*
X2474Y1081D01*
X1524Y1081D01*
G37*
D02*
G36*
X1522Y1079D02*
X1522Y1073D01*
X1520Y1073D01*
X1520Y1067D01*
X1518Y1067D01*
X1518Y1061D01*
X1516Y1061D01*
X1516Y1055D01*
X1514Y1055D01*
X1514Y1049D01*
X1512Y1049D01*
X1512Y1043D01*
X1510Y1043D01*
X1510Y1037D01*
X1508Y1037D01*
X1508Y1031D01*
X1506Y1031D01*
X1506Y1025D01*
X1504Y1025D01*
X1504Y1019D01*
X1502Y1019D01*
X1502Y1013D01*
X1500Y1013D01*
X1500Y1007D01*
X1498Y1007D01*
X1498Y1001D01*
X1496Y1001D01*
X1496Y995D01*
X1494Y995D01*
X1494Y989D01*
X1820Y989D01*
X1820Y987D01*
X1824Y987D01*
X1824Y985D01*
X1828Y985D01*
X1828Y983D01*
X1830Y983D01*
X1830Y981D01*
X1832Y981D01*
X1832Y979D01*
X1834Y979D01*
X1834Y975D01*
X1836Y975D01*
X1836Y973D01*
X1838Y973D01*
X1838Y965D01*
X1840Y965D01*
X1840Y955D01*
X1838Y955D01*
X1838Y949D01*
X1836Y949D01*
X1836Y945D01*
X1834Y945D01*
X1834Y941D01*
X1832Y941D01*
X1832Y881D01*
X2068Y881D01*
X2068Y879D01*
X2072Y879D01*
X2072Y877D01*
X2074Y877D01*
X2074Y875D01*
X2076Y875D01*
X2076Y873D01*
X2078Y873D01*
X2078Y869D01*
X2080Y869D01*
X2080Y863D01*
X2082Y863D01*
X2082Y833D01*
X2084Y833D01*
X2084Y817D01*
X2088Y817D01*
X2088Y815D01*
X2090Y815D01*
X2090Y813D01*
X2094Y813D01*
X2094Y811D01*
X2096Y811D01*
X2096Y809D01*
X2098Y809D01*
X2098Y807D01*
X2100Y807D01*
X2100Y805D01*
X2102Y805D01*
X2102Y803D01*
X2104Y803D01*
X2104Y799D01*
X2106Y799D01*
X2106Y795D01*
X2108Y795D01*
X2108Y791D01*
X2110Y791D01*
X2110Y783D01*
X2112Y783D01*
X2112Y767D01*
X2110Y767D01*
X2110Y759D01*
X2108Y759D01*
X2108Y755D01*
X2106Y755D01*
X2106Y751D01*
X2104Y751D01*
X2104Y747D01*
X2102Y747D01*
X2102Y745D01*
X2100Y745D01*
X2100Y743D01*
X2098Y743D01*
X2098Y741D01*
X2096Y741D01*
X2096Y739D01*
X2094Y739D01*
X2094Y737D01*
X2090Y737D01*
X2090Y735D01*
X2088Y735D01*
X2088Y733D01*
X2084Y733D01*
X2084Y731D01*
X2078Y731D01*
X2078Y729D01*
X2468Y729D01*
X2468Y733D01*
X2470Y733D01*
X2470Y737D01*
X2472Y737D01*
X2472Y739D01*
X2474Y739D01*
X2474Y741D01*
X2476Y741D01*
X2476Y743D01*
X2478Y743D01*
X2478Y745D01*
X2480Y745D01*
X2480Y747D01*
X2482Y747D01*
X2482Y749D01*
X2486Y749D01*
X2486Y771D01*
X2482Y771D01*
X2482Y773D01*
X2480Y773D01*
X2480Y775D01*
X2478Y775D01*
X2478Y777D01*
X2476Y777D01*
X2476Y779D01*
X2474Y779D01*
X2474Y781D01*
X2472Y781D01*
X2472Y783D01*
X2470Y783D01*
X2470Y787D01*
X2468Y787D01*
X2468Y791D01*
X2466Y791D01*
X2466Y797D01*
X2464Y797D01*
X2464Y809D01*
X2462Y809D01*
X2462Y811D01*
X2464Y811D01*
X2464Y823D01*
X2466Y823D01*
X2466Y829D01*
X2468Y829D01*
X2468Y833D01*
X2470Y833D01*
X2470Y837D01*
X2472Y837D01*
X2472Y839D01*
X2474Y839D01*
X2474Y841D01*
X2476Y841D01*
X2476Y843D01*
X2478Y843D01*
X2478Y845D01*
X2480Y845D01*
X2480Y847D01*
X2482Y847D01*
X2482Y849D01*
X2486Y849D01*
X2486Y871D01*
X2482Y871D01*
X2482Y873D01*
X2480Y873D01*
X2480Y875D01*
X2478Y875D01*
X2478Y877D01*
X2476Y877D01*
X2476Y879D01*
X2474Y879D01*
X2474Y881D01*
X2472Y881D01*
X2472Y883D01*
X2470Y883D01*
X2470Y887D01*
X2468Y887D01*
X2468Y891D01*
X2466Y891D01*
X2466Y897D01*
X2464Y897D01*
X2464Y909D01*
X2462Y909D01*
X2462Y911D01*
X2464Y911D01*
X2464Y923D01*
X2466Y923D01*
X2466Y929D01*
X2468Y929D01*
X2468Y933D01*
X2470Y933D01*
X2470Y937D01*
X2472Y937D01*
X2472Y939D01*
X2474Y939D01*
X2474Y941D01*
X2476Y941D01*
X2476Y943D01*
X2478Y943D01*
X2478Y945D01*
X2480Y945D01*
X2480Y947D01*
X2482Y947D01*
X2482Y949D01*
X2486Y949D01*
X2486Y971D01*
X2482Y971D01*
X2482Y973D01*
X2480Y973D01*
X2480Y975D01*
X2478Y975D01*
X2478Y977D01*
X2476Y977D01*
X2476Y979D01*
X2474Y979D01*
X2474Y981D01*
X2472Y981D01*
X2472Y983D01*
X2470Y983D01*
X2470Y987D01*
X2468Y987D01*
X2468Y991D01*
X2466Y991D01*
X2466Y997D01*
X2464Y997D01*
X2464Y1009D01*
X2462Y1009D01*
X2462Y1011D01*
X2464Y1011D01*
X2464Y1023D01*
X2466Y1023D01*
X2466Y1029D01*
X2468Y1029D01*
X2468Y1033D01*
X2470Y1033D01*
X2470Y1037D01*
X2472Y1037D01*
X2472Y1039D01*
X2474Y1039D01*
X2474Y1041D01*
X2476Y1041D01*
X2476Y1043D01*
X2478Y1043D01*
X2478Y1045D01*
X2480Y1045D01*
X2480Y1047D01*
X2482Y1047D01*
X2482Y1049D01*
X2486Y1049D01*
X2486Y1071D01*
X2482Y1071D01*
X2482Y1073D01*
X2480Y1073D01*
X2480Y1075D01*
X2478Y1075D01*
X2478Y1077D01*
X2476Y1077D01*
X2476Y1079D01*
X1522Y1079D01*
G37*
D02*
G36*
X336Y1039D02*
X336Y1023D01*
X338Y1023D01*
X338Y1007D01*
X340Y1007D01*
X340Y991D01*
X342Y991D01*
X342Y981D01*
X750Y981D01*
X750Y983D01*
X746Y983D01*
X746Y985D01*
X742Y985D01*
X742Y987D01*
X740Y987D01*
X740Y989D01*
X738Y989D01*
X738Y991D01*
X736Y991D01*
X736Y995D01*
X734Y995D01*
X734Y997D01*
X732Y997D01*
X732Y1003D01*
X730Y1003D01*
X730Y1017D01*
X732Y1017D01*
X732Y1023D01*
X734Y1023D01*
X734Y1025D01*
X736Y1025D01*
X736Y1029D01*
X738Y1029D01*
X738Y1031D01*
X740Y1031D01*
X740Y1033D01*
X742Y1033D01*
X742Y1035D01*
X746Y1035D01*
X746Y1037D01*
X750Y1037D01*
X750Y1039D01*
X336Y1039D01*
G37*
D02*
G36*
X1492Y989D02*
X1492Y983D01*
X1490Y983D01*
X1490Y955D01*
X1488Y955D01*
X1488Y949D01*
X1486Y949D01*
X1486Y945D01*
X1484Y945D01*
X1484Y941D01*
X1482Y941D01*
X1482Y939D01*
X1480Y939D01*
X1480Y937D01*
X1478Y937D01*
X1478Y935D01*
X1474Y935D01*
X1474Y933D01*
X1470Y933D01*
X1470Y931D01*
X1788Y931D01*
X1788Y941D01*
X1786Y941D01*
X1786Y945D01*
X1784Y945D01*
X1784Y947D01*
X1782Y947D01*
X1782Y953D01*
X1780Y953D01*
X1780Y967D01*
X1782Y967D01*
X1782Y973D01*
X1784Y973D01*
X1784Y975D01*
X1786Y975D01*
X1786Y979D01*
X1788Y979D01*
X1788Y981D01*
X1790Y981D01*
X1790Y983D01*
X1792Y983D01*
X1792Y985D01*
X1796Y985D01*
X1796Y987D01*
X1800Y987D01*
X1800Y989D01*
X1492Y989D01*
G37*
D02*
G36*
X342Y981D02*
X342Y979D01*
X1318Y979D01*
X1318Y981D01*
X342Y981D01*
G37*
D02*
G36*
X342Y981D02*
X342Y979D01*
X1318Y979D01*
X1318Y981D01*
X342Y981D01*
G37*
D02*
G36*
X342Y979D02*
X342Y975D01*
X344Y975D01*
X344Y959D01*
X346Y959D01*
X346Y943D01*
X348Y943D01*
X348Y927D01*
X350Y927D01*
X350Y911D01*
X352Y911D01*
X352Y895D01*
X354Y895D01*
X354Y879D01*
X356Y879D01*
X356Y863D01*
X358Y863D01*
X358Y847D01*
X360Y847D01*
X360Y839D01*
X720Y839D01*
X720Y837D01*
X724Y837D01*
X724Y835D01*
X728Y835D01*
X728Y833D01*
X730Y833D01*
X730Y831D01*
X732Y831D01*
X732Y829D01*
X734Y829D01*
X734Y825D01*
X736Y825D01*
X736Y823D01*
X738Y823D01*
X738Y815D01*
X740Y815D01*
X740Y805D01*
X738Y805D01*
X738Y799D01*
X736Y799D01*
X736Y795D01*
X734Y795D01*
X734Y791D01*
X732Y791D01*
X732Y789D01*
X730Y789D01*
X730Y787D01*
X728Y787D01*
X728Y785D01*
X724Y785D01*
X724Y783D01*
X720Y783D01*
X720Y781D01*
X1152Y781D01*
X1152Y783D01*
X1154Y783D01*
X1154Y785D01*
X1156Y785D01*
X1156Y787D01*
X1158Y787D01*
X1158Y789D01*
X1160Y789D01*
X1160Y791D01*
X1162Y791D01*
X1162Y793D01*
X1164Y793D01*
X1164Y795D01*
X1166Y795D01*
X1166Y797D01*
X1168Y797D01*
X1168Y799D01*
X1170Y799D01*
X1170Y801D01*
X1172Y801D01*
X1172Y803D01*
X1174Y803D01*
X1174Y805D01*
X1176Y805D01*
X1176Y807D01*
X1178Y807D01*
X1178Y809D01*
X1180Y809D01*
X1180Y811D01*
X1182Y811D01*
X1182Y813D01*
X1184Y813D01*
X1184Y815D01*
X1186Y815D01*
X1186Y817D01*
X1188Y817D01*
X1188Y819D01*
X1190Y819D01*
X1190Y821D01*
X1192Y821D01*
X1192Y823D01*
X1194Y823D01*
X1194Y825D01*
X1196Y825D01*
X1196Y827D01*
X1198Y827D01*
X1198Y829D01*
X1200Y829D01*
X1200Y831D01*
X1202Y831D01*
X1202Y833D01*
X1204Y833D01*
X1204Y835D01*
X1206Y835D01*
X1206Y837D01*
X1208Y837D01*
X1208Y839D01*
X1210Y839D01*
X1210Y841D01*
X1212Y841D01*
X1212Y843D01*
X1214Y843D01*
X1214Y845D01*
X1216Y845D01*
X1216Y847D01*
X1218Y847D01*
X1218Y849D01*
X1220Y849D01*
X1220Y851D01*
X1222Y851D01*
X1222Y853D01*
X1224Y853D01*
X1224Y855D01*
X1226Y855D01*
X1226Y857D01*
X1228Y857D01*
X1228Y859D01*
X1230Y859D01*
X1230Y861D01*
X1232Y861D01*
X1232Y863D01*
X1234Y863D01*
X1234Y865D01*
X1236Y865D01*
X1236Y867D01*
X1238Y867D01*
X1238Y869D01*
X1240Y869D01*
X1240Y871D01*
X1242Y871D01*
X1242Y873D01*
X1244Y873D01*
X1244Y875D01*
X1246Y875D01*
X1246Y877D01*
X1248Y877D01*
X1248Y879D01*
X1250Y879D01*
X1250Y881D01*
X1252Y881D01*
X1252Y883D01*
X1254Y883D01*
X1254Y885D01*
X1256Y885D01*
X1256Y887D01*
X1258Y887D01*
X1258Y889D01*
X1260Y889D01*
X1260Y891D01*
X1262Y891D01*
X1262Y893D01*
X1264Y893D01*
X1264Y895D01*
X1266Y895D01*
X1266Y897D01*
X1268Y897D01*
X1268Y899D01*
X1270Y899D01*
X1270Y901D01*
X1272Y901D01*
X1272Y903D01*
X1274Y903D01*
X1274Y905D01*
X1276Y905D01*
X1276Y907D01*
X1278Y907D01*
X1278Y909D01*
X1280Y909D01*
X1280Y911D01*
X1282Y911D01*
X1282Y913D01*
X1284Y913D01*
X1284Y915D01*
X1286Y915D01*
X1286Y917D01*
X1288Y917D01*
X1288Y919D01*
X1290Y919D01*
X1290Y923D01*
X1292Y923D01*
X1292Y927D01*
X1294Y927D01*
X1294Y931D01*
X1296Y931D01*
X1296Y935D01*
X1298Y935D01*
X1298Y939D01*
X1300Y939D01*
X1300Y943D01*
X1302Y943D01*
X1302Y947D01*
X1304Y947D01*
X1304Y951D01*
X1306Y951D01*
X1306Y955D01*
X1308Y955D01*
X1308Y959D01*
X1310Y959D01*
X1310Y963D01*
X1312Y963D01*
X1312Y969D01*
X1314Y969D01*
X1314Y973D01*
X1316Y973D01*
X1316Y977D01*
X1318Y977D01*
X1318Y979D01*
X342Y979D01*
G37*
D02*
G36*
X1344Y931D02*
X1344Y929D01*
X1788Y929D01*
X1788Y931D01*
X1344Y931D01*
G37*
D02*
G36*
X1344Y931D02*
X1344Y929D01*
X1788Y929D01*
X1788Y931D01*
X1344Y931D01*
G37*
D02*
G36*
X1342Y929D02*
X1342Y925D01*
X1340Y925D01*
X1340Y921D01*
X1338Y921D01*
X1338Y917D01*
X1336Y917D01*
X1336Y913D01*
X1334Y913D01*
X1334Y909D01*
X1332Y909D01*
X1332Y903D01*
X1330Y903D01*
X1330Y883D01*
X1788Y883D01*
X1788Y929D01*
X1342Y929D01*
G37*
D02*
G36*
X1832Y881D02*
X1832Y855D01*
X1830Y855D01*
X1830Y833D01*
X1858Y833D01*
X1858Y835D01*
X1862Y835D01*
X1862Y837D01*
X1866Y837D01*
X1866Y839D01*
X1870Y839D01*
X1870Y841D01*
X1874Y841D01*
X1874Y843D01*
X1878Y843D01*
X1878Y845D01*
X1882Y845D01*
X1882Y847D01*
X1886Y847D01*
X1886Y849D01*
X1890Y849D01*
X1890Y851D01*
X1894Y851D01*
X1894Y853D01*
X1898Y853D01*
X1898Y855D01*
X1902Y855D01*
X1902Y857D01*
X1906Y857D01*
X1906Y859D01*
X1910Y859D01*
X1910Y861D01*
X1914Y861D01*
X1914Y863D01*
X1918Y863D01*
X1918Y865D01*
X1922Y865D01*
X1922Y867D01*
X1926Y867D01*
X1926Y869D01*
X1930Y869D01*
X1930Y871D01*
X1934Y871D01*
X1934Y873D01*
X1940Y873D01*
X1940Y875D01*
X1944Y875D01*
X1944Y877D01*
X1948Y877D01*
X1948Y879D01*
X1952Y879D01*
X1952Y881D01*
X1832Y881D01*
G37*
D02*
G36*
X360Y839D02*
X360Y831D01*
X362Y831D01*
X362Y815D01*
X364Y815D01*
X364Y799D01*
X366Y799D01*
X366Y783D01*
X368Y783D01*
X368Y781D01*
X700Y781D01*
X700Y783D01*
X696Y783D01*
X696Y785D01*
X692Y785D01*
X692Y787D01*
X690Y787D01*
X690Y789D01*
X688Y789D01*
X688Y791D01*
X686Y791D01*
X686Y795D01*
X684Y795D01*
X684Y797D01*
X682Y797D01*
X682Y803D01*
X680Y803D01*
X680Y817D01*
X682Y817D01*
X682Y823D01*
X684Y823D01*
X684Y825D01*
X686Y825D01*
X686Y829D01*
X688Y829D01*
X688Y831D01*
X690Y831D01*
X690Y833D01*
X692Y833D01*
X692Y835D01*
X696Y835D01*
X696Y837D01*
X700Y837D01*
X700Y839D01*
X360Y839D01*
G37*
D02*
G36*
X1904Y809D02*
X1904Y807D01*
X1900Y807D01*
X1900Y805D01*
X1896Y805D01*
X1896Y803D01*
X1892Y803D01*
X1892Y801D01*
X1888Y801D01*
X1888Y799D01*
X1884Y799D01*
X1884Y797D01*
X1880Y797D01*
X1880Y795D01*
X1876Y795D01*
X1876Y793D01*
X1872Y793D01*
X1872Y791D01*
X1868Y791D01*
X1868Y789D01*
X1830Y789D01*
X1830Y767D01*
X1832Y767D01*
X1832Y729D01*
X1952Y729D01*
X1952Y731D01*
X1946Y731D01*
X1946Y733D01*
X1942Y733D01*
X1942Y735D01*
X1940Y735D01*
X1940Y737D01*
X1936Y737D01*
X1936Y739D01*
X1934Y739D01*
X1934Y741D01*
X1932Y741D01*
X1932Y743D01*
X1930Y743D01*
X1930Y745D01*
X1928Y745D01*
X1928Y747D01*
X1926Y747D01*
X1926Y751D01*
X1924Y751D01*
X1924Y755D01*
X1922Y755D01*
X1922Y759D01*
X1920Y759D01*
X1920Y765D01*
X1918Y765D01*
X1918Y785D01*
X1920Y785D01*
X1920Y791D01*
X1922Y791D01*
X1922Y795D01*
X1924Y795D01*
X1924Y799D01*
X1926Y799D01*
X1926Y809D01*
X1904Y809D01*
G37*
D02*
G36*
X368Y781D02*
X368Y779D01*
X1150Y779D01*
X1150Y781D01*
X368Y781D01*
G37*
D02*
G36*
X368Y781D02*
X368Y779D01*
X1150Y779D01*
X1150Y781D01*
X368Y781D01*
G37*
D02*
G36*
X368Y779D02*
X368Y767D01*
X370Y767D01*
X370Y751D01*
X372Y751D01*
X372Y735D01*
X374Y735D01*
X374Y719D01*
X376Y719D01*
X376Y703D01*
X378Y703D01*
X378Y687D01*
X380Y687D01*
X380Y683D01*
X1052Y683D01*
X1052Y685D01*
X1054Y685D01*
X1054Y687D01*
X1056Y687D01*
X1056Y689D01*
X1058Y689D01*
X1058Y691D01*
X1060Y691D01*
X1060Y693D01*
X1062Y693D01*
X1062Y695D01*
X1064Y695D01*
X1064Y697D01*
X1066Y697D01*
X1066Y699D01*
X1068Y699D01*
X1068Y701D01*
X1070Y701D01*
X1070Y703D01*
X1072Y703D01*
X1072Y705D01*
X1074Y705D01*
X1074Y707D01*
X1076Y707D01*
X1076Y709D01*
X1078Y709D01*
X1078Y711D01*
X1080Y711D01*
X1080Y713D01*
X1082Y713D01*
X1082Y715D01*
X1084Y715D01*
X1084Y717D01*
X1086Y717D01*
X1086Y719D01*
X1088Y719D01*
X1088Y721D01*
X1092Y721D01*
X1092Y723D01*
X1094Y723D01*
X1094Y725D01*
X1096Y725D01*
X1096Y727D01*
X1098Y727D01*
X1098Y729D01*
X1100Y729D01*
X1100Y731D01*
X1102Y731D01*
X1102Y733D01*
X1104Y733D01*
X1104Y735D01*
X1106Y735D01*
X1106Y737D01*
X1108Y737D01*
X1108Y739D01*
X1110Y739D01*
X1110Y741D01*
X1112Y741D01*
X1112Y743D01*
X1114Y743D01*
X1114Y745D01*
X1116Y745D01*
X1116Y747D01*
X1118Y747D01*
X1118Y749D01*
X1120Y749D01*
X1120Y751D01*
X1122Y751D01*
X1122Y753D01*
X1124Y753D01*
X1124Y755D01*
X1126Y755D01*
X1126Y757D01*
X1128Y757D01*
X1128Y759D01*
X1130Y759D01*
X1130Y761D01*
X1132Y761D01*
X1132Y763D01*
X1134Y763D01*
X1134Y765D01*
X1136Y765D01*
X1136Y767D01*
X1138Y767D01*
X1138Y769D01*
X1140Y769D01*
X1140Y771D01*
X1142Y771D01*
X1142Y773D01*
X1144Y773D01*
X1144Y775D01*
X1146Y775D01*
X1146Y777D01*
X1148Y777D01*
X1148Y779D01*
X368Y779D01*
G37*
D02*
G36*
X2004Y751D02*
X2004Y747D01*
X2002Y747D01*
X2002Y745D01*
X2000Y745D01*
X2000Y743D01*
X1998Y743D01*
X1998Y741D01*
X1996Y741D01*
X1996Y739D01*
X1994Y739D01*
X1994Y737D01*
X1990Y737D01*
X1990Y735D01*
X1988Y735D01*
X1988Y733D01*
X1984Y733D01*
X1984Y731D01*
X1978Y731D01*
X1978Y729D01*
X2052Y729D01*
X2052Y731D01*
X2046Y731D01*
X2046Y733D01*
X2042Y733D01*
X2042Y735D01*
X2040Y735D01*
X2040Y737D01*
X2036Y737D01*
X2036Y739D01*
X2034Y739D01*
X2034Y741D01*
X2032Y741D01*
X2032Y743D01*
X2030Y743D01*
X2030Y745D01*
X2028Y745D01*
X2028Y747D01*
X2026Y747D01*
X2026Y751D01*
X2004Y751D01*
G37*
D02*
G36*
X1832Y729D02*
X1832Y727D01*
X2466Y727D01*
X2466Y729D01*
X1832Y729D01*
G37*
D02*
G36*
X1832Y729D02*
X1832Y727D01*
X2466Y727D01*
X2466Y729D01*
X1832Y729D01*
G37*
D02*
G36*
X1832Y729D02*
X1832Y727D01*
X2466Y727D01*
X2466Y729D01*
X1832Y729D01*
G37*
D02*
G36*
X1832Y727D02*
X1832Y707D01*
X2420Y707D01*
X2420Y705D01*
X2426Y705D01*
X2426Y703D01*
X2430Y703D01*
X2430Y701D01*
X2434Y701D01*
X2434Y699D01*
X2438Y699D01*
X2438Y697D01*
X2440Y697D01*
X2440Y695D01*
X2442Y695D01*
X2442Y693D01*
X2444Y693D01*
X2444Y691D01*
X2446Y691D01*
X2446Y689D01*
X2448Y689D01*
X2448Y685D01*
X2450Y685D01*
X2450Y683D01*
X2452Y683D01*
X2452Y679D01*
X2454Y679D01*
X2454Y673D01*
X2456Y673D01*
X2456Y647D01*
X2454Y647D01*
X2454Y641D01*
X2452Y641D01*
X2452Y637D01*
X2450Y637D01*
X2450Y635D01*
X2448Y635D01*
X2448Y631D01*
X2446Y631D01*
X2446Y629D01*
X2444Y629D01*
X2444Y627D01*
X2442Y627D01*
X2442Y625D01*
X2440Y625D01*
X2440Y623D01*
X2438Y623D01*
X2438Y621D01*
X2434Y621D01*
X2434Y619D01*
X2430Y619D01*
X2430Y617D01*
X2426Y617D01*
X2426Y615D01*
X2418Y615D01*
X2418Y613D01*
X2518Y613D01*
X2518Y663D01*
X2502Y663D01*
X2502Y665D01*
X2494Y665D01*
X2494Y667D01*
X2490Y667D01*
X2490Y669D01*
X2486Y669D01*
X2486Y671D01*
X2482Y671D01*
X2482Y673D01*
X2480Y673D01*
X2480Y675D01*
X2478Y675D01*
X2478Y677D01*
X2476Y677D01*
X2476Y679D01*
X2474Y679D01*
X2474Y681D01*
X2472Y681D01*
X2472Y683D01*
X2470Y683D01*
X2470Y687D01*
X2468Y687D01*
X2468Y691D01*
X2466Y691D01*
X2466Y697D01*
X2464Y697D01*
X2464Y709D01*
X2462Y709D01*
X2462Y711D01*
X2464Y711D01*
X2464Y723D01*
X2466Y723D01*
X2466Y727D01*
X1832Y727D01*
G37*
D02*
G36*
X1832Y707D02*
X1832Y701D01*
X1834Y701D01*
X1834Y699D01*
X1838Y699D01*
X1838Y697D01*
X1840Y697D01*
X1840Y695D01*
X1842Y695D01*
X1842Y693D01*
X1844Y693D01*
X1844Y691D01*
X1846Y691D01*
X1846Y689D01*
X1848Y689D01*
X1848Y685D01*
X1850Y685D01*
X1850Y683D01*
X1870Y683D01*
X1870Y687D01*
X1872Y687D01*
X1872Y689D01*
X1874Y689D01*
X1874Y691D01*
X1876Y691D01*
X1876Y693D01*
X1878Y693D01*
X1878Y695D01*
X1880Y695D01*
X1880Y697D01*
X1882Y697D01*
X1882Y699D01*
X1886Y699D01*
X1886Y701D01*
X1890Y701D01*
X1890Y703D01*
X1894Y703D01*
X1894Y705D01*
X1900Y705D01*
X1900Y707D01*
X1832Y707D01*
G37*
D02*
G36*
X1920Y707D02*
X1920Y705D01*
X1926Y705D01*
X1926Y703D01*
X1930Y703D01*
X1930Y701D01*
X1934Y701D01*
X1934Y699D01*
X1938Y699D01*
X1938Y697D01*
X1940Y697D01*
X1940Y695D01*
X1942Y695D01*
X1942Y693D01*
X1944Y693D01*
X1944Y691D01*
X1946Y691D01*
X1946Y689D01*
X1948Y689D01*
X1948Y685D01*
X1950Y685D01*
X1950Y683D01*
X1970Y683D01*
X1970Y687D01*
X1972Y687D01*
X1972Y689D01*
X1974Y689D01*
X1974Y691D01*
X1976Y691D01*
X1976Y693D01*
X1978Y693D01*
X1978Y695D01*
X1980Y695D01*
X1980Y697D01*
X1982Y697D01*
X1982Y699D01*
X1986Y699D01*
X1986Y701D01*
X1990Y701D01*
X1990Y703D01*
X1994Y703D01*
X1994Y705D01*
X2000Y705D01*
X2000Y707D01*
X1920Y707D01*
G37*
D02*
G36*
X2020Y707D02*
X2020Y705D01*
X2026Y705D01*
X2026Y703D01*
X2030Y703D01*
X2030Y701D01*
X2034Y701D01*
X2034Y699D01*
X2038Y699D01*
X2038Y697D01*
X2040Y697D01*
X2040Y695D01*
X2042Y695D01*
X2042Y693D01*
X2044Y693D01*
X2044Y691D01*
X2046Y691D01*
X2046Y689D01*
X2048Y689D01*
X2048Y685D01*
X2050Y685D01*
X2050Y683D01*
X2070Y683D01*
X2070Y687D01*
X2072Y687D01*
X2072Y689D01*
X2074Y689D01*
X2074Y691D01*
X2076Y691D01*
X2076Y693D01*
X2078Y693D01*
X2078Y695D01*
X2080Y695D01*
X2080Y697D01*
X2082Y697D01*
X2082Y699D01*
X2086Y699D01*
X2086Y701D01*
X2090Y701D01*
X2090Y703D01*
X2094Y703D01*
X2094Y705D01*
X2100Y705D01*
X2100Y707D01*
X2020Y707D01*
G37*
D02*
G36*
X2120Y707D02*
X2120Y705D01*
X2126Y705D01*
X2126Y703D01*
X2130Y703D01*
X2130Y701D01*
X2134Y701D01*
X2134Y699D01*
X2138Y699D01*
X2138Y697D01*
X2140Y697D01*
X2140Y695D01*
X2142Y695D01*
X2142Y693D01*
X2144Y693D01*
X2144Y691D01*
X2146Y691D01*
X2146Y689D01*
X2148Y689D01*
X2148Y685D01*
X2150Y685D01*
X2150Y683D01*
X2170Y683D01*
X2170Y687D01*
X2172Y687D01*
X2172Y689D01*
X2174Y689D01*
X2174Y691D01*
X2176Y691D01*
X2176Y693D01*
X2178Y693D01*
X2178Y695D01*
X2180Y695D01*
X2180Y697D01*
X2182Y697D01*
X2182Y699D01*
X2186Y699D01*
X2186Y701D01*
X2190Y701D01*
X2190Y703D01*
X2194Y703D01*
X2194Y705D01*
X2200Y705D01*
X2200Y707D01*
X2120Y707D01*
G37*
D02*
G36*
X2220Y707D02*
X2220Y705D01*
X2226Y705D01*
X2226Y703D01*
X2230Y703D01*
X2230Y701D01*
X2234Y701D01*
X2234Y699D01*
X2238Y699D01*
X2238Y697D01*
X2240Y697D01*
X2240Y695D01*
X2242Y695D01*
X2242Y693D01*
X2244Y693D01*
X2244Y691D01*
X2246Y691D01*
X2246Y689D01*
X2248Y689D01*
X2248Y685D01*
X2250Y685D01*
X2250Y683D01*
X2270Y683D01*
X2270Y687D01*
X2272Y687D01*
X2272Y689D01*
X2274Y689D01*
X2274Y691D01*
X2276Y691D01*
X2276Y693D01*
X2278Y693D01*
X2278Y695D01*
X2280Y695D01*
X2280Y697D01*
X2282Y697D01*
X2282Y699D01*
X2286Y699D01*
X2286Y701D01*
X2290Y701D01*
X2290Y703D01*
X2294Y703D01*
X2294Y705D01*
X2300Y705D01*
X2300Y707D01*
X2220Y707D01*
G37*
D02*
G36*
X2320Y707D02*
X2320Y705D01*
X2326Y705D01*
X2326Y703D01*
X2330Y703D01*
X2330Y701D01*
X2334Y701D01*
X2334Y699D01*
X2338Y699D01*
X2338Y697D01*
X2340Y697D01*
X2340Y695D01*
X2342Y695D01*
X2342Y693D01*
X2344Y693D01*
X2344Y691D01*
X2346Y691D01*
X2346Y689D01*
X2348Y689D01*
X2348Y685D01*
X2350Y685D01*
X2350Y683D01*
X2370Y683D01*
X2370Y687D01*
X2372Y687D01*
X2372Y689D01*
X2374Y689D01*
X2374Y691D01*
X2376Y691D01*
X2376Y693D01*
X2378Y693D01*
X2378Y695D01*
X2380Y695D01*
X2380Y697D01*
X2382Y697D01*
X2382Y699D01*
X2386Y699D01*
X2386Y701D01*
X2390Y701D01*
X2390Y703D01*
X2394Y703D01*
X2394Y705D01*
X2400Y705D01*
X2400Y707D01*
X2320Y707D01*
G37*
D02*
G36*
X1244Y665D02*
X1244Y663D01*
X1242Y663D01*
X1242Y661D01*
X1240Y661D01*
X1240Y659D01*
X1238Y659D01*
X1238Y657D01*
X1236Y657D01*
X1236Y655D01*
X1234Y655D01*
X1234Y653D01*
X1232Y653D01*
X1232Y651D01*
X1230Y651D01*
X1230Y649D01*
X1228Y649D01*
X1228Y647D01*
X1226Y647D01*
X1226Y645D01*
X1224Y645D01*
X1224Y643D01*
X1222Y643D01*
X1222Y641D01*
X1220Y641D01*
X1220Y639D01*
X1218Y639D01*
X1218Y637D01*
X1216Y637D01*
X1216Y635D01*
X1214Y635D01*
X1214Y633D01*
X1212Y633D01*
X1212Y631D01*
X1210Y631D01*
X1210Y629D01*
X1208Y629D01*
X1208Y627D01*
X1206Y627D01*
X1206Y625D01*
X1204Y625D01*
X1204Y623D01*
X1202Y623D01*
X1202Y621D01*
X1200Y621D01*
X1200Y619D01*
X1198Y619D01*
X1198Y617D01*
X1196Y617D01*
X1196Y615D01*
X1194Y615D01*
X1194Y613D01*
X1302Y613D01*
X1302Y615D01*
X1294Y615D01*
X1294Y617D01*
X1290Y617D01*
X1290Y619D01*
X1286Y619D01*
X1286Y621D01*
X1282Y621D01*
X1282Y623D01*
X1280Y623D01*
X1280Y625D01*
X1278Y625D01*
X1278Y627D01*
X1276Y627D01*
X1276Y629D01*
X1274Y629D01*
X1274Y631D01*
X1272Y631D01*
X1272Y633D01*
X1270Y633D01*
X1270Y637D01*
X1268Y637D01*
X1268Y641D01*
X1266Y641D01*
X1266Y647D01*
X1264Y647D01*
X1264Y659D01*
X1262Y659D01*
X1262Y661D01*
X1264Y661D01*
X1264Y665D01*
X1244Y665D01*
G37*
D02*
G36*
X1350Y637D02*
X1350Y635D01*
X1348Y635D01*
X1348Y631D01*
X1346Y631D01*
X1346Y629D01*
X1344Y629D01*
X1344Y627D01*
X1342Y627D01*
X1342Y625D01*
X1340Y625D01*
X1340Y623D01*
X1338Y623D01*
X1338Y621D01*
X1334Y621D01*
X1334Y619D01*
X1330Y619D01*
X1330Y617D01*
X1326Y617D01*
X1326Y615D01*
X1318Y615D01*
X1318Y613D01*
X1402Y613D01*
X1402Y615D01*
X1394Y615D01*
X1394Y617D01*
X1390Y617D01*
X1390Y619D01*
X1386Y619D01*
X1386Y621D01*
X1382Y621D01*
X1382Y623D01*
X1380Y623D01*
X1380Y625D01*
X1378Y625D01*
X1378Y627D01*
X1376Y627D01*
X1376Y629D01*
X1374Y629D01*
X1374Y631D01*
X1372Y631D01*
X1372Y633D01*
X1370Y633D01*
X1370Y637D01*
X1350Y637D01*
G37*
D02*
G36*
X1450Y637D02*
X1450Y635D01*
X1448Y635D01*
X1448Y631D01*
X1446Y631D01*
X1446Y629D01*
X1444Y629D01*
X1444Y627D01*
X1442Y627D01*
X1442Y625D01*
X1440Y625D01*
X1440Y623D01*
X1438Y623D01*
X1438Y621D01*
X1434Y621D01*
X1434Y619D01*
X1430Y619D01*
X1430Y617D01*
X1426Y617D01*
X1426Y615D01*
X1418Y615D01*
X1418Y613D01*
X1502Y613D01*
X1502Y615D01*
X1494Y615D01*
X1494Y617D01*
X1490Y617D01*
X1490Y619D01*
X1486Y619D01*
X1486Y621D01*
X1482Y621D01*
X1482Y623D01*
X1480Y623D01*
X1480Y625D01*
X1478Y625D01*
X1478Y627D01*
X1476Y627D01*
X1476Y629D01*
X1474Y629D01*
X1474Y631D01*
X1472Y631D01*
X1472Y633D01*
X1470Y633D01*
X1470Y637D01*
X1450Y637D01*
G37*
D02*
G36*
X1550Y637D02*
X1550Y635D01*
X1548Y635D01*
X1548Y631D01*
X1546Y631D01*
X1546Y629D01*
X1544Y629D01*
X1544Y627D01*
X1542Y627D01*
X1542Y625D01*
X1540Y625D01*
X1540Y623D01*
X1538Y623D01*
X1538Y621D01*
X1534Y621D01*
X1534Y619D01*
X1530Y619D01*
X1530Y617D01*
X1526Y617D01*
X1526Y615D01*
X1518Y615D01*
X1518Y613D01*
X1602Y613D01*
X1602Y615D01*
X1594Y615D01*
X1594Y617D01*
X1590Y617D01*
X1590Y619D01*
X1586Y619D01*
X1586Y621D01*
X1582Y621D01*
X1582Y623D01*
X1580Y623D01*
X1580Y625D01*
X1578Y625D01*
X1578Y627D01*
X1576Y627D01*
X1576Y629D01*
X1574Y629D01*
X1574Y631D01*
X1572Y631D01*
X1572Y633D01*
X1570Y633D01*
X1570Y637D01*
X1550Y637D01*
G37*
D02*
G36*
X1650Y637D02*
X1650Y635D01*
X1648Y635D01*
X1648Y631D01*
X1646Y631D01*
X1646Y629D01*
X1644Y629D01*
X1644Y627D01*
X1642Y627D01*
X1642Y625D01*
X1640Y625D01*
X1640Y623D01*
X1638Y623D01*
X1638Y621D01*
X1634Y621D01*
X1634Y619D01*
X1630Y619D01*
X1630Y617D01*
X1626Y617D01*
X1626Y615D01*
X1618Y615D01*
X1618Y613D01*
X1702Y613D01*
X1702Y615D01*
X1694Y615D01*
X1694Y617D01*
X1690Y617D01*
X1690Y619D01*
X1686Y619D01*
X1686Y621D01*
X1682Y621D01*
X1682Y623D01*
X1680Y623D01*
X1680Y625D01*
X1678Y625D01*
X1678Y627D01*
X1676Y627D01*
X1676Y629D01*
X1674Y629D01*
X1674Y631D01*
X1672Y631D01*
X1672Y633D01*
X1670Y633D01*
X1670Y637D01*
X1650Y637D01*
G37*
D02*
G36*
X1750Y637D02*
X1750Y635D01*
X1748Y635D01*
X1748Y631D01*
X1746Y631D01*
X1746Y629D01*
X1744Y629D01*
X1744Y627D01*
X1742Y627D01*
X1742Y625D01*
X1740Y625D01*
X1740Y623D01*
X1738Y623D01*
X1738Y621D01*
X1734Y621D01*
X1734Y619D01*
X1730Y619D01*
X1730Y617D01*
X1726Y617D01*
X1726Y615D01*
X1718Y615D01*
X1718Y613D01*
X1802Y613D01*
X1802Y615D01*
X1794Y615D01*
X1794Y617D01*
X1790Y617D01*
X1790Y619D01*
X1786Y619D01*
X1786Y621D01*
X1782Y621D01*
X1782Y623D01*
X1780Y623D01*
X1780Y625D01*
X1778Y625D01*
X1778Y627D01*
X1776Y627D01*
X1776Y629D01*
X1774Y629D01*
X1774Y631D01*
X1772Y631D01*
X1772Y633D01*
X1770Y633D01*
X1770Y637D01*
X1750Y637D01*
G37*
D02*
G36*
X1850Y637D02*
X1850Y635D01*
X1848Y635D01*
X1848Y631D01*
X1846Y631D01*
X1846Y629D01*
X1844Y629D01*
X1844Y627D01*
X1842Y627D01*
X1842Y625D01*
X1840Y625D01*
X1840Y623D01*
X1838Y623D01*
X1838Y621D01*
X1834Y621D01*
X1834Y619D01*
X1830Y619D01*
X1830Y617D01*
X1826Y617D01*
X1826Y615D01*
X1818Y615D01*
X1818Y613D01*
X1902Y613D01*
X1902Y615D01*
X1894Y615D01*
X1894Y617D01*
X1890Y617D01*
X1890Y619D01*
X1886Y619D01*
X1886Y621D01*
X1882Y621D01*
X1882Y623D01*
X1880Y623D01*
X1880Y625D01*
X1878Y625D01*
X1878Y627D01*
X1876Y627D01*
X1876Y629D01*
X1874Y629D01*
X1874Y631D01*
X1872Y631D01*
X1872Y633D01*
X1870Y633D01*
X1870Y637D01*
X1850Y637D01*
G37*
D02*
G36*
X1950Y637D02*
X1950Y635D01*
X1948Y635D01*
X1948Y631D01*
X1946Y631D01*
X1946Y629D01*
X1944Y629D01*
X1944Y627D01*
X1942Y627D01*
X1942Y625D01*
X1940Y625D01*
X1940Y623D01*
X1938Y623D01*
X1938Y621D01*
X1934Y621D01*
X1934Y619D01*
X1930Y619D01*
X1930Y617D01*
X1926Y617D01*
X1926Y615D01*
X1918Y615D01*
X1918Y613D01*
X2002Y613D01*
X2002Y615D01*
X1994Y615D01*
X1994Y617D01*
X1990Y617D01*
X1990Y619D01*
X1986Y619D01*
X1986Y621D01*
X1982Y621D01*
X1982Y623D01*
X1980Y623D01*
X1980Y625D01*
X1978Y625D01*
X1978Y627D01*
X1976Y627D01*
X1976Y629D01*
X1974Y629D01*
X1974Y631D01*
X1972Y631D01*
X1972Y633D01*
X1970Y633D01*
X1970Y637D01*
X1950Y637D01*
G37*
D02*
G36*
X2050Y637D02*
X2050Y635D01*
X2048Y635D01*
X2048Y631D01*
X2046Y631D01*
X2046Y629D01*
X2044Y629D01*
X2044Y627D01*
X2042Y627D01*
X2042Y625D01*
X2040Y625D01*
X2040Y623D01*
X2038Y623D01*
X2038Y621D01*
X2034Y621D01*
X2034Y619D01*
X2030Y619D01*
X2030Y617D01*
X2026Y617D01*
X2026Y615D01*
X2018Y615D01*
X2018Y613D01*
X2102Y613D01*
X2102Y615D01*
X2094Y615D01*
X2094Y617D01*
X2090Y617D01*
X2090Y619D01*
X2086Y619D01*
X2086Y621D01*
X2082Y621D01*
X2082Y623D01*
X2080Y623D01*
X2080Y625D01*
X2078Y625D01*
X2078Y627D01*
X2076Y627D01*
X2076Y629D01*
X2074Y629D01*
X2074Y631D01*
X2072Y631D01*
X2072Y633D01*
X2070Y633D01*
X2070Y637D01*
X2050Y637D01*
G37*
D02*
G36*
X2150Y637D02*
X2150Y635D01*
X2148Y635D01*
X2148Y631D01*
X2146Y631D01*
X2146Y629D01*
X2144Y629D01*
X2144Y627D01*
X2142Y627D01*
X2142Y625D01*
X2140Y625D01*
X2140Y623D01*
X2138Y623D01*
X2138Y621D01*
X2134Y621D01*
X2134Y619D01*
X2130Y619D01*
X2130Y617D01*
X2126Y617D01*
X2126Y615D01*
X2118Y615D01*
X2118Y613D01*
X2202Y613D01*
X2202Y615D01*
X2194Y615D01*
X2194Y617D01*
X2190Y617D01*
X2190Y619D01*
X2186Y619D01*
X2186Y621D01*
X2182Y621D01*
X2182Y623D01*
X2180Y623D01*
X2180Y625D01*
X2178Y625D01*
X2178Y627D01*
X2176Y627D01*
X2176Y629D01*
X2174Y629D01*
X2174Y631D01*
X2172Y631D01*
X2172Y633D01*
X2170Y633D01*
X2170Y637D01*
X2150Y637D01*
G37*
D02*
G36*
X2250Y637D02*
X2250Y635D01*
X2248Y635D01*
X2248Y631D01*
X2246Y631D01*
X2246Y629D01*
X2244Y629D01*
X2244Y627D01*
X2242Y627D01*
X2242Y625D01*
X2240Y625D01*
X2240Y623D01*
X2238Y623D01*
X2238Y621D01*
X2234Y621D01*
X2234Y619D01*
X2230Y619D01*
X2230Y617D01*
X2226Y617D01*
X2226Y615D01*
X2218Y615D01*
X2218Y613D01*
X2302Y613D01*
X2302Y615D01*
X2294Y615D01*
X2294Y617D01*
X2290Y617D01*
X2290Y619D01*
X2286Y619D01*
X2286Y621D01*
X2282Y621D01*
X2282Y623D01*
X2280Y623D01*
X2280Y625D01*
X2278Y625D01*
X2278Y627D01*
X2276Y627D01*
X2276Y629D01*
X2274Y629D01*
X2274Y631D01*
X2272Y631D01*
X2272Y633D01*
X2270Y633D01*
X2270Y637D01*
X2250Y637D01*
G37*
D02*
G36*
X2350Y637D02*
X2350Y635D01*
X2348Y635D01*
X2348Y631D01*
X2346Y631D01*
X2346Y629D01*
X2344Y629D01*
X2344Y627D01*
X2342Y627D01*
X2342Y625D01*
X2340Y625D01*
X2340Y623D01*
X2338Y623D01*
X2338Y621D01*
X2334Y621D01*
X2334Y619D01*
X2330Y619D01*
X2330Y617D01*
X2326Y617D01*
X2326Y615D01*
X2318Y615D01*
X2318Y613D01*
X2402Y613D01*
X2402Y615D01*
X2394Y615D01*
X2394Y617D01*
X2390Y617D01*
X2390Y619D01*
X2386Y619D01*
X2386Y621D01*
X2382Y621D01*
X2382Y623D01*
X2380Y623D01*
X2380Y625D01*
X2378Y625D01*
X2378Y627D01*
X2376Y627D01*
X2376Y629D01*
X2374Y629D01*
X2374Y631D01*
X2372Y631D01*
X2372Y633D01*
X2370Y633D01*
X2370Y637D01*
X2350Y637D01*
G37*
D02*
G36*
X1192Y613D02*
X1192Y611D01*
X2518Y611D01*
X2518Y613D01*
X1192Y613D01*
G37*
D02*
G36*
X1192Y613D02*
X1192Y611D01*
X2518Y611D01*
X2518Y613D01*
X1192Y613D01*
G37*
D02*
G36*
X1192Y613D02*
X1192Y611D01*
X2518Y611D01*
X2518Y613D01*
X1192Y613D01*
G37*
D02*
G36*
X1192Y613D02*
X1192Y611D01*
X2518Y611D01*
X2518Y613D01*
X1192Y613D01*
G37*
D02*
G36*
X1192Y613D02*
X1192Y611D01*
X2518Y611D01*
X2518Y613D01*
X1192Y613D01*
G37*
D02*
G36*
X1192Y613D02*
X1192Y611D01*
X2518Y611D01*
X2518Y613D01*
X1192Y613D01*
G37*
D02*
G36*
X1192Y613D02*
X1192Y611D01*
X2518Y611D01*
X2518Y613D01*
X1192Y613D01*
G37*
D02*
G36*
X1192Y613D02*
X1192Y611D01*
X2518Y611D01*
X2518Y613D01*
X1192Y613D01*
G37*
D02*
G36*
X1192Y613D02*
X1192Y611D01*
X2518Y611D01*
X2518Y613D01*
X1192Y613D01*
G37*
D02*
G36*
X1192Y613D02*
X1192Y611D01*
X2518Y611D01*
X2518Y613D01*
X1192Y613D01*
G37*
D02*
G36*
X1192Y613D02*
X1192Y611D01*
X2518Y611D01*
X2518Y613D01*
X1192Y613D01*
G37*
D02*
G36*
X1192Y613D02*
X1192Y611D01*
X2518Y611D01*
X2518Y613D01*
X1192Y613D01*
G37*
D02*
G36*
X1192Y613D02*
X1192Y611D01*
X2518Y611D01*
X2518Y613D01*
X1192Y613D01*
G37*
D02*
G36*
X1190Y611D02*
X1190Y609D01*
X1188Y609D01*
X1188Y607D01*
X1186Y607D01*
X1186Y605D01*
X1184Y605D01*
X1184Y603D01*
X1182Y603D01*
X1182Y601D01*
X1180Y601D01*
X1180Y599D01*
X1178Y599D01*
X1178Y597D01*
X1176Y597D01*
X1176Y595D01*
X1174Y595D01*
X1174Y593D01*
X1172Y593D01*
X1172Y591D01*
X1170Y591D01*
X1170Y589D01*
X1168Y589D01*
X1168Y587D01*
X1166Y587D01*
X1166Y585D01*
X1164Y585D01*
X1164Y583D01*
X1162Y583D01*
X1162Y581D01*
X1160Y581D01*
X1160Y579D01*
X1158Y579D01*
X1158Y577D01*
X1156Y577D01*
X1156Y575D01*
X1154Y575D01*
X1154Y573D01*
X1152Y573D01*
X1152Y571D01*
X1150Y571D01*
X1150Y569D01*
X1148Y569D01*
X1148Y567D01*
X1146Y567D01*
X1146Y565D01*
X1144Y565D01*
X1144Y563D01*
X1142Y563D01*
X1142Y561D01*
X1140Y561D01*
X1140Y559D01*
X1138Y559D01*
X1138Y557D01*
X1136Y557D01*
X1136Y555D01*
X1134Y555D01*
X1134Y553D01*
X1132Y553D01*
X1132Y551D01*
X1130Y551D01*
X1130Y549D01*
X1128Y549D01*
X1128Y547D01*
X1126Y547D01*
X1126Y545D01*
X1124Y545D01*
X1124Y543D01*
X1122Y543D01*
X1122Y541D01*
X1120Y541D01*
X1120Y539D01*
X1118Y539D01*
X1118Y537D01*
X1116Y537D01*
X1116Y535D01*
X1114Y535D01*
X1114Y533D01*
X1112Y533D01*
X1112Y531D01*
X1110Y531D01*
X1110Y529D01*
X1108Y529D01*
X1108Y527D01*
X1106Y527D01*
X1106Y525D01*
X1104Y525D01*
X1104Y523D01*
X1102Y523D01*
X1102Y521D01*
X1100Y521D01*
X1100Y519D01*
X1098Y519D01*
X1098Y517D01*
X1096Y517D01*
X1096Y515D01*
X1094Y515D01*
X1094Y513D01*
X1092Y513D01*
X1092Y511D01*
X1090Y511D01*
X1090Y509D01*
X1088Y509D01*
X1088Y507D01*
X1086Y507D01*
X1086Y505D01*
X1084Y505D01*
X1084Y503D01*
X1082Y503D01*
X1082Y489D01*
X2120Y489D01*
X2120Y487D01*
X2124Y487D01*
X2124Y485D01*
X2128Y485D01*
X2128Y483D01*
X2130Y483D01*
X2130Y481D01*
X2132Y481D01*
X2132Y479D01*
X2134Y479D01*
X2134Y475D01*
X2136Y475D01*
X2136Y473D01*
X2138Y473D01*
X2138Y465D01*
X2140Y465D01*
X2140Y455D01*
X2138Y455D01*
X2138Y449D01*
X2136Y449D01*
X2136Y445D01*
X2134Y445D01*
X2134Y441D01*
X2132Y441D01*
X2132Y439D01*
X2130Y439D01*
X2130Y437D01*
X2128Y437D01*
X2128Y435D01*
X2124Y435D01*
X2124Y433D01*
X2120Y433D01*
X2120Y431D01*
X2518Y431D01*
X2518Y611D01*
X1190Y611D01*
G37*
D02*
G36*
X426Y537D02*
X426Y531D01*
X424Y531D01*
X424Y523D01*
X422Y523D01*
X422Y515D01*
X420Y515D01*
X420Y509D01*
X570Y509D01*
X570Y507D01*
X576Y507D01*
X576Y505D01*
X582Y505D01*
X582Y503D01*
X584Y503D01*
X584Y501D01*
X588Y501D01*
X588Y499D01*
X590Y499D01*
X590Y497D01*
X592Y497D01*
X592Y495D01*
X596Y495D01*
X596Y491D01*
X598Y491D01*
X598Y489D01*
X600Y489D01*
X600Y487D01*
X602Y487D01*
X602Y483D01*
X604Y483D01*
X604Y479D01*
X606Y479D01*
X606Y473D01*
X608Y473D01*
X608Y447D01*
X606Y447D01*
X606Y441D01*
X604Y441D01*
X604Y437D01*
X602Y437D01*
X602Y433D01*
X600Y433D01*
X600Y431D01*
X598Y431D01*
X598Y429D01*
X596Y429D01*
X596Y425D01*
X592Y425D01*
X592Y423D01*
X590Y423D01*
X590Y421D01*
X588Y421D01*
X588Y399D01*
X590Y399D01*
X590Y397D01*
X592Y397D01*
X592Y395D01*
X596Y395D01*
X596Y391D01*
X598Y391D01*
X598Y389D01*
X600Y389D01*
X600Y387D01*
X602Y387D01*
X602Y383D01*
X604Y383D01*
X604Y379D01*
X606Y379D01*
X606Y373D01*
X608Y373D01*
X608Y347D01*
X606Y347D01*
X606Y341D01*
X604Y341D01*
X604Y337D01*
X602Y337D01*
X602Y333D01*
X600Y333D01*
X600Y331D01*
X598Y331D01*
X598Y329D01*
X596Y329D01*
X596Y325D01*
X592Y325D01*
X592Y323D01*
X590Y323D01*
X590Y321D01*
X588Y321D01*
X588Y299D01*
X590Y299D01*
X590Y297D01*
X592Y297D01*
X592Y295D01*
X596Y295D01*
X596Y291D01*
X598Y291D01*
X598Y289D01*
X600Y289D01*
X600Y287D01*
X602Y287D01*
X602Y283D01*
X638Y283D01*
X638Y515D01*
X640Y515D01*
X640Y537D01*
X426Y537D01*
G37*
D02*
G36*
X420Y509D02*
X420Y507D01*
X418Y507D01*
X418Y499D01*
X416Y499D01*
X416Y491D01*
X414Y491D01*
X414Y483D01*
X412Y483D01*
X412Y475D01*
X410Y475D01*
X410Y467D01*
X408Y467D01*
X408Y459D01*
X406Y459D01*
X406Y451D01*
X404Y451D01*
X404Y443D01*
X402Y443D01*
X402Y433D01*
X400Y433D01*
X400Y425D01*
X398Y425D01*
X398Y417D01*
X396Y417D01*
X396Y409D01*
X394Y409D01*
X394Y401D01*
X392Y401D01*
X392Y393D01*
X390Y393D01*
X390Y385D01*
X388Y385D01*
X388Y377D01*
X386Y377D01*
X386Y369D01*
X384Y369D01*
X384Y361D01*
X382Y361D01*
X382Y353D01*
X380Y353D01*
X380Y349D01*
X378Y349D01*
X378Y345D01*
X376Y345D01*
X376Y343D01*
X374Y343D01*
X374Y341D01*
X370Y341D01*
X370Y339D01*
X364Y339D01*
X364Y337D01*
X40Y337D01*
X40Y189D01*
X270Y189D01*
X270Y187D01*
X274Y187D01*
X274Y185D01*
X278Y185D01*
X278Y183D01*
X280Y183D01*
X280Y181D01*
X282Y181D01*
X282Y179D01*
X284Y179D01*
X284Y175D01*
X286Y175D01*
X286Y173D01*
X288Y173D01*
X288Y165D01*
X290Y165D01*
X290Y155D01*
X288Y155D01*
X288Y149D01*
X286Y149D01*
X286Y145D01*
X284Y145D01*
X284Y141D01*
X282Y141D01*
X282Y111D01*
X552Y111D01*
X552Y113D01*
X544Y113D01*
X544Y115D01*
X538Y115D01*
X538Y117D01*
X536Y117D01*
X536Y119D01*
X532Y119D01*
X532Y121D01*
X530Y121D01*
X530Y123D01*
X528Y123D01*
X528Y125D01*
X524Y125D01*
X524Y129D01*
X522Y129D01*
X522Y131D01*
X520Y131D01*
X520Y133D01*
X518Y133D01*
X518Y137D01*
X516Y137D01*
X516Y141D01*
X514Y141D01*
X514Y147D01*
X512Y147D01*
X512Y159D01*
X510Y159D01*
X510Y161D01*
X512Y161D01*
X512Y173D01*
X514Y173D01*
X514Y179D01*
X516Y179D01*
X516Y183D01*
X518Y183D01*
X518Y187D01*
X520Y187D01*
X520Y189D01*
X522Y189D01*
X522Y191D01*
X524Y191D01*
X524Y195D01*
X526Y195D01*
X526Y197D01*
X530Y197D01*
X530Y199D01*
X532Y199D01*
X532Y221D01*
X530Y221D01*
X530Y223D01*
X528Y223D01*
X528Y225D01*
X524Y225D01*
X524Y229D01*
X522Y229D01*
X522Y231D01*
X520Y231D01*
X520Y233D01*
X518Y233D01*
X518Y237D01*
X516Y237D01*
X516Y241D01*
X514Y241D01*
X514Y247D01*
X512Y247D01*
X512Y259D01*
X510Y259D01*
X510Y261D01*
X512Y261D01*
X512Y273D01*
X514Y273D01*
X514Y279D01*
X516Y279D01*
X516Y283D01*
X518Y283D01*
X518Y287D01*
X520Y287D01*
X520Y289D01*
X522Y289D01*
X522Y291D01*
X524Y291D01*
X524Y295D01*
X526Y295D01*
X526Y297D01*
X530Y297D01*
X530Y299D01*
X532Y299D01*
X532Y321D01*
X530Y321D01*
X530Y323D01*
X528Y323D01*
X528Y325D01*
X524Y325D01*
X524Y329D01*
X522Y329D01*
X522Y331D01*
X520Y331D01*
X520Y333D01*
X518Y333D01*
X518Y337D01*
X516Y337D01*
X516Y341D01*
X514Y341D01*
X514Y347D01*
X512Y347D01*
X512Y359D01*
X510Y359D01*
X510Y361D01*
X512Y361D01*
X512Y373D01*
X514Y373D01*
X514Y379D01*
X516Y379D01*
X516Y383D01*
X518Y383D01*
X518Y387D01*
X520Y387D01*
X520Y389D01*
X522Y389D01*
X522Y391D01*
X524Y391D01*
X524Y395D01*
X526Y395D01*
X526Y397D01*
X530Y397D01*
X530Y399D01*
X532Y399D01*
X532Y421D01*
X530Y421D01*
X530Y423D01*
X528Y423D01*
X528Y425D01*
X524Y425D01*
X524Y429D01*
X522Y429D01*
X522Y431D01*
X520Y431D01*
X520Y433D01*
X518Y433D01*
X518Y437D01*
X516Y437D01*
X516Y441D01*
X514Y441D01*
X514Y447D01*
X512Y447D01*
X512Y459D01*
X510Y459D01*
X510Y461D01*
X512Y461D01*
X512Y473D01*
X514Y473D01*
X514Y479D01*
X516Y479D01*
X516Y483D01*
X518Y483D01*
X518Y487D01*
X520Y487D01*
X520Y489D01*
X522Y489D01*
X522Y491D01*
X524Y491D01*
X524Y495D01*
X526Y495D01*
X526Y497D01*
X530Y497D01*
X530Y499D01*
X532Y499D01*
X532Y501D01*
X536Y501D01*
X536Y503D01*
X538Y503D01*
X538Y505D01*
X544Y505D01*
X544Y507D01*
X550Y507D01*
X550Y509D01*
X420Y509D01*
G37*
D02*
G36*
X1082Y489D02*
X1082Y483D01*
X2092Y483D01*
X2092Y485D01*
X2096Y485D01*
X2096Y487D01*
X2100Y487D01*
X2100Y489D01*
X1082Y489D01*
G37*
D02*
G36*
X730Y439D02*
X730Y437D01*
X728Y437D01*
X728Y435D01*
X724Y435D01*
X724Y433D01*
X720Y433D01*
X720Y431D01*
X2100Y431D01*
X2100Y433D01*
X2096Y433D01*
X2096Y435D01*
X2092Y435D01*
X2092Y437D01*
X2090Y437D01*
X2090Y439D01*
X730Y439D01*
G37*
D02*
G36*
X682Y431D02*
X682Y429D01*
X2518Y429D01*
X2518Y431D01*
X682Y431D01*
G37*
D02*
G36*
X682Y431D02*
X682Y429D01*
X2518Y429D01*
X2518Y431D01*
X682Y431D01*
G37*
D02*
G36*
X682Y429D02*
X682Y391D01*
X1778Y391D01*
X1778Y389D01*
X1786Y389D01*
X1786Y387D01*
X1790Y387D01*
X1790Y385D01*
X1794Y385D01*
X1794Y383D01*
X1796Y383D01*
X1796Y381D01*
X1798Y381D01*
X1798Y377D01*
X1800Y377D01*
X1800Y375D01*
X1802Y375D01*
X1802Y369D01*
X1804Y369D01*
X1804Y351D01*
X1802Y351D01*
X1802Y347D01*
X1800Y347D01*
X1800Y343D01*
X1798Y343D01*
X1798Y341D01*
X1796Y341D01*
X1796Y339D01*
X1794Y339D01*
X1794Y337D01*
X1792Y337D01*
X1792Y335D01*
X1788Y335D01*
X1788Y333D01*
X1782Y333D01*
X1782Y331D01*
X2518Y331D01*
X2518Y429D01*
X682Y429D01*
G37*
D02*
G36*
X682Y391D02*
X682Y331D01*
X1304Y331D01*
X1304Y333D01*
X1298Y333D01*
X1298Y335D01*
X1294Y335D01*
X1294Y337D01*
X1292Y337D01*
X1292Y339D01*
X1290Y339D01*
X1290Y341D01*
X1288Y341D01*
X1288Y343D01*
X1286Y343D01*
X1286Y345D01*
X1284Y345D01*
X1284Y349D01*
X1282Y349D01*
X1282Y359D01*
X1280Y359D01*
X1280Y363D01*
X1282Y363D01*
X1282Y371D01*
X1284Y371D01*
X1284Y375D01*
X1286Y375D01*
X1286Y379D01*
X1288Y379D01*
X1288Y381D01*
X1290Y381D01*
X1290Y383D01*
X1292Y383D01*
X1292Y385D01*
X1296Y385D01*
X1296Y387D01*
X1298Y387D01*
X1298Y389D01*
X1306Y389D01*
X1306Y391D01*
X682Y391D01*
G37*
D02*
G36*
X1314Y391D02*
X1314Y389D01*
X1322Y389D01*
X1322Y387D01*
X1326Y387D01*
X1326Y385D01*
X1328Y385D01*
X1328Y383D01*
X1756Y383D01*
X1756Y385D01*
X1760Y385D01*
X1760Y387D01*
X1764Y387D01*
X1764Y389D01*
X1772Y389D01*
X1772Y391D01*
X1314Y391D01*
G37*
D02*
G36*
X1330Y339D02*
X1330Y337D01*
X1326Y337D01*
X1326Y335D01*
X1324Y335D01*
X1324Y333D01*
X1318Y333D01*
X1318Y331D01*
X1382Y331D01*
X1382Y339D01*
X1330Y339D01*
G37*
D02*
G36*
X1732Y339D02*
X1732Y331D01*
X1768Y331D01*
X1768Y333D01*
X1762Y333D01*
X1762Y335D01*
X1758Y335D01*
X1758Y337D01*
X1756Y337D01*
X1756Y339D01*
X1732Y339D01*
G37*
D02*
G36*
X682Y331D02*
X682Y329D01*
X1382Y329D01*
X1382Y331D01*
X682Y331D01*
G37*
D02*
G36*
X682Y331D02*
X682Y329D01*
X1382Y329D01*
X1382Y331D01*
X682Y331D01*
G37*
D02*
G36*
X1732Y331D02*
X1732Y329D01*
X2518Y329D01*
X2518Y331D01*
X1732Y331D01*
G37*
D02*
G36*
X1732Y331D02*
X1732Y329D01*
X2518Y329D01*
X2518Y331D01*
X1732Y331D01*
G37*
D02*
G36*
X682Y329D02*
X682Y281D01*
X1402Y281D01*
X1402Y283D01*
X1396Y283D01*
X1396Y285D01*
X1392Y285D01*
X1392Y287D01*
X1390Y287D01*
X1390Y289D01*
X1388Y289D01*
X1388Y291D01*
X1386Y291D01*
X1386Y293D01*
X1384Y293D01*
X1384Y297D01*
X1382Y297D01*
X1382Y303D01*
X1380Y303D01*
X1380Y319D01*
X1382Y319D01*
X1382Y329D01*
X682Y329D01*
G37*
D02*
G36*
X1732Y329D02*
X1732Y311D01*
X1730Y311D01*
X1730Y305D01*
X1728Y305D01*
X1728Y301D01*
X1726Y301D01*
X1726Y299D01*
X1724Y299D01*
X1724Y295D01*
X1720Y295D01*
X1720Y293D01*
X1718Y293D01*
X1718Y291D01*
X1714Y291D01*
X1714Y289D01*
X1710Y289D01*
X1710Y287D01*
X2518Y287D01*
X2518Y329D01*
X1732Y329D01*
G37*
D02*
G36*
X1578Y293D02*
X1578Y291D01*
X1482Y291D01*
X1482Y289D01*
X1428Y289D01*
X1428Y287D01*
X1694Y287D01*
X1694Y289D01*
X1688Y289D01*
X1688Y291D01*
X1686Y291D01*
X1686Y293D01*
X1578Y293D01*
G37*
D02*
G36*
X1426Y287D02*
X1426Y285D01*
X2518Y285D01*
X2518Y287D01*
X1426Y287D01*
G37*
D02*
G36*
X1426Y287D02*
X1426Y285D01*
X2518Y285D01*
X2518Y287D01*
X1426Y287D01*
G37*
D02*
G36*
X1422Y285D02*
X1422Y283D01*
X1418Y283D01*
X1418Y281D01*
X2518Y281D01*
X2518Y285D01*
X1422Y285D01*
G37*
D02*
G36*
X682Y281D02*
X682Y279D01*
X2518Y279D01*
X2518Y281D01*
X682Y281D01*
G37*
D02*
G36*
X682Y281D02*
X682Y279D01*
X2518Y279D01*
X2518Y281D01*
X682Y281D01*
G37*
D02*
G36*
X682Y279D02*
X682Y257D01*
X1372Y257D01*
X1372Y255D01*
X1378Y255D01*
X1378Y253D01*
X1382Y253D01*
X1382Y251D01*
X1386Y251D01*
X1386Y249D01*
X1388Y249D01*
X1388Y247D01*
X1390Y247D01*
X1390Y245D01*
X1394Y245D01*
X1394Y241D01*
X1396Y241D01*
X1396Y239D01*
X1720Y239D01*
X1720Y237D01*
X1724Y237D01*
X1724Y235D01*
X1728Y235D01*
X1728Y233D01*
X1730Y233D01*
X1730Y231D01*
X1732Y231D01*
X1732Y229D01*
X1734Y229D01*
X1734Y225D01*
X1736Y225D01*
X1736Y223D01*
X1738Y223D01*
X1738Y215D01*
X1740Y215D01*
X1740Y205D01*
X1738Y205D01*
X1738Y199D01*
X1736Y199D01*
X1736Y195D01*
X1734Y195D01*
X1734Y191D01*
X1732Y191D01*
X1732Y189D01*
X1730Y189D01*
X1730Y187D01*
X1728Y187D01*
X1728Y185D01*
X1724Y185D01*
X1724Y183D01*
X1720Y183D01*
X1720Y181D01*
X2518Y181D01*
X2518Y279D01*
X682Y279D01*
G37*
D02*
G36*
X682Y257D02*
X682Y253D01*
X680Y253D01*
X680Y249D01*
X678Y249D01*
X678Y247D01*
X676Y247D01*
X676Y245D01*
X674Y245D01*
X674Y243D01*
X672Y243D01*
X672Y241D01*
X666Y241D01*
X666Y239D01*
X604Y239D01*
X604Y237D01*
X602Y237D01*
X602Y233D01*
X600Y233D01*
X600Y231D01*
X598Y231D01*
X598Y229D01*
X596Y229D01*
X596Y225D01*
X592Y225D01*
X592Y223D01*
X590Y223D01*
X590Y221D01*
X588Y221D01*
X588Y199D01*
X590Y199D01*
X590Y197D01*
X592Y197D01*
X592Y195D01*
X596Y195D01*
X596Y191D01*
X598Y191D01*
X598Y189D01*
X600Y189D01*
X600Y187D01*
X602Y187D01*
X602Y183D01*
X604Y183D01*
X604Y179D01*
X606Y179D01*
X606Y173D01*
X608Y173D01*
X608Y163D01*
X950Y163D01*
X950Y165D01*
X942Y165D01*
X942Y167D01*
X938Y167D01*
X938Y169D01*
X934Y169D01*
X934Y171D01*
X932Y171D01*
X932Y173D01*
X930Y173D01*
X930Y175D01*
X926Y175D01*
X926Y179D01*
X924Y179D01*
X924Y181D01*
X922Y181D01*
X922Y183D01*
X920Y183D01*
X920Y187D01*
X918Y187D01*
X918Y191D01*
X916Y191D01*
X916Y195D01*
X914Y195D01*
X914Y203D01*
X912Y203D01*
X912Y217D01*
X914Y217D01*
X914Y225D01*
X916Y225D01*
X916Y231D01*
X918Y231D01*
X918Y233D01*
X920Y233D01*
X920Y237D01*
X922Y237D01*
X922Y239D01*
X924Y239D01*
X924Y241D01*
X926Y241D01*
X926Y245D01*
X930Y245D01*
X930Y247D01*
X932Y247D01*
X932Y249D01*
X934Y249D01*
X934Y251D01*
X938Y251D01*
X938Y253D01*
X942Y253D01*
X942Y255D01*
X948Y255D01*
X948Y257D01*
X682Y257D01*
G37*
D02*
G36*
X972Y257D02*
X972Y255D01*
X978Y255D01*
X978Y253D01*
X982Y253D01*
X982Y251D01*
X986Y251D01*
X986Y249D01*
X988Y249D01*
X988Y247D01*
X990Y247D01*
X990Y245D01*
X994Y245D01*
X994Y241D01*
X996Y241D01*
X996Y239D01*
X998Y239D01*
X998Y237D01*
X1000Y237D01*
X1000Y233D01*
X1002Y233D01*
X1002Y229D01*
X1004Y229D01*
X1004Y225D01*
X1006Y225D01*
X1006Y215D01*
X1008Y215D01*
X1008Y205D01*
X1006Y205D01*
X1006Y195D01*
X1004Y195D01*
X1004Y191D01*
X1002Y191D01*
X1002Y187D01*
X1000Y187D01*
X1000Y183D01*
X998Y183D01*
X998Y181D01*
X996Y181D01*
X996Y179D01*
X994Y179D01*
X994Y177D01*
X992Y177D01*
X992Y175D01*
X990Y175D01*
X990Y173D01*
X988Y173D01*
X988Y171D01*
X986Y171D01*
X986Y169D01*
X982Y169D01*
X982Y167D01*
X978Y167D01*
X978Y165D01*
X970Y165D01*
X970Y163D01*
X1350Y163D01*
X1350Y165D01*
X1342Y165D01*
X1342Y167D01*
X1338Y167D01*
X1338Y169D01*
X1334Y169D01*
X1334Y171D01*
X1332Y171D01*
X1332Y173D01*
X1330Y173D01*
X1330Y175D01*
X1326Y175D01*
X1326Y179D01*
X1324Y179D01*
X1324Y181D01*
X1322Y181D01*
X1322Y183D01*
X1320Y183D01*
X1320Y187D01*
X1318Y187D01*
X1318Y191D01*
X1316Y191D01*
X1316Y195D01*
X1314Y195D01*
X1314Y203D01*
X1312Y203D01*
X1312Y217D01*
X1314Y217D01*
X1314Y225D01*
X1316Y225D01*
X1316Y231D01*
X1318Y231D01*
X1318Y233D01*
X1320Y233D01*
X1320Y237D01*
X1322Y237D01*
X1322Y239D01*
X1324Y239D01*
X1324Y241D01*
X1326Y241D01*
X1326Y245D01*
X1330Y245D01*
X1330Y247D01*
X1332Y247D01*
X1332Y249D01*
X1334Y249D01*
X1334Y251D01*
X1338Y251D01*
X1338Y253D01*
X1342Y253D01*
X1342Y255D01*
X1348Y255D01*
X1348Y257D01*
X972Y257D01*
G37*
D02*
G36*
X1398Y239D02*
X1398Y237D01*
X1400Y237D01*
X1400Y233D01*
X1402Y233D01*
X1402Y229D01*
X1404Y229D01*
X1404Y225D01*
X1406Y225D01*
X1406Y215D01*
X1408Y215D01*
X1408Y205D01*
X1406Y205D01*
X1406Y195D01*
X1404Y195D01*
X1404Y191D01*
X1402Y191D01*
X1402Y187D01*
X1400Y187D01*
X1400Y183D01*
X1398Y183D01*
X1398Y181D01*
X1700Y181D01*
X1700Y183D01*
X1696Y183D01*
X1696Y185D01*
X1692Y185D01*
X1692Y187D01*
X1690Y187D01*
X1690Y189D01*
X1688Y189D01*
X1688Y191D01*
X1686Y191D01*
X1686Y195D01*
X1684Y195D01*
X1684Y197D01*
X1682Y197D01*
X1682Y203D01*
X1680Y203D01*
X1680Y217D01*
X1682Y217D01*
X1682Y223D01*
X1684Y223D01*
X1684Y225D01*
X1686Y225D01*
X1686Y229D01*
X1688Y229D01*
X1688Y231D01*
X1690Y231D01*
X1690Y233D01*
X1692Y233D01*
X1692Y235D01*
X1696Y235D01*
X1696Y237D01*
X1700Y237D01*
X1700Y239D01*
X1398Y239D01*
G37*
D02*
G36*
X40Y189D02*
X40Y41D01*
X230Y41D01*
X230Y67D01*
X232Y67D01*
X232Y73D01*
X234Y73D01*
X234Y75D01*
X236Y75D01*
X236Y79D01*
X238Y79D01*
X238Y141D01*
X236Y141D01*
X236Y145D01*
X234Y145D01*
X234Y147D01*
X232Y147D01*
X232Y153D01*
X230Y153D01*
X230Y167D01*
X232Y167D01*
X232Y173D01*
X234Y173D01*
X234Y175D01*
X236Y175D01*
X236Y179D01*
X238Y179D01*
X238Y181D01*
X240Y181D01*
X240Y183D01*
X242Y183D01*
X242Y185D01*
X246Y185D01*
X246Y187D01*
X250Y187D01*
X250Y189D01*
X40Y189D01*
G37*
D02*
G36*
X1396Y181D02*
X1396Y179D01*
X2518Y179D01*
X2518Y181D01*
X1396Y181D01*
G37*
D02*
G36*
X1396Y181D02*
X1396Y179D01*
X2518Y179D01*
X2518Y181D01*
X1396Y181D01*
G37*
D02*
G36*
X1394Y179D02*
X1394Y177D01*
X1392Y177D01*
X1392Y175D01*
X1390Y175D01*
X1390Y173D01*
X1388Y173D01*
X1388Y171D01*
X1386Y171D01*
X1386Y169D01*
X1382Y169D01*
X1382Y167D01*
X1378Y167D01*
X1378Y165D01*
X1370Y165D01*
X1370Y163D01*
X2518Y163D01*
X2518Y179D01*
X1394Y179D01*
G37*
D02*
G36*
X608Y163D02*
X608Y161D01*
X2518Y161D01*
X2518Y163D01*
X608Y163D01*
G37*
D02*
G36*
X608Y163D02*
X608Y161D01*
X2518Y161D01*
X2518Y163D01*
X608Y163D01*
G37*
D02*
G36*
X608Y163D02*
X608Y161D01*
X2518Y161D01*
X2518Y163D01*
X608Y163D01*
G37*
D02*
G36*
X608Y161D02*
X608Y147D01*
X606Y147D01*
X606Y141D01*
X604Y141D01*
X604Y137D01*
X602Y137D01*
X602Y133D01*
X600Y133D01*
X600Y131D01*
X598Y131D01*
X598Y129D01*
X596Y129D01*
X596Y125D01*
X592Y125D01*
X592Y123D01*
X590Y123D01*
X590Y121D01*
X588Y121D01*
X588Y119D01*
X584Y119D01*
X584Y117D01*
X580Y117D01*
X580Y115D01*
X576Y115D01*
X576Y113D01*
X568Y113D01*
X568Y111D01*
X2518Y111D01*
X2518Y161D01*
X608Y161D01*
G37*
D02*
G36*
X282Y111D02*
X282Y109D01*
X2518Y109D01*
X2518Y111D01*
X282Y111D01*
G37*
D02*
G36*
X282Y111D02*
X282Y109D01*
X2518Y109D01*
X2518Y111D01*
X282Y111D01*
G37*
D02*
G36*
X282Y109D02*
X282Y79D01*
X284Y79D01*
X284Y75D01*
X286Y75D01*
X286Y73D01*
X288Y73D01*
X288Y65D01*
X290Y65D01*
X290Y41D01*
X2518Y41D01*
X2518Y109D01*
X282Y109D01*
G37*
D02*
G36*
X945Y1243D02*
X970Y1243D01*
X970Y1219D01*
X945Y1219D01*
X945Y1243D01*
G37*
D02*
G36*
X945Y1205D02*
X970Y1205D01*
X970Y1181D01*
X945Y1181D01*
X945Y1205D01*
G37*
D02*
G36*
X926Y1224D02*
X950Y1224D01*
X950Y1199D01*
X926Y1199D01*
X926Y1224D01*
G37*
D02*
G36*
X964Y1224D02*
X990Y1224D01*
X990Y1199D01*
X964Y1199D01*
X964Y1224D01*
G37*
D02*
G36*
X2286Y711D02*
X2329Y711D01*
X2329Y681D01*
X2286Y681D01*
X2286Y711D01*
G37*
D02*
G36*
X2286Y643D02*
X2329Y643D01*
X2329Y613D01*
X2286Y613D01*
X2286Y643D01*
G37*
D02*
G36*
X2258Y683D02*
X2288Y683D01*
X2288Y640D01*
X2258Y640D01*
X2258Y683D01*
G37*
D02*
G36*
X506Y384D02*
X538Y384D01*
X538Y339D01*
X506Y339D01*
X506Y384D01*
G37*
D02*
G36*
X35Y1307D02*
X80Y1307D01*
X80Y1281D01*
X35Y1281D01*
X35Y1307D01*
G37*
D02*
G36*
X12Y1284D02*
X38Y1284D01*
X38Y1239D01*
X12Y1239D01*
X12Y1284D01*
G37*
D02*
G36*
X76Y1284D02*
X108Y1284D01*
X108Y1239D01*
X76Y1239D01*
X76Y1284D01*
G37*
D02*
G36*
X1336Y195D02*
X1379Y195D01*
X1379Y163D01*
X1336Y163D01*
X1336Y195D01*
G37*
D02*
G36*
X1308Y233D02*
X1340Y233D01*
X1340Y190D01*
X1308Y190D01*
X1308Y233D01*
G37*
D02*
G36*
X1374Y233D02*
X1408Y233D01*
X1408Y190D01*
X1374Y190D01*
X1374Y233D01*
G37*
D02*
G36*
X695Y1243D02*
X720Y1243D01*
X720Y1219D01*
X695Y1219D01*
X695Y1243D01*
G37*
D02*
G36*
X695Y1205D02*
X720Y1205D01*
X720Y1181D01*
X695Y1181D01*
X695Y1205D01*
G37*
D02*
G36*
X676Y1224D02*
X700Y1224D01*
X700Y1199D01*
X676Y1199D01*
X676Y1224D01*
G37*
D02*
G36*
X714Y1224D02*
X740Y1224D01*
X740Y1199D01*
X714Y1199D01*
X714Y1224D01*
G37*
D02*
G36*
X745Y1043D02*
X770Y1043D01*
X770Y1019D01*
X745Y1019D01*
X745Y1043D01*
G37*
D02*
G36*
X745Y1005D02*
X770Y1005D01*
X770Y981D01*
X745Y981D01*
X745Y1005D01*
G37*
D02*
G36*
X726Y1024D02*
X750Y1024D01*
X750Y999D01*
X726Y999D01*
X726Y1024D01*
G37*
D02*
G36*
X764Y1024D02*
X790Y1024D01*
X790Y999D01*
X764Y999D01*
X764Y1024D01*
G37*
D02*
G36*
X695Y843D02*
X720Y843D01*
X720Y819D01*
X695Y819D01*
X695Y843D01*
G37*
D02*
G36*
X695Y805D02*
X720Y805D01*
X720Y781D01*
X695Y781D01*
X695Y805D01*
G37*
D02*
G36*
X676Y824D02*
X700Y824D01*
X700Y799D01*
X676Y799D01*
X676Y824D01*
G37*
D02*
G36*
X714Y824D02*
X740Y824D01*
X740Y799D01*
X714Y799D01*
X714Y824D01*
G37*
D02*
G36*
X1695Y243D02*
X1720Y243D01*
X1720Y219D01*
X1695Y219D01*
X1695Y243D01*
G37*
D02*
G36*
X1695Y205D02*
X1720Y205D01*
X1720Y181D01*
X1695Y181D01*
X1695Y205D01*
G37*
D02*
G36*
X1676Y224D02*
X1700Y224D01*
X1700Y199D01*
X1676Y199D01*
X1676Y224D01*
G37*
D02*
G36*
X1714Y224D02*
X1740Y224D01*
X1740Y199D01*
X1714Y199D01*
X1714Y224D01*
G37*
D02*
G36*
X2486Y1261D02*
X2529Y1261D01*
X2529Y1231D01*
X2486Y1231D01*
X2486Y1261D01*
G37*
D02*
G36*
X2526Y1233D02*
X2550Y1233D01*
X2550Y1190D01*
X2526Y1190D01*
X2526Y1233D01*
G37*
D02*
G36*
X2458Y1133D02*
X2488Y1133D01*
X2488Y1090D01*
X2458Y1090D01*
X2458Y1133D01*
G37*
D02*
G36*
X2526Y1133D02*
X2550Y1133D01*
X2550Y1090D01*
X2526Y1090D01*
X2526Y1133D01*
G37*
D02*
G36*
X2086Y1305D02*
X2129Y1305D01*
X2129Y1281D01*
X2086Y1281D01*
X2086Y1305D01*
G37*
D02*
G36*
X2086Y1243D02*
X2129Y1243D01*
X2129Y1213D01*
X2086Y1213D01*
X2086Y1243D01*
G37*
D02*
G36*
X2126Y1283D02*
X2156Y1283D01*
X2156Y1240D01*
X2126Y1240D01*
X2126Y1283D01*
G37*
D02*
G04 End of Copper0*
M02*